<svg width="1187" height="291" fill="none" xmlns="http://www.w3.org/2000/svg"><path d="M23 1.1c1 0 2 .2 2.8.4.8.2 1.3.5 1.7 1 .4.5.6 1.1.6 2 0 .4 0 .8-.2 1.2l-.7 1-1 .5 1.1.5c.4.2.6.5.8 1 .2.4.3.9.3 1.6 0 .8-.1 1.4-.5 2-.4.5-1 1-1.6 1.3-.8.3-1.6.4-2.6.4H19V1.1h4Zm.2 5.1c.8 0 1.4 0 1.7-.3.3-.3.4-.7.4-1.1 0-.5-.1-.9-.5-1.1-.4-.2-1-.3-1.7-.3h-1.5v2.8h1.6Zm-1.6 2.2v3.3h1.8c.8 0 1.4-.1 1.7-.4.4-.3.5-.8.5-1.3 0-.3 0-.6-.2-.8-.1-.3-.4-.5-.7-.6l-1.4-.2h-1.7ZM34.8 4c1.4 0 2.4.3 3 .8.8.6 1.1 1.5 1.1 2.6V14h-1.8l-.6-1.3-1 .8c-.2.3-.5.4-1 .5a5 5 0 0 1-1.3.2c-.6 0-1.1-.1-1.6-.3-.4-.3-.8-.6-1-1-.3-.5-.4-1.1-.4-1.8 0-1 .3-1.8 1-2.3.8-.5 1.9-.8 3.3-.9h1.8v-.5c0-.5-.2-.8-.5-1-.2-.3-.6-.4-1-.4-.6 0-1 0-1.5.2l-1.3.5-1-1.8a7.7 7.7 0 0 1 3.8-1Zm.4 5.5c-.8 0-1.4.2-1.8.4-.3.3-.5.7-.5 1.2 0 .4.1.7.4.9l1 .2c.5 0 1-.1 1.4-.5.4-.3.6-.8.6-1.4v-.9h-1Zm10.5 4.7c-1 0-1.8-.2-2.5-.5-.7-.4-1.2-1-1.6-1.7-.3-.7-.5-1.7-.5-2.9s.2-2.1.6-2.9c.4-.8 1-1.3 1.7-1.7a6.8 6.8 0 0 1 5.6.1l-.8 2.1-1.2-.4-1.1-.1a2 2 0 0 0-1.2.3 2 2 0 0 0-.7 1L43.8 9c0 .7 0 1.2.2 1.6.2.5.5.8.8 1 .3.2.7.3 1.1.3a4.7 4.7 0 0 0 2.8-.8v2.2l-1.3.6-1.7.2Zm7.9-7.8v1.2l-.1 1 .3-.4.4-.6.5-.4 2.7-3h3l-3.9 4.2 4.2 5.6h-3.1l-2.9-4-1.1 1v3h-2.7V.3h2.7v6.1ZM64.8 14H62V.3h2.7V14Zm11.7-5c0 .9-.1 1.6-.4 2.2-.2.7-.5 1.2-1 1.7a4 4 0 0 1-1.4 1c-.6.2-1.3.3-2 .3s-1.3-.1-2-.3a4.2 4.2 0 0 1-2.4-2.7c-.2-.6-.3-1.3-.3-2.1 0-1.1.2-2 .5-2.8a4 4 0 0 1 1.7-1.7c.7-.4 1.6-.6 2.6-.6.9 0 1.7.2 2.4.6.7.4 1.3 1 1.7 1.7.4.8.6 1.7.6 2.8Zm-6.8 0c0 .7 0 1.3.2 1.7.1.4.4.8.7 1 .3.2.7.3 1.1.3.5 0 .9 0 1.2-.3.3-.2.5-.6.6-1a5.2 5.2 0 0 0 0-3.3c0-.4-.3-.7-.6-1a2 2 0 0 0-1.2-.2c-.7 0-1.2.2-1.5.7a4 4 0 0 0-.5 2.2Zm12.2-5c.6 0 1.1.1 1.6.4.5.2.9.6 1.2 1h.1l.2-1.2h2.3V14c0 1-.2 1.7-.6 2.4-.3.6-.9 1-1.6 1.4-.7.4-1.6.5-2.7.5l-2-.1a8 8 0 0 1-1.7-.5v-2.1a9.8 9.8 0 0 0 3.8.8c.7 0 1.3-.2 1.6-.6.3-.4.5-1 .5-1.7V14a11.4 11.4 0 0 1 0-1.2 3 3 0 0 1-2.8 1.5c-1.1 0-2-.5-2.7-1.4-.7-.9-1-2.1-1-3.7 0-1 .2-2 .5-2.8A3.4 3.4 0 0 1 81.9 4Zm.8 2.2c-.4 0-.7 0-1 .3a2 2 0 0 0-.7 1l-.2 1.6c0 1 .2 1.8.5 2.3.3.4.8.7 1.5.7.3 0 .6 0 .9-.2.2 0 .4-.2.6-.4l.4-.8V9l-.1-1.7-.7-1a2 2 0 0 0-1.2-.2ZM358.7 3.4c-.7 0-1.3.1-1.9.4-.5.2-1 .5-1.4 1-.4.4-.7 1-.9 1.6a7 7 0 0 0-.3 2.2c0 1 .2 2 .5 2.7a4 4 0 0 0 1.5 1.8c.6.4 1.5.7 2.4.7.6 0 1.1 0 1.6-.2l1.5-.3v1.4l-1.5.4h-1.8c-1.3 0-2.4-.2-3.3-.7a5 5 0 0 1-2-2.3c-.4-1-.6-2.2-.6-3.5 0-1 .1-1.9.4-2.7.3-.8.7-1.5 1.2-2.1.5-.6 1.2-1 2-1.3.7-.4 1.6-.5 2.6-.5a9 9 0 0 1 3.5.7l-.6 1.4a10 10 0 0 0-1.4-.5l-1.5-.2Zm14 6.8c0 .8-.1 1.5-.3 2.1-.2.6-.5 1.1-1 1.6-.3.4-.8.7-1.3 1a5 5 0 0 1-3.7 0 4 4 0 0 1-1.4-1l-1-1.6-.2-2.1c0-1.1.1-2 .5-2.7.4-.8.9-1.3 1.6-1.7.6-.4 1.4-.6 2.4-.6.8 0 1.6.2 2.3.6.6.4 1.1 1 1.5 1.7.4.7.6 1.6.6 2.7Zm-7.3 0c0 .7.1 1.4.3 2 .2.5.5 1 1 1.2.4.3.9.5 1.5.5a2.5 2.5 0 0 0 2.5-1.7c.3-.6.4-1.3.4-2 0-.8-.1-1.5-.3-2-.3-.5-.6-1-1-1.2-.4-.3-1-.5-1.6-.5-1 0-1.7.3-2.1 1-.5.6-.7 1.5-.7 2.7Zm13.2 5c-1.2 0-2.1-.4-2.9-1.3-.7-.8-1-2-1-3.7 0-1.7.3-3 1-3.7.8-.9 1.7-1.3 3-1.3.4 0 .9 0 1.3.2.3 0 .7.3 1 .5l.6.7h.1a17.5 17.5 0 0 0 0-1.4V1.3h1.5V15H382l-.2-1.3-.8.8-1 .5a4 4 0 0 1-1.3.2Zm.3-1.3c1 0 1.7-.3 2.1-.9.4-.5.7-1.4.7-2.5v-.3c0-1.2-.2-2.1-.6-2.7-.4-.7-1.2-1-2.2-1-.9 0-1.5.3-2 1a5 5 0 0 0-.6 2.7c0 1.2.2 2 .6 2.7.5.6 1.1 1 2 1Zm9-8.5V15h-1.6V5.4h1.6Zm-.8-3.7.6.3c.2.1.3.4.3.7 0 .4 0 .6-.3.8l-.6.3a1 1 0 0 1-.7-.3c-.2-.2-.2-.4-.2-.8 0-.3 0-.6.2-.7.2-.2.4-.3.7-.3Zm8.5 3.5c1.1 0 2 .3 2.6.8.6.6.9 1.5.9 2.7V15h-1.6V8.8c0-.8-.2-1.3-.5-1.7-.4-.4-1-.6-1.7-.6-1 0-1.8.3-2.2.9-.4.6-.6 1.5-.6 2.6v5H391V5.4h1.3l.2 1.3h.1c.2-.4.5-.6.8-.9l1-.5 1.3-.1Zm9.9 0a4 4 0 0 1 1.7.3c.5.3 1 .6 1.3 1.1l.3-1.2h1.3v9.8a5 5 0 0 1-.5 2.2 3 3 0 0 1-1.4 1.5c-.7.3-1.5.4-2.5.4a10.7 10.7 0 0 1-3.4-.6v-1.4l1 .3 1.2.3 1.3.1c.9 0 1.5-.2 2-.7.5-.5.7-1.2.7-2v-.4a14.4 14.4 0 0 1 0-1.2c-.4.5-.8.9-1.3 1.1-.5.3-1 .4-1.7.4-1.3 0-2.2-.5-3-1.3-.6-1-1-2.1-1-3.7 0-1 .2-2 .5-2.7a4 4 0 0 1 1.3-1.7c.6-.4 1.3-.6 2.2-.6Zm.2 1.3c-.6 0-1 .1-1.4.4-.4.3-.7.7-.9 1.3-.2.5-.3 1.2-.3 2 0 1.2.3 2.1.7 2.7.4.7 1 1 2 1 .4 0 .8 0 1.2-.2.3-.1.6-.3.8-.6.3-.3.4-.6.6-1l.1-1.5v-.4c0-.9 0-1.6-.3-2.1-.2-.6-.5-1-1-1.2a3 3 0 0 0-1.5-.4ZM717.5 11.6c0 .7-.2 1.4-.6 2-.3.5-.9.9-1.6 1.1-.6.3-1.5.5-2.4.5a12.9 12.9 0 0 1-2.6-.3l-1-.3V13a9.7 9.7 0 0 0 3.7.8c.6 0 1.1-.1 1.6-.3a2 2 0 0 0 1-.7c.2-.3.3-.7.3-1 0-.5-.1-.9-.3-1.2-.2-.2-.5-.5-1-.7-.4-.3-1-.6-1.7-.8l-1.5-.7c-.4-.2-.8-.5-1-.8a3.1 3.1 0 0 1-.9-2.4c0-.6.2-1.2.6-1.7.3-.5.8-.9 1.4-1.1.6-.3 1.3-.4 2.1-.4a8.9 8.9 0 0 1 3.6.7l-.5 1.4-1.5-.5-1.6-.2c-.5 0-1 0-1.3.2-.4.2-.7.4-.9.7l-.2 1c0 .4 0 .8.2 1 .2.3.5.6 1 .8l1.6.8c.7.2 1.4.5 1.9.9.5.3 1 .6 1.2 1 .3.5.4 1 .4 1.8Zm7-6.4c1.1 0 2.1.4 2.8 1.2.8.8 1.1 2 1.1 3.8 0 1-.1 2-.5 2.7-.3.8-.8 1.3-1.4 1.7-.6.4-1.3.6-2 .6a4 4 0 0 1-2.4-.7l-.6-.7h-.2a20 20 0 0 1 .2 1.6v4h-1.6v-14h1.3l.2 1.3.7-.8 1-.5c.4-.2.8-.2 1.4-.2Zm-.3 1.3c-.7 0-1.2.1-1.6.4a2 2 0 0 0-.9 1l-.2 2v.3c0 .8 0 1.4.2 2 .2.5.5 1 .8 1.2.5.3 1 .5 1.7.5.6 0 1-.2 1.4-.5.4-.3.7-.8.9-1.3a6 6 0 0 0 .3-2c0-1-.2-2-.7-2.6-.4-.7-1-1-2-1Zm11.2-1.3h1.2l-.2 1.5a5.2 5.2 0 0 0-1 0l-1.1.1-1 .7a3 3 0 0 0-.6 1l-.2 1.4V15H731V5.4h1.3l.2 1.7.8-1a3.2 3.2 0 0 1 2.2-1Zm4.6.2V15h-1.6V5.4h1.6Zm-.8-3.7.6.3c.2.1.3.4.3.7 0 .4 0 .6-.3.8l-.6.3a1 1 0 0 1-.7-.3c-.2-.2-.2-.4-.2-.8 0-.3 0-.6.2-.7.2-.2.4-.3.7-.3Zm8.5 3.5c1.1 0 2 .3 2.6.8.6.6.9 1.5.9 2.7V15h-1.6V8.8c0-.8-.2-1.3-.5-1.7-.4-.4-1-.6-1.7-.6-1 0-1.8.3-2.2.9-.4.6-.6 1.5-.6 2.6v5H743V5.4h1.3l.2 1.3h.1c.2-.4.5-.6.8-.9l1-.5 1.3-.1Zm9.7 8.7a5.2 5.2 0 0 0 1.3-.2v1.2l-.7.2h-.9c-.5 0-1 0-1.4-.2-.4-.2-.8-.5-1-.9-.3-.4-.4-1-.4-1.8V6.6h-1.4v-.8l1.4-.6.6-2h1v2.2h2.7v1.2H756v5.6c0 .5 0 1 .4 1.3.3.2.6.4 1 .4ZM769 2c1 0 2 .2 2.6.5a3 3 0 0 1 1.6 1.2c.3.5.5 1.2.5 2 0 .7-.2 1.3-.4 1.7-.3.5-.6.8-1 1.1l-1.2.6 3.5 5.8h-1.9l-3-5.3h-2.6V15h-1.7V2.1h3.6Zm-.1 1.5h-1.8v4.7h1.9c.7 0 1.3 0 1.7-.2a2 2 0 0 0 1-.9c.2-.3.3-.8.3-1.3 0-.6-.1-1-.3-1.4-.3-.3-.6-.6-1-.7-.5-.2-1-.2-1.8-.2Zm11.2 1.6a4 4 0 0 1 2.2.5c.6.4 1 .9 1.3 1.5.4.7.5 1.5.5 2.3v1h-6.6c0 1 .3 2 .8 2.5a3 3 0 0 0 2.3.8 7.3 7.3 0 0 0 3-.6v1.4a7 7 0 0 1-3 .6c-1 0-1.8-.2-2.5-.6a4 4 0 0 1-1.6-1.6c-.4-.8-.6-1.7-.6-2.8 0-1 .2-2 .5-2.7.4-.7.9-1.3 1.5-1.7.6-.4 1.4-.6 2.2-.6Zm0 1.3c-.7 0-1.3.2-1.8.7-.4.5-.7 1.2-.7 2h4.9c0-.5-.1-1-.3-1.4a2 2 0 0 0-.8-1c-.3-.2-.7-.3-1.3-.3Zm8.3 8.5-3.7-9.6h1.7l2 5.6a34.8 34.8 0 0 1 .8 2.6 19.2 19.2 0 0 1 .9-2.6l2-5.6h1.7l-3.6 9.6h-1.8Zm8.6-9.6V15h-1.6V5.4h1.6Zm-.8-3.7.6.3c.2.1.3.4.3.7 0 .4-.1.6-.3.8l-.6.3a1 1 0 0 1-.7-.3c-.2-.2-.3-.4-.3-.8 0-.3.1-.6.3-.7.2-.2.4-.3.7-.3Zm7.5 3.5a4 4 0 0 1 2.2.5c.6.4 1 .9 1.3 1.5.4.7.5 1.5.5 2.3v1h-6.6c0 1 .3 2 .8 2.5a3 3 0 0 0 2.3.8 7.3 7.3 0 0 0 3-.6v1.4a7 7 0 0 1-3 .6c-1 0-1.8-.2-2.5-.6A4 4 0 0 1 800 13c-.3-.8-.5-1.7-.5-2.8 0-1 .1-2 .5-2.7.4-.7.9-1.3 1.5-1.7.6-.4 1.4-.6 2.2-.6Zm0 1.3c-.7 0-1.3.2-1.8.7-.4.5-.7 1.2-.8 2h5c0-.5-.1-1-.3-1.4a2 2 0 0 0-.8-1c-.3-.2-.7-.3-1.3-.3Zm12.3 3a58.5 58.5 0 0 0-.6-2.5l-.2.5a9 9 0 0 1-.3 1.3l-.2.8L813 15h-1.8l-2.6-9.7h1.6l1.4 5.2a27.4 27.4 0 0 1 .6 2.9 21.7 21.7 0 0 0 .3-1.3l.2-.7.2-.6 1.7-5.5h1.7l1.7 5.5a28.3 28.3 0 0 1 .7 2.5 9.8 9.8 0 0 1 .4-1.7c0-.4.2-.8.3-1.1l1.3-5.2h1.6l-2.6 9.7h-1.9l-1.7-5.5ZM1091.2 15h-2l-6.8-10.7V15h-1.4V2.1h1.9l6.8 10.7V2h1.5V15Zm7-9.8a4 4 0 0 1 2.1.5c.6.4 1 .9 1.4 1.5.3.7.5 1.5.5 2.3v1h-6.7c0 1 .3 2 .9 2.5a3 3 0 0 0 2.2.8 7.3 7.3 0 0 0 3.1-.6v1.4a7 7 0 0 1-3.1.6c-1 0-1.8-.2-2.5-.6a4 4 0 0 1-1.6-1.6c-.4-.8-.6-1.7-.6-2.8 0-1 .2-2 .5-2.7.4-.7.9-1.3 1.5-1.7.7-.4 1.4-.6 2.3-.6Zm0 1.3c-.8 0-1.4.2-1.8.7-.5.5-.7 1.2-.8 2h4.9c0-.5 0-1-.3-1.4a2 2 0 0 0-.7-1c-.4-.2-.8-.3-1.3-.3Zm8.3 3.6-3.3-4.7h1.8l2.5 3.6 2.5-3.6h1.8l-3.4 4.7 3.5 4.9h-1.8l-2.6-3.9-2.7 3.9h-1.8l3.5-5Zm10.5 3.8a5.2 5.2 0 0 0 1.4-.2v1.2l-.8.2h-.9c-.5 0-1 0-1.4-.2-.4-.2-.7-.5-1-.9-.3-.4-.4-1-.4-1.8V6.6h-1.4v-.8l1.4-.6.7-2h.9v2.2h2.8v1.2h-2.8v5.6c0 .5.1 1 .4 1.3.3.2.7.4 1.1.4ZM1134.2 2l-4.5 12.9h-1.7l-4.6-12.9h1.7l3 8.3a18.2 18.2 0 0 1 .7 2.8l.2-.9.3-1 .4-1 2.8-8.2h1.7Zm5 3a4 4 0 0 1 2 .6c.7.4 1.1.9 1.4 1.5.4.7.5 1.5.5 2.3v1h-6.6c0 1 .3 2 .8 2.5a3 3 0 0 0 2.3.8 7.2 7.2 0 0 0 3-.6v1.4a7 7 0 0 1-3 .6c-1 0-1.8-.2-2.5-.6a4 4 0 0 1-1.7-1.6 6 6 0 0 1-.5-2.8c0-1 .1-2 .5-2.7.3-.7.8-1.3 1.5-1.7.6-.4 1.4-.6 2.2-.6Zm0 1.4c-.8 0-1.4.2-1.9.7-.4.5-.7 1.2-.8 2h5c0-.5-.1-1-.3-1.4a2 2 0 0 0-.8-1c-.3-.2-.7-.3-1.3-.3Zm10.9-1.3a5 5 0 0 1 1.1 0l-.2 1.5a5.2 5.2 0 0 0-1 0l-1.1.1-.9.7a3.2 3.2 0 0 0-.8 2.4V15h-1.6V5.4h1.3l.1 1.7h.1l.8-1a3 3 0 0 1 1-.7l1.2-.2Zm9.2 7.1c0 .7-.2 1.2-.5 1.6-.3.4-.7.7-1.3 1a8.2 8.2 0 0 1-3.8.2l-1.3-.5V13l1.4.6 1.7.2c.8 0 1.4-.1 1.7-.4a1.2 1.2 0 0 0 .4-1.7 2 2 0 0 0-.8-.5l-1.4-.7-1.6-.7a3 3 0 0 1-1-.9c-.3-.3-.4-.7-.4-1.3 0-.8.3-1.4 1-1.9.6-.4 1.5-.6 2.6-.6a7.1 7.1 0 0 1 3 .6l-.5 1.3-.8-.3a5.6 5.6 0 0 0-1.8-.3c-.7 0-1.1 0-1.5.3-.3.2-.5.5-.5.8 0 .3 0 .5.2.7l.8.6a33.5 33.5 0 0 0 3 1.3c.5.2.8.5 1 .9.3.3.4.7.4 1.2Zm3.9-7V15h-1.6V5.4h1.6Zm-.8-3.6c.3 0 .5.1.7.3.2.1.3.4.3.7 0 .4-.2.6-.3.8-.2.2-.4.3-.7.3a1 1 0 0 1-.6-.3c-.2-.2-.3-.4-.3-.8 0-.3 0-.6.3-.7.1-.2.4-.3.6-.3Zm12.3 8.5c0 .8-.2 1.5-.4 2.1-.2.6-.5 1.1-.9 1.6-.4.4-.8.7-1.4 1a5 5 0 0 1-3.6 0 4 4 0 0 1-1.4-1l-1-1.6c-.2-.6-.3-1.3-.3-2.1 0-1.1.2-2 .6-2.7.3-.8.8-1.3 1.5-1.7.7-.4 1.5-.6 2.4-.6.9 0 1.6.2 2.3.6.7.4 1.2 1 1.6 1.7.4.7.6 1.6.6 2.7Zm-7.3 0c0 .7 0 1.4.2 2 .3.5.6 1 1 1.2.4.3 1 .5 1.6.5.6 0 1.2-.2 1.6-.5.4-.3.7-.7.9-1.3.2-.5.3-1.2.3-2 0-.7 0-1.4-.3-1.9-.2-.5-.5-1-1-1.2-.3-.3-.9-.5-1.5-.5-1 0-1.7.3-2.2 1-.4.6-.6 1.5-.6 2.7Zm14.4-5c1.2 0 2 .3 2.6.8.6.6.9 1.5.9 2.7V15h-1.6V8.8c0-.8-.2-1.3-.5-1.7-.3-.4-.9-.6-1.6-.6-1.1 0-1.8.3-2.3.9-.4.6-.6 1.5-.6 2.6v5h-1.5V5.4h1.2l.3 1.3.8-.9 1.1-.5 1.2-.1ZM128.5 282.6c0 .7-.2 1.4-.6 2-.3.5-.9.9-1.6 1.1-.6.3-1.4.5-2.4.5a12.9 12.9 0 0 1-2.6-.3l-1-.3V284a9.7 9.7 0 0 0 3.7.8c.6 0 1.2-.1 1.6-.3a2 2 0 0 0 1-.7c.2-.3.3-.7.3-1 0-.5-.1-.9-.3-1.2-.2-.2-.5-.5-1-.7-.4-.3-1-.6-1.7-.8l-1.5-.7-1-.8a3.1 3.1 0 0 1-.9-2.4c0-.6.2-1.2.6-1.7.3-.5.8-.9 1.4-1.1.6-.3 1.3-.4 2.2-.4a8.9 8.9 0 0 1 3.5.7l-.5 1.4-1.5-.5-1.6-.2c-.5 0-1 0-1.3.2-.4.2-.7.4-.8.7-.2.3-.3.6-.3 1s0 .8.3 1c.1.3.4.6.8.8l1.7.8c.8.2 1.4.5 1.9.9.5.3 1 .6 1.2 1 .3.5.4 1 .4 1.8Zm7-6.4c1.2 0 2.1.4 2.8 1.2.8.8 1.1 2 1.1 3.8 0 1-.1 2-.5 2.7-.3.8-.8 1.3-1.4 1.7-.5.4-1.2.6-2 .6a4 4 0 0 1-2.4-.7l-.6-.7h-.1a20 20 0 0 1 0 1.6v4H131v-14h1.3l.2 1.3.7-.8 1-.5c.4-.2.9-.2 1.4-.2Zm-.3 1.3c-.7 0-1.2.1-1.6.4a2 2 0 0 0-.8 1c-.2.6-.3 1.2-.3 2v.3c0 .8 0 1.4.2 2 .2.5.5 1 .9 1.2.4.3 1 .5 1.6.5.6 0 1-.2 1.5-.5l.8-1.3a6 6 0 0 0 .3-2c0-1-.2-2-.7-2.6-.4-.7-1-1-2-1Zm11.3-1.3h1.1l-.2 1.5a5.2 5.2 0 0 0-1 0l-1.1.1-1 .7a3 3 0 0 0-.5 1c-.2.4-.3.9-.3 1.4v5.1H142v-9.6h1.2l.2 1.7h.1l.7-1a3.2 3.2 0 0 1 2.3-1Zm4.5.2v9.6h-1.6v-9.6h1.6Zm-.8-3.7.6.3c.2.1.3.4.3.7 0 .4 0 .6-.3.8l-.6.3a1 1 0 0 1-.7-.3l-.2-.8c0-.3 0-.6.2-.7.2-.2.4-.3.7-.3Zm8.5 3.5c1.1 0 2 .3 2.6.8.6.6.9 1.5.9 2.7v6.3h-1.6v-6.2c0-.8-.2-1.3-.5-1.7-.4-.4-1-.6-1.7-.6-1 0-1.8.3-2.2.9-.4.6-.6 1.5-.6 2.6v5H154v-9.6h1.3l.2 1.3h.1c.2-.4.5-.6.8-.9l1-.5 1.3-.1Zm9.7 8.7a5.2 5.2 0 0 0 1.3-.2v1.2l-.7.2h-.9c-.5 0-1 0-1.4-.2-.4-.2-.8-.5-1-.9-.3-.4-.4-1-.4-1.8v-5.6h-1.4v-.8l1.4-.6.6-2h1v2.2h2.8v1.2h-2.8v5.6c0 .5.1 1 .4 1.3.3.2.6.4 1 .4ZM180 273c1.6 0 2.9.4 3.6 1 .8.7 1.2 1.6 1.2 2.8 0 .6-.1 1-.3 1.6-.2.4-.4.9-.8 1.3l-1.6.9c-.7.2-1.5.3-2.5.3h-1.4v5h-1.6v-12.9h3.4Zm-.2 1.4h-1.6v5.1h1.3a7 7 0 0 0 2-.2c.5-.2 1-.5 1.2-.9.3-.4.4-.9.4-1.5 0-.8-.3-1.4-.8-1.9-.5-.4-1.4-.6-2.5-.6Zm9 11.5h-1.6v-13.7h1.6V286Zm6.7-9.8c1.2 0 2 .2 2.6.8.6.5.9 1.3.9 2.4v6.6h-1.2l-.3-1.4-1 1-1 .4a5 5 0 0 1-2.9-.1c-.4-.2-.8-.5-1-1a3 3 0 0 1-.4-1.6c0-1 .4-1.7 1.1-2.2.8-.5 2-.8 3.5-.9h1.6v-.6c0-.8-.1-1.4-.5-1.7-.3-.3-.8-.4-1.5-.4-.5 0-1 0-1.4.2l-1.3.5-.5-1.2a7 7 0 0 1 3.3-.8Zm.5 5.1c-1.2 0-2 .3-2.5.6-.5.4-.7.8-.7 1.4 0 .6.2 1 .5 1.2.3.3.8.4 1.3.4.8 0 1.5-.2 2-.7.5-.4.8-1.1.8-2v-1l-1.4.1Zm10.6-5.1c1.2 0 2 .3 2.6.8.6.6.9 1.5.9 2.7v6.3h-1.6v-6.2c0-.8-.1-1.3-.5-1.7-.3-.4-.9-.6-1.6-.6-1 0-1.8.3-2.2.9-.4.6-.7 1.5-.7 2.6v5H202v-9.6h1.2l.3 1.3.9-.9 1-.5 1.2-.1Zm11.1 0c1.2 0 2 .3 2.6.8.6.6 1 1.5 1 2.7v6.3h-1.6v-6.2c0-.8-.2-1.3-.6-1.7-.3-.4-.9-.6-1.6-.6-1 0-1.8.3-2.2.9-.4.6-.6 1.5-.6 2.6v5H213v-9.6h1.3l.2 1.3.9-.9 1-.5 1.2-.1Zm8.1.2v9.6h-1.6v-9.6h1.6Zm-.8-3.7c.3 0 .5.1.7.3.2.1.2.4.2.7 0 .4 0 .6-.2.8-.2.2-.4.3-.7.3a1 1 0 0 1-.6-.3c-.2-.2-.3-.4-.3-.8 0-.3 0-.6.3-.7.1-.2.4-.3.6-.3Zm8.5 3.5c1.2 0 2 .3 2.6.8.6.6.9 1.5.9 2.7v6.3h-1.6v-6.2c0-.8-.1-1.3-.5-1.7-.3-.4-.9-.6-1.6-.6-1.1 0-1.8.3-2.2.9-.5.6-.7 1.5-.7 2.6v5H229v-9.6h1.2l.3 1.3.9-.9 1-.5 1.2-.1Zm10 0a4 4 0 0 1 1.6.3c.5.3 1 .6 1.3 1.1h.1l.2-1.2h1.3v9.8a5 5 0 0 1-.5 2.2 3 3 0 0 1-1.4 1.5c-.6.3-1.4.4-2.4.4a10.7 10.7 0 0 1-3.5-.6v-1.4l1 .3 1.2.3 1.4.1c.8 0 1.4-.2 2-.7.4-.5.6-1.2.6-2v-.4a14.4 14.4 0 0 1 0-1.2c-.3.5-.7.9-1.2 1.1-.5.3-1.1.4-1.8.4-1.2 0-2.2-.5-3-1.3-.6-1-1-2.1-1-3.7 0-1 .2-2 .5-2.7a4 4 0 0 1 1.4-1.7c.6-.4 1.3-.6 2.1-.6Zm.1 1.3c-.5 0-1 .1-1.4.4-.3.3-.6.7-.8 1.3-.2.5-.3 1.2-.3 2 0 1.2.2 2.1.6 2.7.5.7 1.1 1 2 1 .5 0 .9 0 1.2-.2.4-.1.7-.3.9-.6l.5-1 .1-1.5v-.4c0-.9 0-1.6-.3-2.1-.2-.6-.5-1-.9-1.2a3 3 0 0 0-1.6-.4ZM545.9 286h-1.6v-11.4h-4V273h9.6v1.5h-4V286Zm8.2-9.8a4 4 0 0 1 2 .5c.7.4 1.1.9 1.5 1.5.3.7.4 1.5.4 2.3v1h-6.6c0 1 .3 2 .9 2.5a3 3 0 0 0 2.2.8 7.3 7.3 0 0 0 3.1-.6v1.4a7 7 0 0 1-3.2.6c-.9 0-1.7-.2-2.4-.6a4 4 0 0 1-1.6-1.6c-.4-.8-.6-1.7-.6-2.8 0-1 .2-2 .5-2.7.4-.7.9-1.3 1.5-1.7.7-.4 1.4-.6 2.3-.6Zm0 1.3c-.8 0-1.4.2-1.9.7-.4.5-.6 1.2-.7 2h4.9c0-.5-.1-1-.3-1.4a2 2 0 0 0-.7-1c-.4-.2-.8-.3-1.4-.3Zm12.7 5.8c0 .7-.2 1.2-.5 1.6-.3.4-.7.7-1.3 1a8.2 8.2 0 0 1-3.8.2l-1.3-.5V284l1.4.6 1.7.2c.8 0 1.4-.1 1.7-.4a1.2 1.2 0 0 0 .4-1.7 2 2 0 0 0-.8-.5l-1.4-.7-1.6-.7a3 3 0 0 1-1-.9c-.3-.3-.4-.7-.4-1.3 0-.8.3-1.4 1-1.9.6-.4 1.5-.6 2.6-.6a7 7 0 0 1 3 .6l-.5 1.3-.8-.3a5.6 5.6 0 0 0-1.8-.3c-.7 0-1.1 0-1.5.3a1 1 0 0 0-.5.8c0 .3 0 .5.2.7l.8.6a33 33 0 0 0 3 1.3c.5.2.8.5 1 .9.3.3.4.7.4 1.2Zm5.5 1.6a5.2 5.2 0 0 0 1.4-.2v1.2l-.7.2h-1c-.4 0-1 0-1.3-.2-.5-.2-.8-.5-1-.9-.3-.4-.5-1-.5-1.8v-5.6H568v-.8l1.4-.6.6-2h1v2.2h2.7v1.2h-2.8v5.6c0 .5.2 1 .4 1.3.3.2.7.4 1.1.4Zm4.9-8.5v9.6h-1.6v-9.6h1.6Zm-.8-3.7c.3 0 .5.1.7.3l.2.7c0 .4 0 .6-.2.8-.2.2-.4.3-.7.3a1 1 0 0 1-.6-.3c-.2-.2-.3-.4-.3-.8 0-.3 0-.6.3-.7.1-.2.4-.3.6-.3Zm8.5 3.5c1.2 0 2 .3 2.6.8.6.6.9 1.5.9 2.7v6.3h-1.6v-6.2c0-.8-.1-1.3-.5-1.7-.3-.4-.9-.6-1.6-.6-1.1 0-1.8.3-2.2.9-.5.6-.7 1.5-.7 2.6v5h-1.5v-9.6h1.2l.3 1.3.9-.9 1-.5 1.2-.1Zm9.9 0a4 4 0 0 1 1.7.3c.5.3 1 .6 1.3 1.1h.1l.2-1.2h1.3v9.8a5 5 0 0 1-.5 2.2 3 3 0 0 1-1.4 1.5c-.6.3-1.4.4-2.4.4a10.7 10.7 0 0 1-3.5-.6v-1.4l1 .3 1.2.3 1.4.1c.8 0 1.4-.2 2-.7.4-.5.6-1.2.6-2v-.4a14.4 14.4 0 0 1 0-1.2c-.3.5-.7.9-1.3 1.1-.4.3-1 .4-1.7.4-1.2 0-2.2-.5-3-1.3-.6-1-1-2.1-1-3.7 0-1 .2-2 .5-2.7a4 4 0 0 1 1.4-1.7c.6-.4 1.3-.6 2.1-.6Zm.2 1.3c-.5 0-1 .1-1.4.4-.3.3-.6.7-.8 1.3-.2.5-.3 1.2-.3 2 0 1.2.2 2.1.6 2.7.5.7 1.1 1 2 1 .4 0 .9 0 1.2-.2.4-.1.7-.3.9-.6l.5-1 .1-1.5v-.4c0-.9 0-1.6-.3-2.1-.2-.6-.5-1-.9-1.2a3 3 0 0 0-1.6-.4ZM880.5 282.6c0 .7-.2 1.4-.6 2-.4.5-.9.9-1.6 1.1-.7.3-1.5.5-2.4.5a12.9 12.9 0 0 1-2.6-.3l-1-.3V284a9.7 9.7 0 0 0 3.7.8c.6 0 1.1-.1 1.6-.3a2 2 0 0 0 1-.7l.3-1c0-.5-.1-.9-.3-1.2-.2-.2-.5-.5-1-.7-.4-.3-1-.6-1.8-.8l-1.4-.7c-.4-.2-.8-.5-1-.8a3.1 3.1 0 0 1-.9-2.4c0-.6.2-1.2.5-1.7.4-.5.9-.9 1.5-1.1.6-.3 1.3-.4 2.1-.4a8.9 8.9 0 0 1 3.6.7l-.5 1.4-1.5-.5-1.6-.2c-.6 0-1 0-1.4.2l-.8.7c-.2.3-.2.6-.2 1s0 .8.2 1c.2.3.5.6 1 .8l1.6.8c.7.2 1.4.5 1.9.9.5.3.9.6 1.2 1 .2.5.4 1 .4 1.8Zm7-6.4c1.1 0 2 .4 2.8 1.2.7.8 1.1 2 1.1 3.8 0 1-.2 2-.5 2.7-.3.8-.8 1.3-1.4 1.7-.6.4-1.3.6-2 .6a4 4 0 0 1-2.4-.7l-.7-.7a20 20 0 0 1 0 1.6v4h-1.6v-14h1.3l.3 1.3.7-.8 1-.5c.4-.2.8-.2 1.3-.2Zm-.4 1.3c-.6 0-1.1.1-1.5.4a2 2 0 0 0-.9 1c-.2.6-.3 1.2-.3 2v.3c0 .8.1 1.4.3 2 .2.5.4 1 .8 1.2.4.3 1 .5 1.7.5.6 0 1-.2 1.4-.5.4-.3.7-.8.9-1.3a6 6 0 0 0 .3-2c0-1-.3-2-.7-2.6-.4-.7-1-1-2-1Zm11.3-1.3h1.2l-.2 1.5a5.2 5.2 0 0 0-1 0l-1.1.1-1 .7a3 3 0 0 0-.6 1l-.2 1.4v5.1H894v-9.6h1.3l.2 1.7.8-1a3.2 3.2 0 0 1 2.2-1Zm4.5.2v9.6h-1.5v-9.6h1.5Zm-.7-3.7.6.3c.2.1.3.4.3.7 0 .4-.1.6-.3.8l-.6.3a1 1 0 0 1-.7-.3c-.2-.2-.3-.4-.3-.8 0-.3.1-.6.3-.7.2-.2.4-.3.7-.3Zm8.4 3.5c1.2 0 2 .3 2.7.8.5.6.8 1.5.8 2.7v6.3h-1.5v-6.2c0-.8-.2-1.3-.6-1.7-.3-.4-.8-.6-1.6-.6-1 0-1.8.3-2.2.9-.4.6-.6 1.5-.6 2.6v5H906v-9.6h1.3l.2 1.3h.1c.2-.4.5-.6.8-.9l1-.5 1.2-.1Zm9.7 8.7a5.2 5.2 0 0 0 1.4-.2v1.2l-.7.2h-1c-.4 0-.9 0-1.3-.2s-.8-.5-1-.9c-.3-.4-.4-1-.4-1.8v-5.6h-1.4v-.8l1.4-.6.6-2h1v2.2h2.7v1.2h-2.8v5.6c0 .5.2 1 .5 1.3.2.2.6.4 1 .4Zm11.8-11.8c1 0 2 .2 2.6.5a3 3 0 0 1 1.5 1.2c.4.5.5 1.2.5 2 0 .7 0 1.3-.3 1.7-.3.5-.6.8-1 1.1l-1.2.6 3.5 5.8h-1.9l-3.1-5.3h-2.6v5.3h-1.6v-12.9h3.6Zm-.1 1.5H930v4.7h2c.7 0 1.2 0 1.7-.2a2 2 0 0 0 1-.9c.2-.3.3-.8.3-1.3 0-.6-.1-1-.4-1.4-.2-.3-.5-.6-1-.7-.4-.2-1-.2-1.7-.2Zm11.2 1.6a4 4 0 0 1 2.2.5c.6.4 1 .9 1.3 1.5.3.7.5 1.5.5 2.3v1h-6.6c0 1 .3 2 .8 2.5a3 3 0 0 0 2.3.8 7.3 7.3 0 0 0 3-.6v1.4a7 7 0 0 1-3 .6c-1 0-1.8-.2-2.5-.6a4 4 0 0 1-1.7-1.6c-.3-.8-.5-1.7-.5-2.8 0-1 .1-2 .5-2.7.3-.7.8-1.3 1.5-1.7.6-.4 1.4-.6 2.2-.6Zm0 1.3c-.7 0-1.3.2-1.8.7-.4.5-.7 1.2-.8 2h5c0-.5-.1-1-.3-1.4a2 2 0 0 0-.8-1c-.3-.2-.7-.3-1.3-.3Zm9.7 7.4a5.2 5.2 0 0 0 1.3-.2v1.2l-.7.2h-.9c-.5 0-1 0-1.4-.2-.4-.2-.8-.5-1-.9-.3-.4-.4-1-.4-1.8v-5.6h-1.4v-.8l1.4-.6.6-2h1v2.2h2.8v1.2h-2.8v5.6c0 .5.1 1 .4 1.3.3.2.6.4 1 .4Zm7.8-8.7h1.1l-.2 1.5a5.2 5.2 0 0 0-1 0l-1.1.1-.9.7a3 3 0 0 0-.6 1c-.2.4-.2.9-.2 1.4v5.1h-1.6v-9.6h1.3l.1 1.7h.1l.8-1a3.2 3.2 0 0 1 2.2-1Zm11 5c0 .8-.2 1.5-.4 2.1-.2.6-.5 1.1-.9 1.6-.4.4-.8.7-1.4 1a5 5 0 0 1-3.6 0 4 4 0 0 1-1.4-1l-1-1.6c-.2-.6-.3-1.3-.3-2.1 0-1.1.2-2 .6-2.7.3-.8.8-1.4 1.5-1.7.7-.4 1.5-.6 2.4-.6.9 0 1.6.2 2.3.6.7.3 1.2 1 1.6 1.7.3.7.5 1.6.5 2.7Zm-7.4 0c0 .7.1 1.4.3 2 .2.5.6 1 1 1.2.4.3 1 .5 1.6.5a2.5 2.5 0 0 0 2.5-1.7c.2-.6.3-1.3.3-2 0-.8-.1-1.5-.3-2-.2-.5-.5-1-1-1.2-.3-.3-.9-.5-1.5-.5-1 0-1.7.3-2.2 1-.4.6-.7 1.5-.7 2.7Zm16.1 2.1c0 .7-.1 1.2-.4 1.6-.3.4-.8.7-1.4 1a8.2 8.2 0 0 1-3.8.2l-1.2-.5V284l1.3.6 1.7.2c.8 0 1.4-.1 1.8-.4a1.2 1.2 0 0 0 .3-1.7 2 2 0 0 0-.7-.5c-.4-.2-.8-.5-1.5-.7l-1.6-.7a3 3 0 0 1-1-.9c-.2-.3-.4-.7-.4-1.3 0-.8.4-1.4 1-1.9.7-.4 1.6-.6 2.7-.6a7 7 0 0 1 3 .6l-.5 1.3-.9-.3a5.6 5.6 0 0 0-1.8-.3c-.6 0-1.1 0-1.4.3a1 1 0 0 0-.6.8c0 .3.1.5.3.7.1.2.4.4.8.6a33 33 0 0 0 3 1.3c.4.2.8.5 1 .9.2.3.3.7.3 1.2Zm7-7.1c1.1 0 2 .4 2.8 1.2.7.8 1.1 2 1.1 3.8 0 1-.2 2-.5 2.7-.3.8-.8 1.3-1.4 1.7-.6.4-1.3.6-2 .6a4 4 0 0 1-2.4-.7l-.7-.7a20 20 0 0 1 0 1.6v4h-1.5v-14h1.3l.2 1.3.7-.8 1-.5c.4-.2.8-.2 1.4-.2Zm-.3 1.3c-.7 0-1.2.1-1.6.4a2 2 0 0 0-.9 1l-.3 2v.3c0 .8.1 1.4.3 2 .2.5.4 1 .8 1.2.5.3 1 .5 1.7.5.6 0 1-.2 1.4-.5.4-.3.7-.8.9-1.3a6 6 0 0 0 .3-2c0-1-.2-2-.7-2.6-.4-.7-1-1-2-1Zm10.5-1.3a4 4 0 0 1 2 .5c.7.4 1.1.9 1.4 1.5.4.7.5 1.5.5 2.3v1H995c0 1 .3 2 .9 2.5a3 3 0 0 0 2.2.8 7.3 7.3 0 0 0 3.1-.6v1.4a7 7 0 0 1-3.2.6c-.9 0-1.7-.2-2.4-.6a4 4 0 0 1-1.6-1.6c-.4-.8-.6-1.7-.6-2.8 0-1 .2-2 .5-2.7.4-.7.9-1.3 1.5-1.7.7-.4 1.4-.6 2.3-.6Zm0 1.3c-.8 0-1.4.2-1.9.7-.4.5-.6 1.2-.7 2h4.9c0-.5-.1-1-.3-1.4a2 2 0 0 0-.7-1c-.4-.2-.8-.3-1.4-.3Zm10.3 8.7c-.9 0-1.6-.2-2.3-.5-.7-.4-1.2-1-1.6-1.7-.4-.7-.5-1.6-.5-2.8 0-1.2.1-2.1.5-2.9.5-.7 1-1.3 1.6-1.6a5 5 0 0 1 2.4-.5 6.2 6.2 0 0 1 2.5.5l-.5 1.3-1-.3-1-.1c-.7 0-1.2.1-1.7.4-.4.2-.7.7-.9 1.2-.2.5-.3 1.2-.3 2s.1 1.4.3 2c.2.5.5 1 1 1.2.3.3.8.4 1.5.4.5 0 1 0 1.3-.2.4 0 .8-.2 1.1-.3v1.4c-.3.1-.6.3-1 .3l-1.4.2Zm8-1.3a5.3 5.3 0 0 0 1.3-.2v1.2l-.7.2h-.9c-.5 0-1 0-1.4-.2-.4-.2-.8-.5-1-.9-.3-.4-.4-1-.4-1.8v-5.6h-1.4v-.8l1.4-.6.6-2h1v2.2h2.8v1.2h-2.8v5.6c0 .5 0 1 .4 1.3.3.2.6.4 1 .4Zm4.8-8.5v9.6h-1.6v-9.6h1.6Zm-.7-3.7.6.3c.2.1.3.4.3.7 0 .4-.1.6-.3.8l-.6.3a1 1 0 0 1-.7-.3c-.2-.2-.3-.4-.3-.8 0-.3.1-.6.3-.7.2-.2.4-.3.7-.3Zm6 13.3-3.7-9.6h1.7l2 5.6.3 1 .3.9.2.7.3-.8.3-.9.3-.9 2-5.6h1.7l-3.7 9.6h-1.8Zm10.7-9.8a4 4 0 0 1 2 .5c.7.4 1.1.9 1.5 1.5.3.7.4 1.5.4 2.3v1h-6.6c0 1 .3 2 .9 2.5a3 3 0 0 0 2.2.8 7.3 7.3 0 0 0 3.1-.6v1.4a7 7 0 0 1-3.2.6c-.9 0-1.7-.2-2.4-.6a4 4 0 0 1-1.6-1.6c-.4-.8-.6-1.7-.6-2.8 0-1 .2-2 .5-2.7.4-.7.9-1.3 1.5-1.7a4 4 0 0 1 2.3-.6Zm0 1.3c-.8 0-1.4.2-1.9.7-.4.5-.6 1.2-.7 2h4.9c0-.5-.1-1-.3-1.4a2 2 0 0 0-.8-1c-.3-.2-.7-.3-1.3-.3Z" fill="#fff"/><path d="M1 143.5h1184.5" stroke="#fff" stroke-width="2" stroke-linecap="round"/><circle opacity=".8" cx="52" cy="143.5" r="18" fill="#fff"/><circle opacity=".8" cx="52" cy="143.5" r="26" fill="#fff"/><circle opacity=".5" cx="52" cy="143.5" r="37" fill="#fff"/><circle cx="52" cy="143.5" r="9.5" fill="#00A7E1" stroke="#00A7E1"/><g opacity=".8" filter="url(#a)"><circle cx="184" cy="143.5" r="18" fill="#fff"/></g><g filter="url(#b)"><circle cx="184" cy="143.5" r="10" fill="#00A7E1"/><circle cx="184" cy="143.5" r="9.5" stroke="#00A7E1"/></g><g opacity=".8" filter="url(#c)"><circle cx="377" cy="143.5" r="18" fill="#fff"/></g><g filter="url(#d)"><circle cx="377" cy="143.5" r="10" fill="#00A7E1"/><circle cx="377" cy="143.5" r="9.5" stroke="#00A7E1"/></g><g opacity=".8" filter="url(#e)"><circle cx="570" cy="143.5" r="18" fill="#fff"/></g><g filter="url(#f)"><circle cx="570" cy="143.5" r="10" fill="#00A7E1"/><circle cx="570" cy="143.5" r="9.5" stroke="#00A7E1"/></g><g opacity=".8" filter="url(#g)"><circle cx="763" cy="143.5" r="18" fill="#fff"/></g><g filter="url(#h)"><circle cx="763" cy="143.5" r="10" fill="#00A7E1"/><circle cx="763" cy="143.5" r="9.5" stroke="#00A7E1"/></g><g opacity=".8" filter="url(#i)"><circle cx="956" cy="143.5" r="18" fill="#fff"/></g><g filter="url(#j)"><circle cx="956" cy="143.5" r="10" fill="#00A7E1"/><circle cx="956" cy="143.5" r="9.5" stroke="#00A7E1"/></g><g opacity=".8" filter="url(#k)"><circle cx="1149" cy="143.5" r="18" fill="#fff"/></g><g filter="url(#l)"><circle cx="1149" cy="143.5" r="10" fill="#00A7E1"/><circle cx="1149" cy="143.5" r="9.5" stroke="#00A7E1"/></g><path d="M52 122.5V29M570 258v-93.5M956 258v-93.5M184 258v-93.5M381 122.5V29M765 122.5V29M1149 122.5V29" stroke="#fff" stroke-width="2" stroke-linecap="round" stroke-dasharray="9 9"/><defs><filter id="a" x="162" y="125.5" width="44" height="44" filterUnits="userSpaceOnUse" color-interpolation-filters="sRGB"><feFlood flood-opacity="0" result="BackgroundImageFix"/><feColorMatrix in="SourceAlpha" values="0 0 0 0 0 0 0 0 0 0 0 0 0 0 0 0 0 0 127 0" result="hardAlpha"/><feOffset dy="4"/><feGaussianBlur stdDeviation="2"/><feComposite in2="hardAlpha" operator="out"/><feColorMatrix values="0 0 0 0 0.385 0 0 0 0 0.3003 0 0 0 0 0.3003 0 0 0 0.25 0"/><feBlend in2="BackgroundImageFix" result="effect1_dropShadow_1_2"/><feBlend in="SourceGraphic" in2="effect1_dropShadow_1_2" result="shape"/></filter><filter id="b" x="170" y="133.5" width="28" height="28" filterUnits="userSpaceOnUse" color-interpolation-filters="sRGB"><feFlood flood-opacity="0" result="BackgroundImageFix"/><feColorMatrix in="SourceAlpha" values="0 0 0 0 0 0 0 0 0 0 0 0 0 0 0 0 0 0 127 0" result="hardAlpha"/><feOffset dy="4"/><feGaussianBlur stdDeviation="2"/><feComposite in2="hardAlpha" operator="out"/><feColorMatrix values="0 0 0 0 0.385 0 0 0 0 0.3003 0 0 0 0 0.3003 0 0 0 0.25 0"/><feBlend in2="BackgroundImageFix" result="effect1_dropShadow_1_2"/><feBlend in="SourceGraphic" in2="effect1_dropShadow_1_2" result="shape"/></filter><filter id="c" x="355" y="125.5" width="44" height="44" filterUnits="userSpaceOnUse" color-interpolation-filters="sRGB"><feFlood flood-opacity="0" result="BackgroundImageFix"/><feColorMatrix in="SourceAlpha" values="0 0 0 0 0 0 0 0 0 0 0 0 0 0 0 0 0 0 127 0" result="hardAlpha"/><feOffset dy="4"/><feGaussianBlur stdDeviation="2"/><feComposite in2="hardAlpha" operator="out"/><feColorMatrix values="0 0 0 0 0.385 0 0 0 0 0.3003 0 0 0 0 0.3003 0 0 0 0.25 0"/><feBlend in2="BackgroundImageFix" result="effect1_dropShadow_1_2"/><feBlend in="SourceGraphic" in2="effect1_dropShadow_1_2" result="shape"/></filter><filter id="d" x="363" y="133.5" width="28" height="28" filterUnits="userSpaceOnUse" color-interpolation-filters="sRGB"><feFlood flood-opacity="0" result="BackgroundImageFix"/><feColorMatrix in="SourceAlpha" values="0 0 0 0 0 0 0 0 0 0 0 0 0 0 0 0 0 0 127 0" result="hardAlpha"/><feOffset dy="4"/><feGaussianBlur stdDeviation="2"/><feComposite in2="hardAlpha" operator="out"/><feColorMatrix values="0 0 0 0 0.385 0 0 0 0 0.3003 0 0 0 0 0.3003 0 0 0 0.25 0"/><feBlend in2="BackgroundImageFix" result="effect1_dropShadow_1_2"/><feBlend in="SourceGraphic" in2="effect1_dropShadow_1_2" result="shape"/></filter><filter id="e" x="548" y="125.5" width="44" height="44" filterUnits="userSpaceOnUse" color-interpolation-filters="sRGB"><feFlood flood-opacity="0" result="BackgroundImageFix"/><feColorMatrix in="SourceAlpha" values="0 0 0 0 0 0 0 0 0 0 0 0 0 0 0 0 0 0 127 0" result="hardAlpha"/><feOffset dy="4"/><feGaussianBlur stdDeviation="2"/><feComposite in2="hardAlpha" operator="out"/><feColorMatrix values="0 0 0 0 0.385 0 0 0 0 0.3003 0 0 0 0 0.3003 0 0 0 0.25 0"/><feBlend in2="BackgroundImageFix" result="effect1_dropShadow_1_2"/><feBlend in="SourceGraphic" in2="effect1_dropShadow_1_2" result="shape"/></filter><filter id="f" x="556" y="133.5" width="28" height="28" filterUnits="userSpaceOnUse" color-interpolation-filters="sRGB"><feFlood flood-opacity="0" result="BackgroundImageFix"/><feColorMatrix in="SourceAlpha" values="0 0 0 0 0 0 0 0 0 0 0 0 0 0 0 0 0 0 127 0" result="hardAlpha"/><feOffset dy="4"/><feGaussianBlur stdDeviation="2"/><feComposite in2="hardAlpha" operator="out"/><feColorMatrix values="0 0 0 0 0.385 0 0 0 0 0.3003 0 0 0 0 0.3003 0 0 0 0.25 0"/><feBlend in2="BackgroundImageFix" result="effect1_dropShadow_1_2"/><feBlend in="SourceGraphic" in2="effect1_dropShadow_1_2" result="shape"/></filter><filter id="g" x="741" y="125.5" width="44" height="44" filterUnits="userSpaceOnUse" color-interpolation-filters="sRGB"><feFlood flood-opacity="0" result="BackgroundImageFix"/><feColorMatrix in="SourceAlpha" values="0 0 0 0 0 0 0 0 0 0 0 0 0 0 0 0 0 0 127 0" result="hardAlpha"/><feOffset dy="4"/><feGaussianBlur stdDeviation="2"/><feComposite in2="hardAlpha" operator="out"/><feColorMatrix values="0 0 0 0 0.385 0 0 0 0 0.3003 0 0 0 0 0.3003 0 0 0 0.25 0"/><feBlend in2="BackgroundImageFix" result="effect1_dropShadow_1_2"/><feBlend in="SourceGraphic" in2="effect1_dropShadow_1_2" result="shape"/></filter><filter id="h" x="749" y="133.5" width="28" height="28" filterUnits="userSpaceOnUse" color-interpolation-filters="sRGB"><feFlood flood-opacity="0" result="BackgroundImageFix"/><feColorMatrix in="SourceAlpha" values="0 0 0 0 0 0 0 0 0 0 0 0 0 0 0 0 0 0 127 0" result="hardAlpha"/><feOffset dy="4"/><feGaussianBlur stdDeviation="2"/><feComposite in2="hardAlpha" operator="out"/><feColorMatrix values="0 0 0 0 0.385 0 0 0 0 0.3003 0 0 0 0 0.3003 0 0 0 0.25 0"/><feBlend in2="BackgroundImageFix" result="effect1_dropShadow_1_2"/><feBlend in="SourceGraphic" in2="effect1_dropShadow_1_2" result="shape"/></filter><filter id="i" x="934" y="125.5" width="44" height="44" filterUnits="userSpaceOnUse" color-interpolation-filters="sRGB"><feFlood flood-opacity="0" result="BackgroundImageFix"/><feColorMatrix in="SourceAlpha" values="0 0 0 0 0 0 0 0 0 0 0 0 0 0 0 0 0 0 127 0" result="hardAlpha"/><feOffset dy="4"/><feGaussianBlur stdDeviation="2"/><feComposite in2="hardAlpha" operator="out"/><feColorMatrix values="0 0 0 0 0.385 0 0 0 0 0.3003 0 0 0 0 0.3003 0 0 0 0.25 0"/><feBlend in2="BackgroundImageFix" result="effect1_dropShadow_1_2"/><feBlend in="SourceGraphic" in2="effect1_dropShadow_1_2" result="shape"/></filter><filter id="j" x="942" y="133.5" width="28" height="28" filterUnits="userSpaceOnUse" color-interpolation-filters="sRGB"><feFlood flood-opacity="0" result="BackgroundImageFix"/><feColorMatrix in="SourceAlpha" values="0 0 0 0 0 0 0 0 0 0 0 0 0 0 0 0 0 0 127 0" result="hardAlpha"/><feOffset dy="4"/><feGaussianBlur stdDeviation="2"/><feComposite in2="hardAlpha" operator="out"/><feColorMatrix values="0 0 0 0 0.385 0 0 0 0 0.3003 0 0 0 0 0.3003 0 0 0 0.25 0"/><feBlend in2="BackgroundImageFix" result="effect1_dropShadow_1_2"/><feBlend in="SourceGraphic" in2="effect1_dropShadow_1_2" result="shape"/></filter><filter id="k" x="1127" y="125.5" width="44" height="44" filterUnits="userSpaceOnUse" color-interpolation-filters="sRGB"><feFlood flood-opacity="0" result="BackgroundImageFix"/><feColorMatrix in="SourceAlpha" values="0 0 0 0 0 0 0 0 0 0 0 0 0 0 0 0 0 0 127 0" result="hardAlpha"/><feOffset dy="4"/><feGaussianBlur stdDeviation="2"/><feComposite in2="hardAlpha" operator="out"/><feColorMatrix values="0 0 0 0 0.385 0 0 0 0 0.3003 0 0 0 0 0.3003 0 0 0 0.25 0"/><feBlend in2="BackgroundImageFix" result="effect1_dropShadow_1_2"/><feBlend in="SourceGraphic" in2="effect1_dropShadow_1_2" result="shape"/></filter><filter id="l" x="1135" y="133.5" width="28" height="28" filterUnits="userSpaceOnUse" color-interpolation-filters="sRGB"><feFlood flood-opacity="0" result="BackgroundImageFix"/><feColorMatrix in="SourceAlpha" values="0 0 0 0 0 0 0 0 0 0 0 0 0 0 0 0 0 0 127 0" result="hardAlpha"/><feOffset dy="4"/><feGaussianBlur stdDeviation="2"/><feComposite in2="hardAlpha" operator="out"/><feColorMatrix values="0 0 0 0 0.385 0 0 0 0 0.3003 0 0 0 0 0.3003 0 0 0 0.25 0"/><feBlend in2="BackgroundImageFix" result="effect1_dropShadow_1_2"/><feBlend in="SourceGraphic" in2="effect1_dropShadow_1_2" result="shape"/></filter></defs></svg>