<svg xmlns="http://www.w3.org/2000/svg" viewBox="0 0 750 500"><path fill="#006c35" d="M0 0h750v500H0z"/><path fill-rule="evenodd" d="M323.3 118c-.4 0-1 .3-1.8.8-1.8 1.2-5.5 5-5.6 9.3 0 2.5-.5 2.5 1 4 1.2 1.7 2.4 1.5 4.7.3a5 5 0 0 0 2.3-3.3c.5-2.8-3 1.3-3.4-1.8-.8-2.8 1.4-4 3.6-6.8 0-1.3 0-2.4-.8-2.4zm34 .3c-.6 0-1.4.9-2.5 3-.8 2-4.2 5.2-1.8 11.8 2 4.2 2.9 11 2 18.5-1.4 2.1-1.8 2.9-3.6 5-2.6 2.8-5.4 2-7.5 1-2-1.3-3.6-2-4.5-6.3.1-6.8.5-18-.7-20.4-1.9-3.7-4.9-2.4-6.2-1.3a46.7 46.7 0 0 0-11.2 23c-1.8 5.6-3.6 4-4.9 1.8-3.2-3-3.4-26.1-7.2-22.3-6 17.4 3.5 36.5 10.2 34.7 4.8 2 7.8-7.2 9.8-17.2 1.3-2.8 2.4-3.1 3-1.7-.1 13.3 1 16.3 4.4 20.3a11 11 0 0 0 14.5.3l5.9-6c1.3-1.3 3-1.4 5-.2 1.8 1.7 1.5 4.5 5.4 6.5 3.3 1.3 10.3.3 11.9-2.5 2.2-3.8 2.7-5 3.7-6.5 1.6-2 4.2-1.1 4.2-.5-.2 1.2-1.8 2.3-.7 4.4 1.8 1.4 2.2.5 3.3.2 4-1.8 6.8-10.2 6.8-10.2.2-3.2-1.6-3-2.7-2.3l-3 2.1c-2 .3-5.6 1.6-7.5-1.3-1.8-3.3-1.8-8-3.2-11.5 0-.2-2.5-5.3-.2-5.6 1.1.2 3.6.8 4-1.3 1.2-2-2.6-7.7-5.2-10.6-2.3-2.5-5.4-2.8-8.4-.3-2.1 2-1.8 4.2-2.2 6.2a9.7 9.7 0 0 0 2 8.5c2 4.1 5.9 9.5 4.6 17 0 0-2.2 3.6-6.1 3.1-1.7-.3-4.3-1-5.8-11.5-1-8 .3-19-3-24.2-.8-2-1.5-3.9-2.6-3.7zm-10.7.8c-1 .1-2.2 1.3-3.1 3.6a57.9 57.9 0 0 0-1.6 10.8c-.6 2.7 2.8 3.9 4.4.4 2.4-6.4 2.4-9.1 2.5-11.8-.3-2-1.2-3-2.2-3zm39.8.7c-1 .1-1.9.7-2.2 2.3-.4 3.6-.2 5.6.4 8.6.5 2 3.4 5.4 4.8 7.4 7 9.2 13.6 18.5 20 28.2a294.1 294.1 0 0 1 2.2 21.1c1 15.3 1.3 34.3.4 50.4 2.9.1 7.5-4.6 9-11.6 1.1-9.6-.3-29.1-.4-34.8 0-2.4-.2-5.2-.4-8.1a526.6 526.6 0 0 1 21.8 39.3c2.6-1.3 2-15.8.5-17.9-5.7-12.2-13.5-24.3-16-29-1-1.6-4-6.3-7.7-11.7-.6-7.7-1.4-14.2-1.8-16.2-1.2-8.1 3.3 1 2.7-3.8-1.5-8.1-6-13.6-11.3-21-1.7-2.5-1.6-3-4.3.5a15.5 15.5 0 0 0-1 9.4 49.6 49.6 0 0 0-2.8-3.7l-8.7-7.4c-1.2-.8-3.5-2.1-5.2-2zm118 1.3c-.5-.1-1 .1-1.7 1-1.2 1.1-2.5 3-2.5 5.4.3 4.3 1.1 8.7 1.4 13 0 .6.2 1.1.3 1.7a16.7 16.7 0 0 0-1-1.3c-8.4-8.8 3.8-1.4-1.7-8.2-4.6-5-6-6.6-9.9-9.7-2-1.3-3.1-3.7-3.8.5-.2 3.6-.5 7.8-.3 10.9 0 1.7 1.8 5 3.3 6.8a731 731 0 0 1 17 21.8c1.2 15.5 1.6 29.7 2.8 45.2-.2 6.7-2.2 15.5-4.2 16.4 0 0-3 1.7-5-.2-1.4-.6-7.1-9.6-7.1-9.6-3-2.7-5-2-7 0-5.8 5.6-8.4 16-12.3 23.2-1 1.6-3.9 3-7-.1-8-11-3.4-26.7-4.4-22.7-7.2 8.1-4 21.5-2.4 24.4 2.4 4.7 4.3 7.7 9 10 4.1 3.2 7.4 1.2 9.2-1 4.2-4.3 4.2-15.5 6.2-17.7 1.4-4 4.9-3.3 6.6-1.5 1.6 2.3 3.6 3.9 6 5.2 4 3.4 8.6 4 13.2.9 3.2-1.8 5.2-4 7-8.6 2-5.3 1-33.2.6-48.7l8.9 12.8c1.2 13.6 1.8 27 1.4 39.8-.3 2.6 9-7.6 8.8-12.4v-11.6c4.5 7.1 8.8 14.4 13 21.7 2.5-1.3 1.6-15.7 0-17.6-4.3-7.2-9.8-15-14-21-.9-7.5-2-16.5-2.5-19.2-.8-4.3-1.6-10.7-2.9-15.8-.3-2-1.3-8.3-1-8.9.5-1.4 2.4 0 3.3-1.6 1.4-1.5-4.8-17.6-8-22.2-1-2-3.1-1.3-5.7 2-2.3 2.2-1.5 7.3-.6 12 2.4 12.2 4.5 24.6 6.1 37a1389.3 1389.3 0 0 0-10.4-15.3l-.5-2.4c0-.3-.5-10-1-12.3 0-1-.2-1.2.7-1.1 1 .9 1.2 1 1.9 1.2 1 .2 2-1.6 1.3-3.2l-9.8-18.2c-.4-.4-.8-.8-1.3-.8zm-304.6.3c-1.8 0-3.8 1-3 3.2-.4 1.2 3.6 5.2 4.3 7.4.6 1.6-.7 6.7.7 7.1 1.2.5 2.8-3.5 3.5-7.2.3-2 0-9-4.7-10.4a3.9 3.9 0 0 0-.8-.1zm347 0c-.5 0-1 .7-1.7 2.4-1.9 3-2.5 8.4-1.8 13.2a730 730 0 0 1 8.5 86.3c-.4 2.5-.5 3.8-1.7 7-2.6 3.4-5.5 7.7-8.3 9.7-2.7 2-8.5 4-10.5 5.5-6 3.5-6 7.5-1.1 7.7 8.4-1 18.3-1.7 25.2-12 1.8-3 4-10.8 4.1-15.7.6-28.2-.4-55.8-4.6-76.2-.3-2-1.1-6.6-.8-7.2.5-1.4 3.3.1 4.3-1.5 1.4-1.4-7.1-12.4-10.1-17.1-.6-1.2-1-2.1-1.5-2zm-88.4.5c-.3 0-.8.6-1.8 1.8-2.3 7.7-3.1 14-2.3 18.8 6 31.5 12.3 60.2 11.3 90.3 2.9 0 6.2-6.6 7.6-13.1.8-9-.5-14.4-.8-19.7-.2-5.3-6-48-7-52-1.5-7.5 5.5-1 4.7-5.4-2.4-5.5-8.4-13.5-10.3-18.3-.7-1.3-.8-2.5-1.4-2.4zm-215 .6c-.7.1-1.4.7-1.7 1.7-.2.7.3 1.8-.3 2.1-.4.4-1.7.1-1.6-1.7 0-.6-.4-1.2-.7-1.6-.3-.1-.4-.2-1-.2-.5 0-.5.2-.8.7l-.3 1.5c0 .7-.3.9-.8 1-.6 0-.4 0-.9-.2-.2-.3-.5-.4-.5-1l-.3-1.5c-.2-.3-.6-.5-1-.6-2.2 0-2.4 2.6-2.3 3.6-.2.1-.2 4.7 2.8 6 4.1 2 11.9 1.1 11.5-5.5l-.2-3.1c-.4-1-1.2-1.4-1.9-1.2zm55.2 0a9.2 9.2 0 0 0-3.7 1c-2.8 2.7-3.4 6.9-1.3 9.5 2.1 1 4.2 3 2.8 4.2-5.9 6.3-21.3 16.9-22 18.8v.1a.3.3 0 0 0 0 .1l.1.1c.8.5 10.4.5 11.5 0 3.3-1.2 19-19.2 19-19.2l-2.3-1.9c-1-.7-.8-1.5 0-2.2 3.8-2.3 2.6-7.3.6-9.5-1.7-.8-3.3-1-4.7-1zm144.3.1c-.5 0-1 .7-1.7 2.3-1.9 3-3.2 8.3-3 13.3 4 27.8 5.2 52.1 7.9 80 .2 2.6-.2 6.6-2 8.1a78.4 78.4 0 0 1-26.5 19.4c-1.1 1.2 2.7 6.6 7.8 6.6 8.4-1 15.8-5.8 22.7-18.2 1.8-3 5-9.1 5.1-14 .7-28.2-1.4-50.2-5.6-70.6-.3-2-.1-4.3.2-4.9.6-.7 2.4 0 3.4-1.6 1.4-1.5-3.8-13.7-6.8-18.3-.6-1.2-1-2.2-1.5-2.1zm-223.5.8c-1.2.2-2.3 1.1-2.8 2.4-.2 4.5-.2 9 .3 13 2 7.2 2.7 13.6 3.6 21 .3 9.8-5.7 4.2-5.4-.7 1.4-6.3 1-16.4-.2-19-1-2.4-2.1-3-4.5-2.7-1.9 0-6.7 5.2-8 14 0 0-1.2 4.5-1.7 8.5-.7 4.5-3.7 7.7-5.8-.6-1.8-6.1-2.9-21-5.9-17.6-.9 11.7-1.9 32.3 8 34.4 12 1.1 5.4-20.3 9.8-24.2.8-2 2.3-2 2.4.5v18.2c0 5.9 3.8 7.7 6.8 8.9 3.2-.3 5.3-.2 6.5 2.9l1.5 31.5s7.3 2.1 7.6-17.7c.4-11.6-2.3-21.4-.7-23.7 0-2.2 2.9-2.3 4.9-1.2 3 2.2 4.5 5 9.4 3.8 7.4-2 11.9-5.6 12-11.3-.5-5.4-1.1-10.8-3.4-16.3.3-1-1.5-3.5-1.1-4.5 1.3 2.1 3.3 2 3.8 0-1.3-4.2-3.3-8.1-6.4-9.9-2.7-2.3-6.5-1.8-8 3-.6 5.6 2.1 12.2 6.2 17.6.8 2 2 5.6 1.5 8.7-2.2 1.2-4.3.7-6.1-1.2 0 0-6-4.4-6-5.4 1.7-10 .4-11.2-.4-14-.7-3.8-2.5-5-4-7.6-1.4-1.6-3.4-1.6-4.4 0-2.6 4.5-1.4 14.2.5 18.6 1.4 4 3.5 6.5 2.5 6.5-.8 2.2-2.5 1.7-3.7-1a65 65 0 0 1-2.1-17c-.6-4.5-1.1-14-4-16.5-.9-1-1.8-1.5-2.7-1.4zm42.1.1c-.6 0-1.2.4-2 .6-2.5.8-5 3-4.2 7.3 3 18.3 5 32.3 8 50.7.5 2.1-1.3 5-3.6 4.7-4-2.7-5-8.1-11.7-7.9-4.9 0-10.4 5.4-11.1 10.5-.8 4-1.1 8.4 0 12 3.4 4.1 7.5 3.7 11.1 2.7 3-1.2 5.4-4.1 6.4-3.4.7 1.2 0 10.7-13.9 18-8.5 3.9-15.3 4.8-19-2.2-2.2-4.3.2-20.9-5.3-17-16.5 42.4 38.6 48.3 44.7 1.7.4-1.3 1.6-2.6 2.5-2.3.4.1.7.7.8 1.6-1.3 42.2-42.6 45.1-49.6 31.9a41 41 0 0 1-2.4-14.3c-.4-2.6-1-4-1.7-4.6-1.7-1.3-4 2-4.4 7.7-.7 4.6-.5 5.9-.5 10.3 2.2 33.3 55.4 19 64-8.6 4.3-14.2 0-25 1.3-26.3h.2a.9.9 0 0 1 .2 0c5.3 5.6 12.7.6 14.3-1.3.7-1 2.5-1.7 3.7-.4 4.1 3 11.3 1.6 12.8-3.6.9-5.1 1.6-10.4 1.8-15.9-2.7.9-4.8 1.5-5.7 2.4-.2.2-.4.5-.4.8l-.7 4.5-.1.3a1.5 1.5 0 0 1-.5.5c-1 .5-2.6.2-2.7-1.1-1.3-5.8-6.5-6.6-9.7 2.4-2.2 1.7-6 2-6.5-.5.5-6-2-6.9-6.8-4l-4.7-35.3c2-.1 4 1.4 5.8-1-2-6.2-6.3-19-8.7-20.1a3.2 3.2 0 0 0-.5-.5l-.2-.1a1.7 1.7 0 0 0-.3-.1 1.6 1.6 0 0 0-.7 0zm164.4.1c-2.1 0-4.5 1.3-3.6 4-.5 1.3 4.6 6.2 5.4 9 1.5 4-1.1 8 .4 8.5 1.4.6 3.4-4.2 4-8.7 1-3.7-1.7-11.2-5.3-12.7a4.4 4.4 0 0 0-1-.1zm-128 4.5c1-.1 2 .8 2.6 2 .6 1.4.3 2.6-.7 2.9-1 .2-2.2-.7-2.8-2-.6-1.3-.3-2.6.7-2.9h.1zm237.4 6.2c-1.9-.1-4 1.3-3.1 4.2-.5 1.6 4 6.9 4.8 9.8.7 2-1 8.7.4 9.3 1.3.7 3-4.6 3.7-9.5.4-2.7-1.6-12-5-13.7a3.5 3.5 0 0 0-.8-.1zM404 137.5l.5 2.4 1.1 5.1a78 78 0 0 0-3.3-4.3c-3.4-4.1 0-2.7 1.7-3.2zm30.3 14.9c-.8.1-1.5.8-1.7 1.8-.2.6.3 1.7-.3 2-.4.4-1.7.2-1.6-1.7 0-.5-.5-1.2-.7-1.6l-1-.2c-.5 0-.5.2-.8.7l-.3 1.5c0 .7-.3.9-.8 1-.5 0-.4 0-.9-.2-.2-.3-.5-.4-.5-1l-.3-1.5c-.2-.3-.6-.5-1-.6-2.3 0-2.4 2.6-2.3 3.6-.1.1-.3 4.8 2.8 6 4.1 2 11.9 1.1 11.5-5.5l-.2-3.1c-.4-1-1.2-1.3-2-1.2zm-138.1 1.4c-.5 0-1.2 0-2 .6-3.6 2-5 7.8-2.8 11.2 2.2 3 5.5 1.9 6 1.9 3.5.4 5.6-6.7 5.6-6.7s.1-2-4 1.8c-1.9.3-2.1-.3-2.6-1.3-.3-1.9-.2-3.8.6-5.6.4-1.1 0-1.9-.8-2zm195.2.9c-2-.1-4.2 1.2-4.7 4 0 1.6.7 2.5.6 4-.2.8-1 1.3-3.2.3.4-.3-1.3-2.6-1.3-2.6-1.6-1-3.8 0-5.2 1a7.9 7.9 0 0 0-.5 6.2c2.4 4.3 10.3 11.7 14.1 11.7.1-3.9.5-9 .7-12.2 0-1.2.4-2.5 1.5-2.8 1.2-.3 3.2 1.1 3.2-.1-.2-2.5-.7-6.1-2-7.8a4 4 0 0 0-3.2-1.7zM329.8 168l-.2.1-2 1.8c-1.8 2-2.1 3.5-2 7.6.1.4 3.4 9.6 6.2 16a49.7 49.7 0 0 1 2.3 21.6 53.2 53.2 0 0 1-21.8 22.8c-4.3 1.4-8 1-9.1 0a5.6 5.6 0 0 1-2.4-5.2v-.1c7.2-5 15.5-9.1 21.9-22.7 2-5.1 2.5-8.3.6-16.3-.7-3-1.7-5.4-3.7-7.5 1.3-.7 4.5 1.7 5 .2-.8-3.8-3.4-9-6.3-11.6-2.6-2.3-5.4-2.6-7.8-.4-2.6 1.4-3.2 6.7-1.9 11.4 1.4 3.4 5.3 4 8 11v.1c0 .5 1 5.3-.5 7.2-1 3.5-15.4 14.8-16.4 15.4v.1H299.3v-2.2c-.1-2.1.8-6.9.7-7.7v-.1c-4.8 3-6.3 12.4-7.2 15.2-12 8.3-25.6 14.4-33.4 22.8-4 6.4 28-7.3 31.8-9l.1.1c.7.8.8 3.5 3 6a17 17 0 0 0 17.3 5.6 55.1 55.1 0 0 0 25.1-20.9c1-1.4 2.5-2.5 3.9-1.4 4.7 10.4 18.2 17.9 35.6 18.7 4-5 2.1-7.4.5-8.4-.5-.3-8.7-3.5-10-6.7-.8-3 1.2-5.5 5-7.5a175 175 0 0 0 32.9-6.3c.1-3.6 2.2-9 3.6-11.2 1-1.6 1.6-1.8 1.9-2v-.5l-1.8-1-35.7-.2-1-.5v-.1l-.1-.1v-.4c.2-.3.6-.5 1.1-.7 8.5-1.2 23.7-3.6 24.7-18.2-.2-7.6-3.3-12.6-12.6-14-6.8.6-11.7 7.2-11 14.5-.2 2 .8 5.8-1.3 6.2-13 1.2-27.4 9.5-27.9 15.3l-.1.1h-.2a1.5 1.5 0 0 1-.2 0c-1-.2-2-1.6-1.9-3.6a70.4 70.4 0 0 0-9-30.6c-1.8-1.8-2.6-2.6-3.2-2.7h-.2zm34.2 5.4c-.8.1-1.5.7-1.7 1.8-.2.6.3 1.7-.3 2-.4.4-1.7.2-1.6-1.6 0-.6-.5-1.3-.7-1.6-.3-.2-.4-.2-.9-.2-.6 0-.6.1-1 .6l-.2 1.5c0 .7-.3 1-.8 1s-.4 0-.8-.2c-.3-.3-.6-.4-.6-.9s-.1-1.3-.3-1.6c-.2-.3-.6-.4-1-.5-2.3 0-2.4 2.5-2.3 3.5-.1.2-.3 4.8 2.8 6 4.1 2 14 .9 11.5-5.5l-.2-3c-.4-1-1.2-1.4-2-1.3zm138 5.7a.7.7 0 0 0-.4 0s-19 13.6-19.5 14c-2 1.7-1 7.6 0 7 1.3.5 20.5-12.5 20.2-14 .8 0 1.2-6.8-.3-7zm-120 2c.8-.1 1.8.2 2.8.7 1.4.8 2.3 2 2.2 3l-.1.2v.2a1.3 1.3 0 0 1-.3.2c-.7.7-2.2.6-3.7-.3-1.4-.8-2.3-2-2.2-3l.1-.4h.1v-.1a1.4 1.4 0 0 1 .2-.2c.2-.2.5-.3.9-.3zm-167 3.4c-9.8.2-24.3 13-24.6 20l31.2-15c-1.7-2.5 0-4.8-6.5-5zm32 4.4c1 0 2 .5 2.6 1.9.5 1.2 0 2.5-.5 3.2-.5.6-2 .4-3 .4-1.2 0-1.9-.3-2.6-1.3-.4-1.1.7-2.2 1.2-3v-.1l.3-.3c.3-.3 1-.6 1.7-.7h.4zm251.2 4c-1.7.2-3.4 1.9-2.6 4.5-.5 1.6 2.4 7 3.1 10 .7 2-.8 7.8.5 8.4 1.3.7 4.7-3.4 4.6-8.6.3-2.7-1-12.6-4.3-14.2a3.2 3.2 0 0 0-1.3-.1zM285 202.6c-1.5.1-2.9 1-2.3 3.1 0 1.6 4.4 3.5 4.7 7.2.6 1.5-1 6.4.4 6.8 1.2.5 2.9-3.3 3.5-7 .4-1.9-1.5-8.7-4.7-10a5.5 5.5 0 0 0-1.6-.1zm63.9 8.7h.3c4 1.1 10 1.2 15 1.7 4.2.3 6.2 3.6 2.3 5-3.8 1.2-7.5 2.3-7.5 7.8.5 2.7.4 4.2 0 4.8l-.2.2v.1h-.1a1.1 1.1 0 0 1-.2.1h-.2c-1 .2-2.2-.7-3.2-1.2-2.4-1.7-9-5.8-10-14.6-.1-2 1.4-3.7 3.8-3.9zm-156 6.8c-.2 0-.7.8-1.4 1.6-5.8 9.4-6.4 23.3-3.1 27.5 1.7 2 4.5 2.8 6.6 2.2 3.7-1.6 5.3-9 4.5-11.8-1.3-2-2.2-2.2-3.5-.6-2.6 5.3-3.6 1.7-3.9-1.3-.4-5.6.2-10.7.8-14.8.3-2 .3-2.8 0-2.8zM393 230.4a2.7 2.7 0 0 0-1.4.3s-4.2 2.8-5.5 4.7c-.8.6-.7 1.1-.5 2.2.7 1.5 1.8 1 3 .3 1.7-.2 2.5.9 2.4 2.9-.8 2.5.3 3.4.3 3.6 0 .2 1.6 1.5 3.5.4 4-1.5 6.5-3 12-4.2 1.5 0 1.5-4-.9-4-3 0-5.8.2-8.8 2.6-1.9.4-2.2-.7-2.6-1.7-.5-2.5 1-4.3.7-6.2.1 0-.9-.8-2.2-1zm128.2 4.8-2.7.2c-1.2.3-1.6.8-1.9 2.3.1 2.2 1.5 2.1 2.9 3 .8 1 1.3 2 0 3.7l-3.7 3.1c-.6 1.1-1 2.7 1 3.3 3.5 1 11.7-4.4 11.7-4.5 1.4-1 1-3 .8-3-.8-.8-2.5-.3-3.7-.4-.6 0-2.4-.3-1.5-2 .7-1 1-1.5 1.5-2.8.5-1.2 0-2-2-2.7-1-.2-1.7-.2-2.4-.2zm-53.6 108.4c-6 1.5-5.8 7.7-2 10.4-62.5 0-158.6-1-179.2-1-11.5 0-48-1.5-48.7-1.5 7.8 11.5 19.2 13.8 34 14l193.3-.3c-2.6 4.6.2 12 2.2 13.4l.2.1.2.1h.1c2.5.6 3.5-1.2 4.4-2.4 3.9.3 26 .6 28 0l.1-.1c1.4 2 2.7 4 5.4 3.6 4.5-1 8.1-1.5 8.2-10.8 0 0-.4-15.8-10.8-14.8-2.5.4-9.4 1-9.4 1-8-.9-13.8-1-22.7-1.3.8-1 2.3-5.3.5-6.8-.5-.4-1.2-.6-2.2-.6h-.2a1 1 0 0 1-.1-.2h-.1c-.4-.7-.7-2.3-1-2.7a.5.5 0 0 0-.1-.1zm4.3 22.6c9.1.4 17.7 0 26.8.5 1.5 1.2.8 4-.2 4.6a1 1 0 0 1-.1 0h-.2l-7.7-.2a1.7 1.7 0 0 0-.1-.4c-.7-2.1-5.8-2-7-.3l-.1.2v.1l-.1.3v.2c-4 .5-7.7-.1-11.7-.3-1.2-1.4-1-4 .4-4.7z" fill="#fff"/></svg>