<svg width="163" height="60" fill="none" xmlns="http://www.w3.org/2000/svg"><path d="M117 28a6.8 6.8 0 0 1-5.9-3.5 6.7 6.7 0 0 1 .3-7.5c1.3-2 3.3-3 5.7-3v14ZM86.3 34.7c2.4.1 4.3 1 5.6 3a6.7 6.7 0 0 1 .4 7.4 6.8 6.8 0 0 1-6 3.6v-14ZM114.9 47.6l-.1.1a4 4 0 0 1-5.6-.5l-22-26.4a4 4 0 0 1 .6-5.6h.1a4 4 0 0 1 5.6.5l22 26.4a4 4 0 0 1-.6 5.5ZM133.7 14.4l-.7.3a3.5 3.5 0 0 0-1.7 4.6l12.2 27.2a3.5 3.5 0 0 0 4.5 1.8l.7-.3a3.5 3.5 0 0 0 1.8-4.6l-12.2-27.2a3.5 3.5 0 0 0-4.6-1.8Z" fill="#202020"/><path d="m131 16.1-12 27.3c-.8 1.8 0 3.8 1.7 4.6l.7.3c1.8.8 3.8 0 4.6-1.8l12-27.3c.7-1.7 0-3.8-1.8-4.5l-.7-.4c-1.8-.7-3.8 0-4.6 1.8ZM78.4 35.6A12.3 12.3 0 0 1 66.7 44h-.4a12.5 12.5 0 0 1-11.8-8.5h-3.4a16 16 0 0 0 15.2 11.7h.4c3 0 5.8-.8 8.5-2.6 3.5-2.5 5.7-5.6 6.7-9.1h-3.5Z" fill="#202020"/><path d="M66.7 48.7h-.4a17 17 0 0 1-14.5-8.3c-.9-1.4-1.5-2.9-2-4.5l-.4-1.7h6l.4 1c.7 2 2.1 3.9 4.2 5.5 1.9 1.3 4 2 6.3 2h.5a11 11 0 0 0 9-4.7 12 12 0 0 0 1.4-2.9l.3-.9h6.2l-.5 1.7c-1 3.9-3.5 7.2-7.2 10a17 17 0 0 1-9.3 2.8Z" fill="#202020"/><path d="M54.4 27.8c.3-1.3 1-2.5 1.7-3.7a12.6 12.6 0 0 1 16.8-3.7c3 2 5 4.4 5.8 7.4H82c-.4-1.7-1.1-3.4-2-5-3.6-5-8.1-7.4-13.5-7.4-3.2 0-6.3 1-9.2 3a16.4 16.4 0 0 0-6.3 9.4h3.4Z" fill="#5D7AC1"/><path d="M83.7 29.2h-6l-.3-1A11.4 11.4 0 0 0 66.5 20a11.2 11.2 0 0 0-10.8 8.2l-.3 1h-6.1l.3-1.7c1-3.9 3.2-7.3 6.8-10.1h.1C59.6 15 63 14 66.5 14c5.8 0 10.7 2.8 14.6 8v.2c1 1.7 1.7 3.4 2.2 5.3l.4 1.7Z" fill="#202020"/><path d="M41.7 35.6A12.3 12.3 0 0 1 30 44h-.4a12.5 12.5 0 0 1-11.8-8.5h-3.4a16 16 0 0 0 15.2 11.7h.4c3 0 5.8-.8 8.5-2.6 3.5-2.5 5.7-5.6 6.7-9.1h-3.5Z" fill="#5D7AC1"/><path d="M30 48.7h-.4a17 17 0 0 1-14.5-8.3c-.9-1.4-1.5-2.9-2-4.5l-.4-1.7h6l.4 1c.7 2 2.1 3.9 4.2 5.5 1.8 1.3 4 2 6.3 2h.4a11 11 0 0 0 9-4.7c.6-1 1.1-1.9 1.5-2.9l.3-.9h6.1l-.4 1.7c-1 3.9-3.5 7.2-7.2 10a17 17 0 0 1-9.3 2.8ZM17.6 27.8c.4-1.3 1-2.5 1.8-3.7a12.6 12.6 0 0 1 16.8-3.7c3 2 5 4.4 5.8 7.4h3.3c-.5-1.7-1.1-3.4-2-5-3.6-5-8.1-7.4-13.5-7.4a16 16 0 0 0-9.2 3 16.4 16.4 0 0 0-6.4 9.4h3.4Z" fill="#202020"/><path d="M47 29.2h-6l-.3-1A11.4 11.4 0 0 0 29.8 20 11.2 11.2 0 0 0 19 28.2l-.2 1h-6.1l.3-1.7c.9-3.9 3.2-7.3 6.8-10.1h.1c3.1-2.3 6.5-3.4 10-3.4 5.8 0 10.7 2.8 14.6 8v.2c1 1.7 1.7 3.4 2.2 5.3l.4 1.7Z" fill="#202020"/></svg>