<svg width="16" height="17" fill="none" xmlns="http://www.w3.org/2000/svg"><g clip-path="url(#a)"><path d="M15.2 4.2a2 2 0 0 0-2-1.6h-11a2 2 0 0 0-2 2v7.8a2 2 0 0 0 .7 1.5c.3.3.8.5 1.2.5h11.2a2 2 0 0 0 1.8-1.2l.2-.8V4.2Zm-14-.3v-.2c.3-.2.6-.3 1-.3h11a1.2 1.2 0 0 1 1 .4l.1.2-6 5.1a1 1 0 0 1-1.3 0L1 4l.2-.1Zm-.3 8.6V4.7l4.6 4-4.5 4v-.2Zm13 1H1.5l-.2-.2 4.8-4 .5.4a1.7 1.7 0 0 0 2.2 0l.5-.5 4.8 4.1-.2.1Zm.6-1.1v.3l-4.6-4 4.6-4v7.7Z" fill="#6D6A6A"/></g><defs><clipPath id="a"><path fill="#fff" transform="translate(.1 1)" d="M0 0h15.1v15.1H0z"/></clipPath></defs></svg>