<svg width="217" height="91" fill="none" xmlns="http://www.w3.org/2000/svg"><path d="M4.6 1.9a1.9 1.9 0 1 0 3.8 0 1.9 1.9 0 0 0-3.8 0Z" fill="#fff"/><path d="M25.5 1.9a1.9 1.9 0 1 0 3.7 0 1.9 1.9 0 0 0-3.7 0Z" fill="#fff"/><path d="M46.3 1.9a1.9 1.9 0 1 0 3.8 0 1.9 1.9 0 0 0-3.8 0Z" fill="#fff"/><path d="M67.1 1.9a1.9 1.9 0 1 0 3.8 0 1.9 1.9 0 0 0-3.8 0Z" fill="#fff"/><path d="M88 1.9a1.9 1.9 0 1 0 3.7 0 1.9 1.9 0 0 0-3.8 0Z" fill="#fff"/><path d="M108.8 1.9a1.9 1.9 0 1 0 3.7 0 1.9 1.9 0 0 0-3.7 0Z" fill="#fff"/><path d="M129.6 1.9a1.9 1.9 0 1 0 3.8 0 1.9 1.9 0 0 0-3.8 0Z" fill="#fff"/><path d="M150.4 1.9a1.9 1.9 0 1 0 3.8 0 1.9 1.9 0 0 0-3.8 0Z" fill="#fff"/><path d="M171.2 1.9a1.9 1.9 0 1 0 3.8 0 1.9 1.9 0 0 0-3.8 0Z" fill="#fff"/><path d="M192 1.9a1.9 1.9 0 1 0 3.8 0 1.9 1.9 0 0 0-3.7 0Z" fill="#fff"/><path d="M212.9 1.9a1.9 1.9 0 1 0 3.8 0 1.9 1.9 0 0 0-3.8 0Z" fill="#fff"/><path d="M4.6 19.2a1.9 1.9 0 1 0 3.8 0 1.9 1.9 0 0 0-3.8 0Z" fill="#fff"/><path d="M25.5 19.2a1.9 1.9 0 1 0 3.7 0 1.9 1.9 0 0 0-3.7 0Z" fill="#fff"/><path d="M46.3 19.2a1.9 1.9 0 1 0 3.8 0 1.9 1.9 0 0 0-3.8 0Z" fill="#fff"/><path d="M67.1 19.2a1.9 1.9 0 1 0 3.8 0 1.9 1.9 0 0 0-3.8 0Z" fill="#fff"/><path d="M88 19.2a1.9 1.9 0 1 0 3.7 0 1.9 1.9 0 0 0-3.8 0Z" fill="#fff"/><path d="M108.8 19.2a1.9 1.9 0 1 0 3.7 0 1.9 1.9 0 0 0-3.7 0Z" fill="#fff"/><path d="M129.6 19.2a1.9 1.9 0 1 0 3.8 0 1.9 1.9 0 0 0-3.8 0Z" fill="#fff"/><path d="M150.4 19.2a1.9 1.9 0 0 0 3.2 1.4 1.9 1.9 0 1 0-3.2-1.4Z" fill="#fff"/><path d="M171.2 19.2a1.9 1.9 0 1 0 3.8 0 1.9 1.9 0 0 0-3.8 0Z" fill="#fff"/><path d="M192 19.2a1.9 1.9 0 1 0 3.8 0 1.9 1.9 0 0 0-3.7 0Z" fill="#fff"/><path d="M212.9 19.2a1.9 1.9 0 1 0 3.8 0 1.9 1.9 0 0 0-3.8 0Z" fill="#fff"/><path d="M4.6 36.6a1.9 1.9 0 1 0 3.8 0 1.9 1.9 0 0 0-3.8 0Z" fill="#fff"/><path d="M25.5 36.6a1.9 1.9 0 1 0 3.7 0 1.9 1.9 0 0 0-3.7 0Z" fill="#fff"/><path d="M46.3 36.6a1.9 1.9 0 1 0 3.8 0 1.9 1.9 0 0 0-3.8 0Z" fill="#fff"/><path d="M67.1 36.6a1.9 1.9 0 1 0 3.8 0 1.9 1.9 0 0 0-3.8 0Z" fill="#fff"/><path d="M88 36.6a1.9 1.9 0 1 0 3.7 0 1.9 1.9 0 0 0-3.8 0Z" fill="#fff"/><path d="M108.8 36.6a1.9 1.9 0 1 0 3.7 0 1.9 1.9 0 0 0-3.7 0Z" fill="#fff"/><path d="M129.6 36.6a1.9 1.9 0 1 0 3.8 0 1.9 1.9 0 0 0-3.8 0Z" fill="#fff"/><path d="M150.4 36.6a1.9 1.9 0 1 0 3.8 0 1.9 1.9 0 0 0-3.8 0Z" fill="#fff"/><path d="M171.2 36.6a1.9 1.9 0 1 0 3.8 0 1.9 1.9 0 0 0-3.8 0Z" fill="#fff"/><path d="M192 36.6a1.9 1.9 0 1 0 3.8 0 1.9 1.9 0 0 0-3.7 0Z" fill="#fff"/><path d="M212.9 36.6a1.9 1.9 0 1 0 3.8 0 1.9 1.9 0 0 0-3.8 0Z" fill="#fff"/><path d="M4.6 54a1.9 1.9 0 1 0 3.8 0 1.9 1.9 0 0 0-3.8 0Z" fill="#fff"/><path d="M25.5 54a1.9 1.9 0 1 0 3.7 0 1.9 1.9 0 0 0-3.7 0Z" fill="#fff"/><path d="M46.3 54a1.9 1.9 0 1 0 3.8 0 1.9 1.9 0 0 0-3.8 0Z" fill="#fff"/><path d="M67.1 54a1.9 1.9 0 1 0 3.8 0 1.9 1.9 0 0 0-3.8 0Z" fill="#fff"/><path d="M88 54a1.9 1.9 0 1 0 3.7 0 1.9 1.9 0 0 0-3.8 0Z" fill="#fff"/><path d="M108.8 54a1.9 1.9 0 1 0 3.7 0 1.9 1.9 0 0 0-3.7 0Z" fill="#fff"/><path d="M129.6 54a1.9 1.9 0 1 0 3.8-.1 1.9 1.9 0 0 0-3.8 0Z" fill="#fff"/><path d="M150.4 54a1.9 1.9 0 1 0 3.8-.1 1.9 1.9 0 0 0-3.8 0Z" fill="#fff"/><path d="M171.2 54a1.9 1.9 0 1 0 3.8 0 1.9 1.9 0 0 0-3.8 0Z" fill="#fff"/><path d="M192 54a1.9 1.9 0 1 0 3.8 0 1.9 1.9 0 0 0-3.7 0Z" fill="#fff"/><path d="M212.9 54a1.9 1.9 0 1 0 3.8-.1 1.9 1.9 0 0 0-3.8 0Z" fill="#fff"/><path d="M4.6 71.2a1.9 1.9 0 1 0 3.8 0 1.9 1.9 0 0 0-3.8 0Z" fill="#fff"/><path d="M27.4 73.1a1.9 1.9 0 1 0 0-3.7 1.9 1.9 0 0 0 0 3.7Z" fill="#fff"/><path d="M48.2 73.1a1.9 1.9 0 1 0 0-3.7 1.9 1.9 0 0 0 0 3.7Z" fill="#fff"/><path d="M69 73.1a1.9 1.9 0 1 0 0-3.7 1.9 1.9 0 0 0 0 3.7Z" fill="#fff"/><path d="M88 71.2a1.9 1.9 0 1 0 3.7 0 1.9 1.9 0 0 0-3.8 0Z" fill="#fff"/><path d="M108.8 71.2a1.9 1.9 0 1 0 3.7 0 1.9 1.9 0 0 0-3.7 0Z" fill="#fff"/><path d="M129.6 71.2a1.9 1.9 0 1 0 3.8 0 1.9 1.9 0 0 0-3.8 0Z" fill="#fff"/><path d="M150.4 71.2a1.9 1.9 0 1 0 3.8 0 1.9 1.9 0 0 0-3.8 0Z" fill="#fff"/><path d="M171.2 71.2a1.9 1.9 0 1 0 3.8 0 1.9 1.9 0 0 0-3.8 0Z" fill="#fff"/><path d="M192 71.2a1.9 1.9 0 1 0 3.8 0 1.9 1.9 0 0 0-3.7 0Z" fill="#fff"/><path d="M212.9 71.2a1.9 1.9 0 1 0 3.8 0 1.9 1.9 0 0 0-3.8 0Z" fill="#fff"/><path d="M4.6 88.6a1.9 1.9 0 1 0 3.8 0 1.9 1.9 0 0 0-3.8 0Z" fill="#fff"/><path d="M25.5 88.6a1.9 1.9 0 1 0 3.7 0 1.9 1.9 0 0 0-3.7 0Z" fill="#fff"/><path d="M46.3 88.6a1.9 1.9 0 1 0 3.8 0 1.9 1.9 0 0 0-3.8 0Z" fill="#fff"/><path d="M67.1 88.6a1.9 1.9 0 1 0 3.8 0 1.9 1.9 0 0 0-3.8 0Z" fill="#fff"/><path d="M88 88.6a1.9 1.9 0 1 0 3.7 0 1.9 1.9 0 0 0-3.8 0Z" fill="#fff"/><path d="M108.8 88.6a1.9 1.9 0 1 0 3.7 0 1.9 1.9 0 0 0-3.7 0Z" fill="#fff"/><path d="M129.6 88.6a1.9 1.9 0 1 0 3.8 0 1.9 1.9 0 0 0-3.8 0Z" fill="#fff"/><path d="M150.4 88.6a1.9 1.9 0 1 0 3.8 0 1.9 1.9 0 0 0-3.8 0Z" fill="#fff"/><path d="M171.2 88.6a1.9 1.9 0 1 0 3.8 0 1.9 1.9 0 0 0-3.8 0Z" fill="#fff"/><path d="M192 88.6a1.9 1.9 0 1 0 3.8 0 1.9 1.9 0 0 0-3.7 0Z" fill="#fff"/><path d="M212.9 88.6a1.9 1.9 0 1 0 3.8 0 1.9 1.9 0 0 0-3.8 0Z" fill="#fff"/></svg>