<svg width="13" height="13" fill="none" xmlns="http://www.w3.org/2000/svg"><g clip-path="url(#a)"><path fill-rule="evenodd" clip-rule="evenodd" d="M2.8 2.6h1.4A1.8 1.8 0 0 1 6 .9h1a1.8 1.8 0 0 1 1.8 1.7h1.4c.5.1 1 .2 1.3.6.3.3.4.7.5 1.2v5.8c0 .5-.2 1-.5 1.3a2 2 0 0 1-1.3.5H2.8a2 2 0 0 1-1.3-.5 2 2 0 0 1-.5-1.3V4.4c0-.5.2-1 .5-1.2a2 2 0 0 1 1.3-.6Zm5.2 0H5a1 1 0 0 1 1-.8h1a1 1 0 0 1 1 .8Zm-5.1 8.6c-.4 0-.6-.2-.8-.3l-.3-.8V6.6l2.1.8v.7a.4.4 0 0 0 .8 0v-.4a6.4 6.4 0 0 0 3.6 0V8a.4.4 0 0 0 .8 0v-.7l2.1-.8V10c0 .4-.2.6-.3.8l-.8.3H3Zm1.8-4.4a5.9 5.9 0 0 0 3.6 0v-.6a.4.4 0 0 1 .8 0v.4c.6-.3 1.3-.5 2.1-1V4.6c0-.4-.2-.6-.3-.8l-.8-.3H3l-.8.3-.3.8v1.2l2.1.9v-.4a.4.4 0 0 1 .8 0v.6Z" fill="#787878"/></g><defs><clipPath id="a"><path fill="#fff" d="M0 0h13v13H0z"/></clipPath></defs></svg>