<svg width="118" height="32" fill="none" xmlns="http://www.w3.org/2000/svg"><g filter="url(#a)" fill="#fff"><path d="M87.8 12.5c-2.2 0-3.9-1-5-2.9-1.2-2-1-4.2.3-6.2A5.7 5.7 0 0 1 87.8 1v11.6Z"/><path d="M62 18.2c2 0 3.6.8 4.7 2.5 1.3 1.9 1.5 4 .4 6a5.7 5.7 0 0 1-5.1 3V18.3Z"/><path d="M86 28.9h-.1a3.3 3.3 0 0 1-4.7-.4l-18.4-22a3.3 3.3 0 0 1 .4-4.6h.1a3.3 3.3 0 0 1 4.7.4l18.5 22a3.3 3.3 0 0 1-.5 4.6Z"/><path d="m101.8 1.2-.6.3a2.9 2.9 0 0 0-1.4 3.8L110 28a3 3 0 0 0 3.9 1.5l.6-.3a2.9 2.9 0 0 0 1.4-3.8L105.7 2.7a3 3 0 0 0-3.9-1.5Z"/><path d="m99.5 2.6-10 22.8c-.7 1.5 0 3.2 1.4 3.8l.6.3a3 3 0 0 0 3.8-1.5l10.1-22.8c.7-1.4 0-3.1-1.5-3.8l-.6-.2a3 3 0 0 0-3.8 1.4Z"/><path d="M45.5 29.8h-.3a14.5 14.5 0 0 1-13.9-10.6l-.4-1.5h5.2l.2.8c.6 1.7 1.8 3.3 3.6 4.6 1.5 1.1 3.4 1.7 5.3 1.7h.4a9.2 9.2 0 0 0 8.7-6.3l.3-.8h5.2l-.4 1.5c-.9 3.1-3 6-6 8.2h-.1c-2.3 1.6-5 2.4-7.8 2.4Z"/><path d="M59.8 13.5h-5l-.3-.8c-.6-2.2-2-4-4.4-5.5a9.4 9.4 0 0 0-13.9 5.5l-.2.8h-5.1l.3-1.4A14.6 14.6 0 0 1 45.4 1c4.8 0 9 2.3 12.2 6.7v.1c.9 1.4 1.5 2.9 1.9 4.4l.3 1.4Z"/><path d="M14.6 29.8h-.3A14.5 14.5 0 0 1 .4 19.2l-.3-1.5h5.1l.3.8a9.3 9.3 0 0 0 8.9 6.3h.3a9.2 9.2 0 0 0 8.8-6.3l.2-.8H29l-.4 1.5a14.4 14.4 0 0 1-13.9 10.6Z"/><path d="M29 13.5h-5.1l-.3-.8a9.6 9.6 0 0 0-9.1-6.8 9.4 9.4 0 0 0-9.1 6.8l-.3.8H0l.3-1.4A14.6 14.6 0 0 1 14.5 1c4.9 0 9 2.3 12.2 6.7l.1.1c.8 1.4 1.4 2.9 1.8 4.4l.3 1.4Z"/></g><g filter="url(#b)"><path d="M87.8 13.5c-2.2 0-3.9-1-5-2.9-1.2-2-1-4.2.3-6.2A5.7 5.7 0 0 1 87.8 2v11.6Z" fill="#E44F25"/><path d="M62 19.2c2 0 3.6.8 4.7 2.5 1.3 1.9 1.5 4 .4 6a5.7 5.7 0 0 1-5.1 3V19.3Z" fill="#FDCF00"/><path d="M86 29.9h-.1a3.3 3.3 0 0 1-4.7-.4l-18.4-22a3.3 3.3 0 0 1 .4-4.6h.1a3.3 3.3 0 0 1 4.7.4l18.5 22a3.3 3.3 0 0 1-.5 4.6Z" fill="#234062"/><path d="m101.8 2.2-.6.3a2.9 2.9 0 0 0-1.4 3.8L110 29a3 3 0 0 0 3.9 1.5l.6-.3a2.9 2.9 0 0 0 1.4-3.8L105.7 3.7a3 3 0 0 0-3.9-1.5Z" fill="#00A7E1"/><path d="m99.5 3.6-10 22.8c-.7 1.5 0 3.2 1.4 3.8l.6.3a3 3 0 0 0 3.8-1.5l10.1-22.8c.7-1.4 0-3.1-1.5-3.8l-.6-.2a3 3 0 0 0-3.8 1.4Z" fill="#00A7E1"/><path d="M45.5 30.8h-.3a14.5 14.5 0 0 1-13.9-10.6l-.4-1.5h5.2l.2.8c.6 1.7 1.8 3.3 3.6 4.6 1.5 1.1 3.4 1.7 5.3 1.7h.4a9.2 9.2 0 0 0 8.7-6.3l.3-.8h5.2l-.4 1.5c-.9 3.1-3 6-6 8.2h-.1c-2.3 1.6-5 2.4-7.8 2.4Z" fill="#00A7E1"/><path d="M59.8 14.5h-5l-.3-.8c-.6-2.2-2-4-4.4-5.5a9.4 9.4 0 0 0-13.9 5.5l-.2.8h-5.1l.3-1.4A14.6 14.6 0 0 1 45.4 2c4.8 0 9 2.3 12.2 6.7v.1c.9 1.4 1.5 2.9 1.9 4.4l.3 1.4Z" fill="#234062"/><path d="M14.6 30.8h-.3A14.5 14.5 0 0 1 .4 20.2l-.3-1.5h5.1l.3.8a9.3 9.3 0 0 0 8.9 6.3h.3a9.2 9.2 0 0 0 8.8-6.3l.2-.8H29l-.4 1.5a14.4 14.4 0 0 1-13.9 10.6Z" fill="#234062"/><path d="M29 14.5h-5.1l-.3-.8a9.6 9.6 0 0 0-9.1-6.8 9.4 9.4 0 0 0-9.1 6.8l-.3.8H0l.3-1.4A14.6 14.6 0 0 1 14.5 2c4.9 0 9 2.3 12.2 6.7l.1.1c.8 1.4 1.4 2.9 1.8 4.4l.3 1.4Z" fill="#00A7E1"/></g><defs><filter id="a" x="0" y=".9" width="116.2" height="28.9" filterUnits="userSpaceOnUse" color-interpolation-filters="sRGB"><feFlood flood-opacity="0" result="BackgroundImageFix"/><feBlend in="SourceGraphic" in2="BackgroundImageFix" result="shape"/><feColorMatrix in="SourceAlpha" values="0 0 0 0 0 0 0 0 0 0 0 0 0 0 0 0 0 0 127 0" result="hardAlpha"/><feOffset dy="4"/><feComposite in2="hardAlpha" operator="arithmetic" k2="-1" k3="1"/><feColorMatrix values="0 0 0 0 1 0 0 0 0 1 0 0 0 0 1 0 0 0 0.12 0"/><feBlend in2="shape" result="effect1_innerShadow_775_1054"/></filter><filter id="b" x="0" y="1.9" width="116.2" height="28.9" filterUnits="userSpaceOnUse" color-interpolation-filters="sRGB"><feFlood flood-opacity="0" result="BackgroundImageFix"/><feBlend in="SourceGraphic" in2="BackgroundImageFix" result="shape"/><feColorMatrix in="SourceAlpha" values="0 0 0 0 0 0 0 0 0 0 0 0 0 0 0 0 0 0 127 0" result="hardAlpha"/><feOffset dy="4"/><feComposite in2="hardAlpha" operator="arithmetic" k2="-1" k3="1"/><feColorMatrix values="0 0 0 0 1 0 0 0 0 1 0 0 0 0 1 0 0 0 0.12 0"/><feBlend in2="shape" result="effect1_innerShadow_775_1054"/></filter></defs></svg>