<svg width="113" height="57" fill="none" xmlns="http://www.w3.org/2000/svg"><path d="M111 37.8a1.4 1.4 0 1 0 0-2.8 1.4 1.4 0 0 0 0 2.8Z" fill="#fff"/><path d="M111 56.3a1.4 1.4 0 1 0 0-2.9 1.4 1.4 0 0 0 0 2.9Z" fill="#fff"/><path d="M92.7 37.8a1.4 1.4 0 1 0 0-2.8 1.4 1.4 0 0 0 0 2.8Z" fill="#fff"/><path d="M92.7 56.3a1.4 1.4 0 1 0 0-2.9 1.4 1.4 0 0 0 0 2.9Z" fill="#fff"/><path d="M74.5 37.8a1.4 1.4 0 1 0 0-2.8 1.4 1.4 0 0 0 0 2.8Z" fill="#fff"/><path d="M74.5 56.3a1.4 1.4 0 1 0 0-2.9 1.4 1.4 0 0 0 0 2.9Z" fill="#fff"/><path d="M56.2 37.8a1.4 1.4 0 1 0 0-2.8 1.4 1.4 0 0 0 0 2.8Z" fill="#fff"/><path d="M56.2 56.3a1.4 1.4 0 1 0 0-2.9 1.4 1.4 0 0 0 0 2.9Z" fill="#fff"/><path d="M38 37.8a1.4 1.4 0 1 1 0-2.8 1.4 1.4 0 0 1 0 2.8Z" fill="#fff"/><path d="M38 56.3a1.4 1.4 0 1 1 0-2.8 1.4 1.4 0 0 1 0 2.8Z" fill="#fff"/><path d="M19.7 37.8a1.4 1.4 0 1 0 0-2.8 1.4 1.4 0 0 0 0 2.8Z" fill="#fff"/><path d="M19.7 56.3a1.4 1.4 0 1 0 0-2.9 1.4 1.4 0 0 0 0 2.9Z" fill="#fff"/><path d="M1.4 37.8a1.4 1.4 0 1 1 0-2.8 1.4 1.4 0 0 1 0 2.8Z" fill="#fff"/><path d="M1.4 56.3a1.4 1.4 0 1 1 0-2.8 1.4 1.4 0 0 1 0 2.8Z" fill="#fff"/><path d="M111 2.8a1.4 1.4 0 1 0 0-2.8 1.4 1.4 0 0 0 0 2.8Z" fill="#fff"/><path d="M111 21.3a1.4 1.4 0 1 0 0-2.9 1.4 1.4 0 0 0 0 2.9Z" fill="#fff"/><path d="M92.7 2.8a1.4 1.4 0 1 0 0-2.8 1.4 1.4 0 0 0 0 2.8Z" fill="#fff"/><path d="M92.7 21.3a1.4 1.4 0 1 0 0-2.9 1.4 1.4 0 0 0 0 2.9Z" fill="#fff"/><path d="M74.5 2.8a1.4 1.4 0 1 0 0-2.8 1.4 1.4 0 0 0 0 2.8Z" fill="#fff"/><path d="M74.5 21.3a1.4 1.4 0 1 0 0-2.9 1.4 1.4 0 0 0 0 2.9Z" fill="#fff"/><path d="M56.2 2.8a1.4 1.4 0 1 0 0-2.8 1.4 1.4 0 0 0 0 2.8Z" fill="#fff"/><path d="M56.2 21.3a1.4 1.4 0 1 0 0-2.9 1.4 1.4 0 0 0 0 2.9Z" fill="#fff"/><path d="M38 2.8A1.4 1.4 0 1 1 38 0a1.4 1.4 0 0 1 0 2.8Z" fill="#fff"/><path d="M38 21.3a1.4 1.4 0 1 1 0-2.8 1.4 1.4 0 0 1 0 2.8Z" fill="#fff"/><path d="M19.7 2.8a1.4 1.4 0 1 0 0-2.8 1.4 1.4 0 0 0 0 2.8Z" fill="#fff"/><path d="M19.7 21.3a1.4 1.4 0 1 0 0-2.9 1.4 1.4 0 0 0 0 2.9Z" fill="#fff"/><path d="M1.4 2.8a1.4 1.4 0 1 1 0-2.8 1.4 1.4 0 0 1 0 2.8Z" fill="#fff"/><path d="M1.4 21.3a1.4 1.4 0 1 1 0-2.8 1.4 1.4 0 0 1 0 2.8Z" fill="#fff"/></svg>