<svg width="240" height="204" fill="none" xmlns="http://www.w3.org/2000/svg"><path opacity=".5" d="M122.2 203c64.5 0 116.9-7.2 116.9-16.1 0-9-52.4-16.2-116.9-16.2S5.3 177.9 5.3 186.9s52.4 16.2 117 16.2Z" fill="#F5F5F5"/><path d="M101.2 157.8c0-2.2-.1-4.5-.5-6.7-.3-2.3-1.4-9.6-5.2-15-5.8-8.4-12.4-4.7-19.1-13.3-4-4.9-2.8-7.5-7.2-11.4-4-3.5-8.1-4.8-12.6-5.5-11.3-1.9-29.7-.1-29.7-.1 1.6 17.8 7.5 25.2 12.7 28.7 7.3 4.8 12.9 1.8 19.4 7.6 8.4 7.6 2.9 16 10.7 24 0 0 3.5 3.4 30.2 8.4l1.3-16.7Z" fill="#F5F5F5"/><path d="M100 174.5s-20.7-35.1-28.6-42c-7.9-6.9-44.5-26.7-44.5-26.7" stroke="#D6D6D6" stroke-width=".5" stroke-linecap="round" stroke-linejoin="round"/><path d="m53.4 120.7-23 1.3" stroke="#D6D6D6" stroke-width=".5" stroke-linecap="round" stroke-linejoin="round"/><path d="m58.2 123.6 1.5-17.1" stroke="#D6D6D6" stroke-width=".5" stroke-linecap="round" stroke-linejoin="round"/><path d="m68.7 130.4-20 7.3" stroke="#D6D6D6" stroke-width=".5" stroke-linecap="round" stroke-linejoin="round"/><path d="m77.1 139.1 2.6-13" stroke="#D6D6D6" stroke-width=".5" stroke-linecap="round" stroke-linejoin="round"/><path d="M83.5 148.3 64.2 152" stroke="#D6D6D6" stroke-width=".5" stroke-linecap="round" stroke-linejoin="round"/><path d="m88.6 156 7.3-19.4" stroke="#D6D6D6" stroke-width=".5" stroke-linecap="round" stroke-linejoin="round"/><path d="m93.2 163.4-22.4 3.3" stroke="#D6D6D6" stroke-width=".5" stroke-linecap="round" stroke-linejoin="round"/><path d="m89 160.5-3-6c-1.2-2-5-8.3-10.7-11.9-8.5-5.5-13.2.5-22.7-4.9-5.5-3-5.4-5.9-11-7.8-5-1.7-9.3-1.3-13.7-.3A149.8 149.8 0 0 0 .4 140.9C8.6 156.8 17 161.3 23 162.5c8.6 1.7 12.6-3.2 20.8-.3 10.7 3.7 8.8 13.7 19 18 0 0 4.6 1.8 31.2-3.7l-5.2-16Z" fill="#F5F5F5"/><path d="M94.1 176.5s-32.5-24.6-42.4-28C41.8 145.3.4 141 .4 141" stroke="#D6D6D6" stroke-width=".5" stroke-linecap="round" stroke-linejoin="round"/><path d="m30.6 144.6-20.8 10" stroke="#D6D6D6" stroke-width=".5" stroke-linecap="round" stroke-linejoin="round"/><path d="M36 145.4 31 129" stroke="#D6D6D6" stroke-width=".5" stroke-linecap="round" stroke-linejoin="round"/><path d="m48.4 147.6-15.7 14.5" stroke="#D6D6D6" stroke-width=".5" stroke-linecap="round" stroke-linejoin="round"/><path d="m59.5 152.5-2.6-13" stroke="#D6D6D6" stroke-width=".5" stroke-linecap="round" stroke-linejoin="round"/><path d="m69 158.5-16.5 10.7" stroke="#D6D6D6" stroke-width=".5" stroke-linecap="round" stroke-linejoin="round"/><path d="M76.6 163.8 76 143" stroke="#D6D6D6" stroke-width=".5" stroke-linecap="round" stroke-linejoin="round"/><path d="m83.7 168.8-19.5 11.6" stroke="#D6D6D6" stroke-width=".5" stroke-linecap="round" stroke-linejoin="round"/><path d="M164.1 176.8H93.7l6.8-46.6h56.9l6.7 46.6Z" fill="#CACACA"/><path d="M216.5 12H41.4a8 8 0 0 0-8 8v110.4a8 8 0 0 0 8 8h175a8 8 0 0 0 8.1-8V20a8 8 0 0 0-8-8Z" fill="#CACACA"/><path d="M211.8 15.8H46a8 8 0 0 0-8 8v93.3a8 8 0 0 0 8 8h165.8a8 8 0 0 0 8-8V24a8 8 0 0 0-8-8Z" fill="#fff"/><path d="M179 180.2H78.9v-4.9a6.8 6.8 0 0 1 6.8-6.8h86.7a6.8 6.8 0 0 1 6.8 6.8v4.9Z" fill="#CACACA"/><path d="M44 125.2h166.6" stroke="#262626" stroke-linecap="round" stroke-linejoin="round"/><path d="M83.2 177.7v-2.5a2.8 2.8 0 0 1 2.8-2.8h75.2" stroke="#262626" stroke-linecap="round" stroke-linejoin="round"/><path d="m153.2 142.1 2.7 20.4" stroke="#262626" stroke-linecap="round" stroke-linejoin="round"/><path d="M127.3 136.1a3.9 3.9 0 1 0 0-7.8 3.9 3.9 0 0 0 0 7.8Z" fill="#fff"/><path d="M182.7 23.2h20.7a7.1 7.1 0 0 1 7.2 7.2v43" stroke="#fff" stroke-linecap="round" stroke-linejoin="round"/><path d="M198.6 36.9a32 32 0 0 1 3.5-6.7c1.2-1.6 2.8-2.9 4.6-3.8 1-.5 2.2-1 3.4-1.2 1.2-.2 2.3-.6 3.4-1 1-.3 2-.9 3-1.5a7 7 0 0 0 2.2-3.1c1-2.4 1-4.4.1-5.8a8.4 8.4 0 0 0-4-3.4c-2.7-1-4.7-1-6.3 0-1.6 1-3 2.6-4.2 5l-9.5-4c1-2.2 2.2-4.2 3.9-6A15 15 0 0 1 210.6.8c2.4.2 4.8.8 7.1 1.7 5.3 2.2 9 5 11.1 8.4 2.2 3.4 2.3 7.6.3 12.4a17 17 0 0 1-2.2 3.9c-.8 1-1.7 1.9-2.8 2.6-1 .7-2.2 1.3-3.4 1.7l-4.2 1.2c-1.3.3-2.4.7-3.6 1.2a8.7 8.7 0 0 0-4.1 3.8c-.5 1-1 1.9-1.3 2.9l-9-3.7Zm-6.2 14 4-9.6 9.8 4-4 9.7-9.8-4.1Z" fill="#CACACA"/><path d="M141 51.3v-7.9a4.6 4.6 0 0 0-4.6-4.6H91a4.6 4.6 0 0 0-4.7 4.6v60A4.6 4.6 0 0 0 91 108h72.6a4.6 4.6 0 0 0 4.6-4.6V55.9a4.6 4.6 0 0 0-4.6-4.6H141Z" fill="#F1F1F1"/><path d="m136.4 62.2-9.1 9.1-9.2-9.1-5.5 5.5 9.1 9.2-9.1 9.1 5.5 5.5 9.2-9.1 9.1 9.1 5.5-5.5-9.1-9.1 9.1-9.2-5.5-5.5Z" fill="#D6D6D6"/><path d="M28.1 179.7v-6H17v16.5l25 .4v-3l-13.9-7.9Z" fill="#F7A99C"/><path d="M43 190.6v-1.4a4 4 0 0 0-2.2-3.5L30.3 180c-2.4.7-4.9.9-7.3.5-2.8-.5-5.4-1.8-6.4-.7-.2.3-.3.6-.2 1v8.7a1.1 1.1 0 0 0 1 1.1H43Z" fill="#CACACA"/><path d="M43 189.7H16.3" stroke="#CACACA" stroke-width=".7" stroke-linecap="round" stroke-linejoin="round"/><path d="m37 183.8-1.4 2" stroke="#3897E9" stroke-width=".7" stroke-linecap="round" stroke-linejoin="round"/><path d="m36 183.2-1.5 2" stroke="#3897E9" stroke-width=".7" stroke-linecap="round" stroke-linejoin="round"/><path d="m34.9 182.6-1.5 2" stroke="#3897E9" stroke-width=".7" stroke-linecap="round" stroke-linejoin="round"/><path d="M33.2 181.6c-5.4 2-11.4 2-16.8 0" stroke="#3897E9" stroke-width=".7" stroke-linecap="round" stroke-linejoin="round"/><path d="M59.7 179.7v-6h-11v16.5l25 .4v-3l-14-7.9Z" fill="#F7A99C"/><path d="M74.6 190.6v-1.4a4 4 0 0 0-2.1-3.5L61.9 180c-2.4.7-4.9.9-7.3.5-2.8-.5-5.4-1.8-6.3-.7-.2.3-.3.6-.3 1v8.7a1.1 1.1 0 0 0 1.1 1.1h25.5Z" fill="#CACACA"/><path d="M74.6 189.7H48" stroke="#3897E9" stroke-width=".7" stroke-linecap="round" stroke-linejoin="round"/><path d="m68.7 183.8-1.5 2" stroke="#3897E9" stroke-width=".7" stroke-linecap="round" stroke-linejoin="round"/><path d="m67.6 183.2-1.5 2" stroke="#3897E9" stroke-width=".7" stroke-linecap="round" stroke-linejoin="round"/><path d="m66.5 182.6-1.5 2" stroke="#3897E9" stroke-width=".7" stroke-linecap="round" stroke-linejoin="round"/><path d="M64.8 181.6c-5.4 2-11.4 2-16.8 0" stroke="#3897E9" stroke-width=".7" stroke-linecap="round" stroke-linejoin="round"/><path d="M53.4 93.9s9 29 10.5 33c1.4 4 2.7 9.7 2.4 14.6-.3 5-5 35.2-5 35.2H47.6s-1-32-1.5-34.5-4.5-16.7-4.5-16.7-1.3 16.6-2.4 21c-1.1 4.4-10 30.7-10 30.7H16.5L21.8 94h31.6Z" fill="#CACACA"/><path d="M74.3 76.2s4.4-3.7 5.5-6.1c1-2 2.3-5.7 2.6-6.7a.3.3 0 0 1 .4-.2h.3a1.5 1.5 0 0 1 1 1.8l-.4 1.9 4.7-3a.8.8 0 0 1 .9 1.3l-3 2.2 5-2.4a.8.8 0 0 1 1 .4.8.8 0 0 1-.3 1.1 1 1 0 0 1 .7 1.7l-.3.2a.7.7 0 0 1 .9.5 1.4 1.4 0 0 1-.7 1.6c-1.4.7-2.3.9-3.5 1.8-1 .8-.7 1.3-1.8 2.7-1.3 1.7-2.5 1.7-4.8 3.4-1.2 1-2.3 2-3.3 3.2l-4.9-5.4Z" fill="#F7A99C"/><path d="M89.6 64.3a.6.6 0 0 1-.2.8l-4 2.9" stroke="#262626" stroke-width=".4" stroke-linecap="round" stroke-linejoin="round"/><path d="m92 66.5-4.7 2.2" stroke="#262626" stroke-width=".4" stroke-linecap="round" stroke-linejoin="round"/><path d="m92.5 68.3-4.7 2.2" stroke="#262626" stroke-width=".4" stroke-linecap="round" stroke-linejoin="round"/><path d="M83.4 63.4s.8.5.8 1c0 .6-.9 4.4-.9 4.4" stroke="#262626" stroke-width=".4" stroke-linecap="round" stroke-linejoin="round"/><path d="M47.6 176.7 46.2 143c0-.8-4.7-18.2-4.7-18.2l.8-7.7s9.4 23.3 9.4 24.8l1 34.9h-5.1Z" fill="#CACACA"/><path d="m39.7 144.5 3.4-36.3" stroke="#262626" stroke-width=".4" stroke-linecap="round" stroke-linejoin="round"/><path d="M61.8 174H47.4l.1 2.7h13.8l.5-2.7Z" fill="#262626"/><path d="M30 174.8H16.7l-.2 2.4h12.9l.8-2.4Z" fill="#262626"/><path d="M62.7 129.8c1.8 5.8 2 12 .8 17.8" stroke="#fff" stroke-width=".4" stroke-linecap="round" stroke-linejoin="round"/><path d="M78 72.3c-1.5 1.1-3.2 1.9-5 2.3-3.1.5-5.8-1.3-6.6-1.8-2-1.4-2.7-3-4-4.8-3.8-5.6-6.2-9-9.6-11-1.7-1-4.6-2-9.2-1.7-1-.4-2.6-.1-3.8-.1h-2.7c-1.8.2-15 1.7-17.3-.3-.5-.4-.8-1-.9-1.6 0-.7.4-1.4 1.5-2.2 2.7-2 7.6-3.6 9.3-4l-1-7.6h-2.2c-2.2 0-10 1.3-14.3 2.8-6 2-9 3.6-10.6 7-2 4.3.1 9 .6 10.1 2.7 6 8.8 8.5 12.4 10 2.6 1 5.3 1.6 8 2L21 98.7l31.4 1.7h4.8c.3-4.2-1.5-17.2-1.3-21.4 4 5.6 10.7 8.4 17 7.2 7-1.4 10.5-7 11-8-2.4-4.8-5.9-5.9-5.9-5.9Z" fill="#B4B4B4"/><path d="M38.6 57.3h2v11.4a1.7 1.7 0 0 1-1.6 1.6h-.4v-13Z" fill="#fff"/><path d="M57 99c-1 .1-15.8 2.6-26.3-8.5a29.8 29.8 0 0 1-7.7-23l-1.6 24.7-.5 6.5 5 .2a504 504 0 0 0 31.1 1.5v-1.5Z" fill="#B4B4B4"/><path d="M48.8 45.3c.4-2 .5-4.2.3-6.3a5 5 0 0 0-.9-2.6 4.6 4.6 0 0 0-2.6-1.7c-2-.3-2.4 1-5.1 1.4-2.4.3-2.8-.7-4.4 0-1.7.7-2.5 2.4-2.8 3a7.5 7.5 0 0 0-.4 5.6c.8 2.7 1.4 5.4 1.8 8.1h1l13-7.5Z" fill="#262626"/><path d="M39.5 59a3.7 3.7 0 0 1-3.7-3.8v-8h7.4v8a3.7 3.7 0 0 1-3.7 3.7Z" fill="#F7A99C"/><path d="m43.2 53-4.8-2.5c.2 1.4.9 2.8 2 3.7.8.6 1.8 1 2.8 1.1V53Z" fill="#69FFB7"/><path d="m35.6 44.8-.4-.4a2.2 2.2 0 0 0-1.7-.3 2 2 0 0 0-1.5 1.6c0 .4 0 .9.2 1.3.3.6.8 1.1 1.4 1.4.5.3 1 .5 1.5.5h1.3l-.8-4.1Z" fill="#F7A99C"/><path d="M34.6 44.9a9.5 9.5 0 0 0 3.4 6c.6.3 4 3 7.2 1.7 4-1.7 3.6-8.4 3.6-8.7-.1-1.2-.4-4.8-3.4-6.8a7.2 7.2 0 0 0-9.9 2.3 7.8 7.8 0 0 0-1 5.5Z" fill="#F7A99C"/><path d="M46.4 43.9a.8.8 0 1 0 .7-1 .9.9 0 0 0-.7 1Z" fill="#262626"/><path d="M41.7 44.5a.8.8 0 1 0 .7-1 .9.9 0 0 0-.7 1Z" fill="#262626"/><path d="m45 44.7.8 1a.4.4 0 0 1-.2.5l-.6.4" stroke="#262626" stroke-width=".7" stroke-linecap="round" stroke-linejoin="round"/><path d="M40.2 47a1 1 0 1 0 2-.4 1 1 0 0 0-2 .3Z" fill="#69FFB7"/><path d="M35.1 47.5a2 2 0 0 0-.6-1.5 2 2 0 0 0-1.3-.5" stroke="#262626" stroke-width=".7" stroke-linecap="round" stroke-linejoin="round"/><path d="M34.5 46.2a.9.9 0 0 0-.7.2.9.9 0 0 0-.2.7" stroke="#262626" stroke-width=".7" stroke-linecap="round" stroke-linejoin="round"/><path d="M34.5 44.2c.3 0 .7.2 1 .4l.4 1c2-.2 4-1 5.5-2.3a10 10 0 0 0 2.2-2.9c.6.6 1.3 1 2 1.3 1.2.5 2.7.8 2.9.4v-.8a4.7 4.7 0 0 0-.8-1.8 7.3 7.3 0 0 0-3.4-3 7.5 7.5 0 0 0-9.6 4c-.3.7-.4 1.3-.5 2l.1 1.3.2.4Z" fill="#262626"/><path d="m48.2 45.2.6.1-.2 2h-.1a1 1 0 0 1-.3-2Z" fill="#69FFB7"/><path d="M40.4 36.4a18.3 18.3 0 0 0-4.2-1c-1.8.2-2.9 2.6-3.3 3.6a6.2 6.2 0 0 0-.6 3.7c.1.6.3 1.1.6 1.7" stroke="#262626" stroke-width=".3" stroke-linecap="round" stroke-linejoin="round"/><path d="M40.4 36.1c.6-.2 1.2-.4 1.8-.8l1.9-1c.7-.2 1.5-.3 2.2-.1.6.2 1.2.6 1.6 1 .6.7 1 1.5 1.2 2.3.5 1.7 0 3.3-.2 5" stroke="#262626" stroke-width=".3" stroke-linecap="round" stroke-linejoin="round"/><path d="M45.8 48.8a1.2 1.2 0 1 1-1.1-1 1 1 0 0 1 1.1 1Z" fill="#fff"/><path d="m28.8 40.8 2.2-1.3s.4-1.8 1-2.2c.6-.4 3.7-1.6 3.7-1.6l.4.4s-2.4 2.2-3 3.2c-.4 1-.5 3.8-.5 3.8l-2.4 3-.6.5-.8-5.8Z" fill="#F7A99C"/><path d="M23 68.8 22 83" stroke="#262626" stroke-width=".4" stroke-linecap="round" stroke-linejoin="round"/><path d="m55.3 70 .8 15.7" stroke="#262626" stroke-width=".4" stroke-linecap="round" stroke-linejoin="round"/><path d="M6.5 47.5a8.3 8.3 0 0 0-1 12" stroke="#fff" stroke-width=".4" stroke-linecap="round" stroke-linejoin="round"/><path d="M60.8 80a11 11 0 0 0 13.8 2.1" stroke="#fff" stroke-width=".4" stroke-linecap="round" stroke-linejoin="round"/><path d="m160.5 92.6 5-2.7 7.2 1.4 3.6-3.9 8.6 2.3 4.8-6.5 8.5 5.2-2.9-18.5-11.2-7.9-26 4.1a1.8 1.8 0 0 0-1.4 2l3.8 24.5Z" fill="#F5F5F5"/><path d="m186.7 71.3 8.6-1.4-11.2-7.9 1.3 8.3a1.2 1.2 0 0 0 1.3 1Z" fill="#D6D6D6"/><path d="m184 62 1.4 8.3a1.2 1.2 0 0 0 1.3 1l8.6-1.4" stroke="#262626" stroke-width=".3" stroke-linecap="round" stroke-linejoin="round"/><path d="M164 116.8a1.8 1.8 0 0 0 1.3 1.4h.7l34-5.3a1.8 1.8 0 0 0 1.4-2l-3.2-20.4-8.5-5.3-4.8 6.6-8.6-2.3-3.6 3.8-7.3-1.3-4.9 2.6 3.5 22.2Z" fill="#F5F5F5"/><path d="m160.5 92.6 5-2.7 7.2 1.4 3.6-3.9 8.6 2.3 4.8-6.5 8.5 5.2-2.9-18.5-11.2-7.9-26 4.1a1.8 1.8 0 0 0-1.4 2l3.8 24.5Z" stroke="#262626" stroke-width=".3" stroke-linecap="round" stroke-linejoin="round"/><path d="M164 116.8a1.8 1.8 0 0 0 2 1.5l34-5.4a1.8 1.8 0 0 0 1.4-2l-3.2-20.4-8.5-5.3-4.8 6.6-8.6-2.3-3.6 3.8-7.3-1.3-4.9 2.6 3.5 22.2Z" stroke="#262626" stroke-width=".3" stroke-linecap="round" stroke-linejoin="round"/><path d="m29.3 35.1-.9.9-7.6-6.9 2.2-2 6.3 8Z" fill="#D6D6D6"/><path d="M31.1 33.7 30 34l-2.6-10 3-.5.7 10.2Z" fill="#D6D6D6"/><path d="m27.1 37-.1 1.2-10.2-.1.2-3L27.1 37Z" fill="#D6D6D6"/><path d="M149 186.7a6.5 6.5 0 0 1 0-9.2l29.9-30.5 9.3 9.1-30 30.5a6.5 6.5 0 0 1-9.2 0Z" fill="#D6D6D6"/><path opacity=".5" d="M177.8 141.6c.9 2.4 2.1 4.7 3.7 6.7l47.2-16.3c0-2.5-.5-5-1.3-7.5l-49.6 17.1Z" fill="#fff"/><path opacity=".5" d="M176.2 134.1c0 1.5.3 3 .6 4.5l49.5-17.2c-.6-1.3-1.4-2.6-2.2-3.9l-48 16.6Z" fill="#fff"/><path d="M223.7 110.7A30.3 30.3 0 1 0 181 154a30.3 30.3 0 0 0 42.6-43.3Zm-38.8 39.5a25 25 0 1 1 35-35.6 25 25 0 0 1-35 35.6Z" fill="#D6D6D6"/><path d="m181 159-23.7 24" stroke="#fff" stroke-linecap="round" stroke-linejoin="round"/><path d="M204.6 104.2a26.7 26.7 0 0 0-29.4 27" stroke="#fff" stroke-linecap="round" stroke-linejoin="round"/></svg>