<svg width="14" height="14" fill="none" xmlns="http://www.w3.org/2000/svg"><g clip-path="url(#a)"><path d="M7.9 2.9a.3.3 0 0 0 0 .7 3 3 0 0 1 2.7 3.1.3.3 0 0 0 .7 0v-.2C11.3 4.6 9.8 3 7.9 3Zm0-1.7c.2 0 4.8.3 4.8 5.5a.3.3 0 0 0 .6 0v-.3C13.3 3.3 11 .8 8 .5c-.2 0-.3.2-.4.4 0 .2.2.3.4.3Zm5.5 9c0-.4-.1-.6-.3-.9l-.2-.1-4-.6h-.2L8 9.8A7 7 0 0 1 4.2 6v-.1c.4-.1.8-.4 1-.7a.3.3 0 0 0 .2-.2l-.7-4-.1-.2-.8-.3h-.4A2.8 2.8 0 0 0 .5 3.3c0 5.5 4.5 10 10 10 1.6 0 2.8-1.2 2.8-2.7V10Zm-2.7 2.5a9.5 9.5 0 0 1-9.5-9.4C1.2 2 2.2 1 3.3 1h.4l.4.2.6 3.6-1 .5a.3.3 0 0 0-.3.4c.8 2.2 2.5 4 4.7 4.7h.2c.1 0 .3-.1.3-.3 0-.3.2-.7.4-1l3.6.6.2.4v.4c0 1.2-1 2.1-2.1 2.1Z" fill="#fff"/></g><defs><clipPath id="a"><path fill="#fff" d="M0 0h14v14H0z"/></clipPath></defs></svg>