<svg width="79" height="79" fill="none" xmlns="http://www.w3.org/2000/svg"><circle cx="39.5" cy="39.5" r="39" stroke="#00A7E1" stroke-dasharray="2 2"/><circle cx="39.5" cy="39.5" r="32.5" fill="#00A7E1"/><g clip-path="url(#a)" fill="#fff"><path d="m58 45.6-3.2-12v-.1l-.2-.3-.3-.2-15-4.4-15-4.4h-.5a.8.8 0 0 0-.5.4v.2L20 36.7c0 .2 0 .5.2.7.1.2.3.3.6.3h6c.3 0 .5-.1.6-.3.2-.2.2-.5.2-.7L25 26.1l13.2 3.8v20H26.3c-.4 0-.7.3-.7.7 0 .5.3.8.7.8h25.3c.5 0 .8-.3.8-.8 0-.4-.3-.7-.8-.7H39.8V30.4L53 34.3l-3 11.3c0 .3 0 .5.2.7.1.2.3.3.6.3h6.3c.3 0 .5-.1.6-.3.2-.2.2-.4.2-.7Zm-32.2-9.5h-4l2.1-8 2 8Zm26 9 2.2-8.3 2.2 8.2H52ZM31 52.3h-2.3c-.4 0-.8.3-.8.8 0 .4.4.7.8.7H31c.5 0 .8-.3.8-.7 0-.5-.3-.8-.8-.8ZM49.3 52.3H47c-.5 0-.8.3-.8.8 0 .4.3.7.8.7h2.3c.4 0 .7-.3.7-.7 0-.5-.3-.8-.7-.8Z"/></g><defs><clipPath id="a"><path fill="#fff" transform="translate(20 20)" d="M0 0h38v38H0z"/></clipPath></defs></svg>