<svg width="74" height="74" fill="none" xmlns="http://www.w3.org/2000/svg"><path d="M49.4 24.6h-29v6.8h29v-6.8Zm-1.2 5.6H21.6v-4.4h26.6v4.4ZM26 28.6h-1.6v-1.2H26v1.2Zm3 0h-1.6v-1.2h1.5v1.2Zm2.8 0h-1.5v-1.2h1.5v1.2Zm-11 8.7H23v1.2h-2.2v-1.2Zm16 13.4a7.6 7.6 0 1 0 0-15.2 7.6 7.6 0 0 0 0 15.2Zm-4.5-12.1a6.4 6.4 0 1 1 9 9 6.4 6.4 0 0 1-9-9ZM59 58.5l-3-3V17.3l-9.8-9.8H13.8V62H49l3.2 3.2a4.2 4.2 0 0 0 5.8 0l1-1a4.2 4.2 0 0 0 0-5.8ZM54 17h-7.4V9.5L54 17ZM15 61V8.6h30.4v9.6h9.5v36.1l-4.2-4.2-1.3 1.2-3-3a10.8 10.8 0 0 0-18.7-11h-2.8v1.2h2.2c-.7 1.4-1.1 3-1.1 4.6v.5h-5.6v1.2h5.7c.3 1.9 1.1 3.6 2.3 5.1h-8v1.2h9.1a10.8 10.8 0 0 0 12.4 1.5l3.1 3.1-1.2 1.3 4 4H15Zm32.2-7.5L45.8 55 43 52c1-.7 2-1.7 2.7-2.7l3 2.8-1.5 1.4ZM30 36.3A9.7 9.7 0 1 1 43.6 50 9.7 9.7 0 0 1 30 36.3Zm28.2 27.2-1 1a3 3 0 0 1-4.2 0L45.4 57l2.6-2.7 2.2-2.2.5-.4 7.5 7.6a3 3 0 0 1 0 4.2ZM28.4 16.3h-1.6V15h1.6v1.2Zm-3 0h-1.6V15h1.6v1.2Zm-3 0H21V15h1.6v1.2Zm16.7 28.1h-1.6v-1.1h1.6v1.1Zm-3 0h-1.6v-1.1h1.6v1.1Zm20-33.5h-1.5V9.7H56V11Zm-2.8 0h-1.5V9.7h1.5V11ZM56 8.6h-1.4V7.5H56v1.1Zm-2.7 0h-1.5V7.5h1.5v1.1Zm-6 56.3h1.5V66h-1.5V65Zm-3 0H46V66h-1.5V65Zm-2.8 0H43V66h-1.5V65Zm-2.9 0h1.6V66h-1.6V65Zm10.2-44.2h-28v-1.2h28v1.2ZM43 16.3H30.3V15H43v1.2Z" fill="#000"/></svg>