<svg width="56" height="52" fill="none" xmlns="http://www.w3.org/2000/svg"><path d="M36.8 38h1v1.2h-1V38Zm-2.2 1.2h1V38h-1v1Zm2.2-6.6v1h1v-1h-1Zm-2.2 1h1v-1h-1v1Zm3.2-6.5h-1v1.1h1v-1Zm-2.2 0h-1v1.1h1v-1Zm7.2-19v16.3h10.6v17.7H42.8v2.3a7.1 7.1 0 0 1-7 7.1H12a7.1 7.1 0 0 1-7-7v-.6h6.2v-6.2l-1.9-.2h-.3l-.6-2.6a9 9 0 0 1-.5-.2L5.6 36l-.2-.2c-1.4-1-2.5-2-3.4-3.4l-.2-.4 1.5-2-.2-.3-2.5-.4-.1-.3c-.5-2-.5-4 0-6v-.4l2.6-.4.2-.2-1.5-2.1.2-.4c1-1.3 2.1-2.5 3.5-3.3l.2-.2 2.4 1.3.4-.2.6-2.5h.3c.6-.2 1.3-.3 1.9-.3V7.6a7.1 7.1 0 0 1 7-7.1h30.5a7.1 7.1 0 0 1 7 7v.6h-13Zm6-6.5a6 6 0 0 0-6 5.4h12a6 6 0 0 0-6-5.4Zm-37.5 20a4.2 4.2 0 0 0 0 8.3v-8.2Zm0 15V31a5.3 5.3 0 0 1 0-10.4v-5.2l-1.3.1-.6 2.5h-.3l-.8.4h-.2l-2.3-1.2c-1 .8-2 1.6-2.6 2.7l1.3 2-.1.3-.4.7v.3l-2.5.4c-.4 1.6-.4 3.2 0 4.7l2.4.5.1.3.4.8.2.3L3 32.1c.7 1 1.6 1.9 2.6 2.6l2.2-1.3.3.2 1 .4h.3l.5 2.5 1.3.1Zm20.6 13.8a7.1 7.1 0 0 1-3.3-5.4H6.2a6 6 0 0 0 6 5.4h19.7ZM52.3 41v-4.4h-20V41h20Zm-20-5.5h20V31h-20v4.5Zm20-10h-20V30h20v-4.4Zm-10.6-1v-17a7 7 0 0 1 3.3-6H18.4a6 6 0 0 0-6 6V44h17.3v.5a6 6 0 1 0 12 0v-2.3H31.2V24.4h10.5Zm-24-5.7h19v-1h-19v1Zm0-3h19v-1.1h-19v1Zm0-3.1h19v-1.1h-19v1Zm3-3.8h-1v1h1V9Zm-2 0h-1v1h1V9Zm4.2 0h-1v1h1V9Zm1.2 1h12.6V9H24.1v1Zm-7.5 32.2h1v-1h-1v1Zm-2.1 0h1v-1h-1v1Zm2.1-2h1V39h-1v1Zm-2.1 0h1V39h-1v1Z" fill="#000"/></svg>