<svg width="79" height="79" fill="none" xmlns="http://www.w3.org/2000/svg"><circle cx="39.5" cy="39.5" r="39" stroke="#00A7E1" stroke-dasharray="2 2"/><circle cx="39.5" cy="39.5" r="32.5" fill="#00A7E1"/><g clip-path="url(#a)"><path d="M39 53.4c-2.6 0-5-.8-7.2-2.1l.4-.6a12.9 12.9 0 0 0 13.6 0l.4.6c-2.1 1.3-4.7 2-7.2 2Zm12-4a3.4 3.4 0 1 1 0-6.8 3.4 3.4 0 0 1 0 6.8Zm0-6a2.6 2.6 0 1 0 0 5.2 2.6 2.6 0 0 0 0-5.2Zm-20 6h-7a.4.4 0 0 1-.3-.6l3.5-6c.1-.2.5-.2.6 0l3.5 6a.4.4 0 0 1-.3.6Zm-6.4-.8h5.8l-2.9-4.9-2.9 5ZM44.4 46h-.8v-1.7c0-2.1-1.4-4-3.5-4.5a.4.4 0 0 1 0-.7 2.5 2.5 0 1 0-2.1 0 .4.4 0 0 1 0 .7 4.6 4.6 0 0 0-3.6 4.5V46h-.8v-1.7c0-2.2 1.4-4.1 3.4-5a3.2 3.2 0 1 1 4 0c2 .9 3.4 2.8 3.4 5V46Zm8-5h-.8a12.5 12.5 0 0 0-6.8-12.2l.4-.6A13.3 13.3 0 0 1 52.3 41Zm-26.7 0a13.4 13.4 0 0 1 7.1-12.9l.4.7A12.6 12.6 0 0 0 26.4 41h-.7ZM42 30.4h-6a.4.4 0 0 1-.4-.4v-6c0-.2.2-.4.4-.4h6c.2 0 .4.2.4.4v6c0 .2-.2.4-.4.4Zm-5.6-.8h5.2v-5.2h-5.2v5.2Z" fill="#fff"/></g><defs><clipPath id="a"><path fill="#fff" transform="translate(23 23)" d="M0 0h32v32H0z"/></clipPath></defs></svg>