<svg width="77" height="52" fill="none" xmlns="http://www.w3.org/2000/svg"><path d="M35.9 26c0 4-.3 7.6-1 10.8-.6 3.2-1.6 5.9-3 8.1a13.6 13.6 0 0 1-5.4 5 17.1 17.1 0 0 1-8.1 1.8c-4 0-7.3-1-9.9-3-2.5-2.1-4.5-5-5.7-8.9A46 46 0 0 1 1 26c0-5.4.5-10 1.6-13.8a17 17 0 0 1 5.6-8.9c2.5-2 6-3 10.2-3 4 0 7.3 1 9.9 3 2.5 2 4.4 5 5.7 8.9 1.3 3.8 1.9 8.4 1.9 13.8Zm-24.4 0c0 3.8.2 7 .6 9.5.4 2.5 1.1 4.5 2 5.8 1.1 1.2 2.5 1.9 4.3 1.9a5 5 0 0 0 4.1-2c1-1.2 1.8-3 2.2-5.6.5-2.6.7-5.8.7-9.6s-.2-7-.7-9.5c-.4-2.6-1.2-4.5-2.2-5.8-1-1.3-2.3-2-4.1-2a5 5 0 0 0-4.2 2c-1 1.3-1.7 3.2-2.1 5.8-.4 2.5-.6 5.7-.6 9.5ZM41 29.8c0-2.9.2-5.8.6-8.6.4-2.8 1.1-5.4 2.1-7.9 1.1-2.5 2.6-4.7 4.5-6.6 1.9-2 4.3-3.5 7.2-4.6a30 30 0 0 1 14-1.5c1.3 0 2.4.2 3.3.3v8.5l-3-.5-3-.2A23 23 0 0 0 59 9.8a11 11 0 0 0-4.7 3.3c-1.2 1.4-2 3-2.6 5a28 28 0 0 0-1 6.2h.5c.7-1 1.4-2 2.4-3 1-.8 2.1-1.5 3.5-2 1.5-.5 3-.8 5-.8 2.9 0 5.4.6 7.5 2 2.2 1.1 3.8 3 5 5.3a19 19 0 0 1 1.7 8.5c0 3.6-.7 6.7-2 9.4a14 14 0 0 1-6 6c-2.5 1.3-5.5 2-9 2-2.5 0-5-.4-7.2-1.3a16.4 16.4 0 0 1-9.6-10.9c-1-2.7-1.4-6-1.4-9.7Zm18 13.4c2 0 3.7-.7 5-2 1.4-1.5 2-3.7 2-6.7a9 9 0 0 0-1.7-5.8c-1-1.4-2.8-2-5-2-1.6 0-3 .3-4.1 1-1.2.6-2.1 1.5-2.8 2.6-.6 1-1 2.2-1 3.3a13 13 0 0 0 2 6.5 6.3 6.3 0 0 0 5.7 3Z" fill="#00A7E1"/></svg>