<svg width="58" height="58" fill="none" xmlns="http://www.w3.org/2000/svg"><g clip-path="url(#a)" fill="#000"><path d="M29 41.3h-.2l-14.7-5.6a.5.5 0 0 1-.3-.4c0-.2 0-.3.3-.4l14.7-5.5h.4L43.9 35c.2 0 .3.2.3.4s0 .4-.3.4l-14.8 5.5H29Zm-13.5-6 13.5 5 13.5-5-13.5-5-13.5 5Z"/><path d="M29 58h-.2L14 52.5a.5.5 0 0 1-.2-.4V35.3a.4.4 0 0 1 .9 0v16.4L29 57.1l14.3-5.3V35.3a.4.4 0 0 1 1 0v16.8c0 .2-.2.3-.4.4L29.1 58H29Z"/><path d="M29 50h-.2L14 44.3a.5.5 0 0 1-.2-.5c0-.3.3-.4.6-.3L29 49l14.6-5.4c.3 0 .5 0 .6.3 0 .2 0 .5-.3.5L29.1 50H29Z"/><path d="M36.9 55a.4.4 0 0 1-.5-.4V38.2l-13.6-5.7a.4.4 0 0 1-.3-.6c.1-.2.4-.3.6-.2l14 5.8.2.4v16.7c0 .3-.2.5-.4.5Z"/><path d="M21 55a.4.4 0 0 1-.4-.4V38c0-.2.2-.4.3-.4l14-5.8c.2-.1.4 0 .5.2.1.2 0 .5-.2.6l-13.7 5.7v16.4c0 .3-.2.5-.4.5Z"/><path d="M29 58a.4.4 0 0 1-.5-.4V40.8a.4.4 0 0 1 1 0v16.8c0 .2-.3.4-.5.4Z"/><path d="M53.4 49h-9.6a.4.4 0 0 1 0-1h9.6c.7 0 1.2-.5 1.2-1.2V2.1c0-.6-.5-1.2-1.2-1.2H4.6C4 .9 3.4 1.4 3.4 2v44.7c0 .7.5 1.2 1.2 1.2h9.6a.4.4 0 0 1 0 1H4.6c-1.2 0-2.1-1-2.1-2.2V2.1C2.5 1 3.5 0 4.6 0h48.8c1.2 0 2.1 1 2.1 2.1v44.7c0 1.2-1 2.2-2.1 2.2Z"/><path d="M51.7 43.5h-8a.4.4 0 0 1 0-1h7.6V4.4H6.7v38.3h7.5a.4.4 0 0 1 0 .8h-8a.4.4 0 0 1-.4-.4V3.8c0-.3.2-.5.5-.5h45.4c.3 0 .5.3.5.5V43c0 .3-.2.5-.5.5Z"/><path d="M46 11.7H34.3a.4.4 0 0 1 0-.9h11.2V8.1h-33v2.7h11.3a.4.4 0 0 1 0 1L12 11.6a.4.4 0 0 1-.4-.4V7.6c0-.2.2-.4.4-.4h34c.2 0 .4.2.4.5v3.6c0 .2-.2.4-.4.4Z"/><path d="M32.9 18.6H25a.4.4 0 0 1-.4-.4L23 9.6l.1-.4.4-.2h11.2c.2 0 .3 0 .4.2v.4l-1.7 8.6c0 .2-.2.4-.4.4Zm-7.4-1h7l1.6-7.7H23.9l1.6 7.8Z"/><path d="M30.8 23.6h-3.6a.5.5 0 0 1-.5-.4l-.7-5c0-.2 0-.5.3-.5s.5.1.5.4l.8 4.6h2.8l.8-4.6c0-.3.2-.4.5-.4.2 0 .4.3.3.5l-.7 5c0 .2-.3.4-.5.4Z"/><path d="M29 27.6a.4.4 0 0 1-.4-.2l-1.4-4.1c0-.2 0-.5.3-.6.2 0 .5 0 .5.3l1 2.8 1-2.8c0-.2.3-.4.5-.3.2.1.4.4.3.6l-1.4 4c0 .2-.2.3-.4.3ZM12 10H6.3a.4.4 0 0 1 0-1H12a.4.4 0 0 1 0 1ZM51.7 10H46a.4.4 0 0 1 0-1h5.7c.3 0 .5.2.5.5 0 .2-.2.4-.5.4Z"/></g><defs><clipPath id="a"><path fill="#fff" d="M0 0h58v58H0z"/></clipPath></defs></svg>