<svg width="78" height="52" fill="none" xmlns="http://www.w3.org/2000/svg"><path d="M35.9 26c0 4-.3 7.6-1 10.8-.6 3.2-1.6 5.9-3 8.1a13.6 13.6 0 0 1-5.4 5 17.1 17.1 0 0 1-8.1 1.8c-4 0-7.3-1-9.9-3-2.5-2.1-4.5-5-5.7-8.9A46 46 0 0 1 1 26c0-5.4.5-10 1.6-13.8a17 17 0 0 1 5.6-8.9c2.5-2 6-3 10.2-3 4 0 7.3 1 9.9 3 2.5 2 4.4 5 5.7 8.9 1.3 3.8 1.9 8.4 1.9 13.8Zm-24.4 0c0 3.8.2 7 .6 9.5.4 2.5 1.1 4.5 2 5.8 1.1 1.2 2.5 1.9 4.3 1.9a5 5 0 0 0 4.1-2c1-1.2 1.8-3 2.2-5.6.5-2.6.7-5.8.7-9.6s-.2-7-.7-9.5c-.4-2.6-1.2-4.5-2.2-5.8-1-1.3-2.3-2-4.1-2a5 5 0 0 0-4.2 2c-1 1.3-1.7 3.2-2.1 5.8-.4 2.5-.6 5.7-.6 9.5Zm65.8 14.6h-6V51H61V40.6H39.7v-7.3L61.6 1h9.7v31.5h6v8.1ZM61 24v-2.8a1820.3 1820.3 0 0 1 .5-8h-.3a49.3 49.3 0 0 1-3 5.4L49 32.5h12V24Z" fill="#fff"/></svg>