<svg width="38" height="48" fill="none" xmlns="http://www.w3.org/2000/svg" xmlns:xlink="http://www.w3.org/1999/xlink"><defs><path d="M4.6 10.7h-.3a.4.4 0 0 1 0-.6l2-2h.5L8.6 10v.5c-.2.2-.4.2-.5 0L6.5 9l-1.7 1.6-.2.1Z" fill="#000" id="reuse-0"/><path d="M6.5 39.8a.4.4 0 0 1-.4-.4v-31a.4.4 0 0 1 .8 0v31c0 .2-.2.4-.4.4Z" fill="#000" id="reuse-1"/><path d="M34.5 36.9h-31a.4.4 0 0 1 0-.7h31c.2 0 .4.1.4.3 0 .2-.2.4-.4.4Z" fill="#000" id="reuse-2"/></defs><path d="M35.6 48H2.4c-.9 0-1.6-.7-1.6-1.6V1.6C.8.7 1.5 0 2.4 0h33.2c.9 0 1.6.7 1.6 1.6v44.8c0 .9-.7 1.6-1.6 1.6ZM2.4.7c-.5 0-.9.4-.9.9v44.8c0 .5.4.9.9.9h33.2c.5 0 .9-.4.9-1V1.7c0-.5-.4-.9-.9-.9H2.4Z" fill="#000"/><use xlink:href="#reuse-0"/><use xlink:href="#reuse-1"/><use xlink:href="#reuse-0"/><use xlink:href="#reuse-1"/><path d="M6.5 13.6H4.8a.4.4 0 0 1 0-.7h1.7a.4.4 0 0 1 0 .7ZM6.5 18.3h-3a.4.4 0 0 1 0-.8h3a.4.4 0 0 1 0 .8ZM6.5 23H4.8a.4.4 0 0 1 0-.8h1.7a.4.4 0 0 1 0 .7ZM6.5 27.6h-3a.4.4 0 0 1 0-.8h3a.4.4 0 0 1 0 .8ZM6.5 32.2H4.8a.4.4 0 0 1 0-.7h1.7a.4.4 0 0 1 0 .7ZM32.6 38.8h-.3a.4.4 0 0 1 0-.6l1.7-1.7-1.5-1.5a.4.4 0 0 1 0-.6h.5l1.8 1.9v.5l-2 2h-.2Z" fill="#000"/><use xlink:href="#reuse-2"/><path d="M32.6 38.8h-.3a.4.4 0 0 1 0-.6l1.7-1.7-1.5-1.5a.4.4 0 0 1 0-.6h.5l1.8 1.9v.5l-2 2h-.2Z" fill="#000"/><use xlink:href="#reuse-2"/><path d="M6.4 40a.4.4 0 0 1-.3-.4v-3a.4.4 0 0 1 .7 0v3c0 .2-.2.3-.4.3ZM11.9 36.9a.4.4 0 0 1-.4-.4v-6.4H9.1v6.4a.4.4 0 0 1-.7 0v-6.8c0-.2.2-.4.4-.4h3c.3 0 .4.2.4.4v6.8c0 .2-.1.4-.3.4ZM25.6 36.9a.4.4 0 0 1-.4-.4v-6.4H23v6.4a.4.4 0 0 1-.8 0v-6.8c0-.2.2-.4.4-.4h3c.3 0 .5.2.5.4v6.8c0 .2-.2.4-.4.4ZM16.5 36.9a.4.4 0 0 1-.4-.4V25h-2.4v11.5a.4.4 0 0 1-.7 0V24.7c0-.2.2-.4.4-.4h3c.3 0 .4.2.4.4v11.8c0 .2-.1.4-.3.4ZM30.2 36.9a.4.4 0 0 1-.4-.4V25h-2.3v11.5a.4.4 0 0 1-.8 0V24.7c0-.2.2-.4.4-.4h3.1c.2 0 .4.2.4.4v11.8c0 .2-.2.4-.4.4ZM21 36.9a.4.4 0 0 1-.4-.4v-9.2h-2.3v9.2a.4.4 0 0 1-.8 0V27c0-.2.2-.4.4-.4h3c.3 0 .4.2.4.4v9.6c0 .2-.1.4-.3.4ZM19.7 16.5a6.7 6.7 0 0 1-4.8-11.6 6.8 6.8 0 1 1 4.8 11.6Zm0-12.8a6 6 0 1 0 0 12 6 6 0 0 0 0-12Z" fill="#000"/><path d="M29.7 20.1h-.3L24 14.4a.4.4 0 0 1 0-.5c.2-.2.4-.2.6 0l5.5 5.5v.5l-.3.1Z" fill="#000"/></svg>