<svg width="76" height="52" fill="none" xmlns="http://www.w3.org/2000/svg"><path d="M35.9 26c0 4-.3 7.6-1 10.8-.6 3.2-1.6 5.9-3 8.1a13.6 13.6 0 0 1-5.4 5 17.1 17.1 0 0 1-8.1 1.8c-4 0-7.3-1-9.9-3-2.5-2.1-4.5-5-5.7-8.9A46 46 0 0 1 1 26c0-5.4.5-10 1.6-13.8a17 17 0 0 1 5.6-8.9c2.5-2 6-3 10.2-3 4 0 7.3 1 9.9 3 2.5 2 4.4 5 5.7 8.9 1.3 3.8 1.9 8.4 1.9 13.8Zm-24.4 0c0 3.8.2 7 .6 9.5.4 2.5 1.1 4.5 2 5.8 1.1 1.2 2.5 1.9 4.3 1.9a5 5 0 0 0 4.1-2c1-1.2 1.8-3 2.2-5.6.5-2.6.7-5.8.7-9.6s-.2-7-.7-9.5c-.4-2.6-1.2-4.5-2.2-5.8-1-1.3-2.3-2-4.1-2a5 5 0 0 0-4.2 2c-1 1.3-1.7 3.2-2.1 5.8-.4 2.5-.6 5.7-.6 9.5Zm62.8-13.8A11.6 11.6 0 0 1 69 22.3a17 17 0 0 1-5.5 2.4v.2c4 .5 7 1.7 9 3.6 2.2 2 3.2 4.6 3.2 8 0 2.8-.7 5.4-2.1 7.8a14.4 14.4 0 0 1-6.6 5.4c-3 1.3-6.8 2-11.4 2A40 40 0 0 1 41.2 49v-9a31.3 31.3 0 0 0 13.3 3.3c3.7 0 6.4-.7 7.9-2a6.9 6.9 0 0 0 2.3-5.5c0-1.4-.4-2.6-1-3.5-.8-1-2-1.7-3.8-2.2-1.7-.5-4.1-.7-7.3-.7H49v-8.1h3.8c3 0 5.4-.3 7-.9 1.6-.6 2.7-1.4 3.3-2.4.6-1 1-2.2 1-3.5 0-1.7-.6-3.1-1.8-4.1-1-1-2.9-1.5-5.4-1.5a19 19 0 0 0-10.6 3.6l-5-7.3A27.8 27.8 0 0 1 51 1c2-.4 4.1-.6 6.5-.6 5.2 0 9.2 1 12.2 3.2 3 2 4.6 5 4.6 8.7Z" fill="#00A7E1"/></svg>