<svg width="79" height="79" fill="none" xmlns="http://www.w3.org/2000/svg"><circle cx="39.5" cy="39.5" r="39" stroke="#00A7E1" stroke-dasharray="2 2"/><circle cx="39.5" cy="39.5" r="32.5" fill="#00A7E1"/><path d="M43.6 38.9a151.4 151.4 0 0 0-2.4 0l.6-3.6c0-.3 0-.6-.4-.7a.7.7 0 0 0-.8.2l-3.8 5.6a.7.7 0 0 0 .6 1 34.2 34.2 0 0 0 2 0l-.9 2-.6 1.8c-.1.3 0 .6.2.8h.4l.5-.1 5.1-6c.2-.1.2-.4 0-.6a.6.6 0 0 0-.5-.4Zm0 .7a171.5 171.5 0 0 1-5.1 5.8 117.4 117.4 0 0 0 1.6-4.5l-.3-.1a26.2 26.2 0 0 0-2.4 0 312.8 312.8 0 0 0 3.8-5.6 170.8 170.8 0 0 0-.6 3.5v.7l.2.1h2.8ZM53.2 24a404.4 404.4 0 0 1-2.3 1.3l-2 1.4-.1.2-.5 1.4-.5 1.4-3.4 3.5a8.8 8.8 0 0 0-7.5-.3l-1.3-1.3c.5-.7.8-1.5 1-2.3.2-1 .1-2-.2-2.7-.5-1.6-2-3.4-3.9-4-1.6-.3-3 0-4.5 1.3l-.2.2c0 .1 0 .2.2.3l1.2 1.2 1.2 1.1c0 .6-.2 1.1-.3 1.7l-.3 1.5-1.4.3-2 .4-1-1-1.3-1.2a.3.3 0 0 0-.4 0 4.6 4.6 0 0 0-.6 4.8c.8 1.6 2.3 3 3.9 3.4a6.4 6.4 0 0 0 4.5-.8 1477.2 1477.2 0 0 0 1.3 1.4 8.3 8.3 0 0 0-.3 4.8l-3.2 3.2-3.9 3.8c-.4.4-.8.9-1 1.5-.2.6-.1 1.4.2 2.1l1.3 1.6c1 1 2 2.2 3.5 2.3h.1c.7 0 1.3-.3 2-1l2.2-2.3 5-5a7.3 7.3 0 0 0 1.8.2c.8 0 1.6-.1 2.3-.3a344.1 344.1 0 0 0 6.2 6.6c.5.5 1.4 1.5 3.1 1.5l1.3-.2c1.3-.4 2.3-1.6 2.5-3 .2-1.4-.4-2.6-1.6-3.8l-6.2-6a8 8 0 0 0-.5-7.2l3.2-3.3 1.4-.5a33 33 0 0 0 1.6-.7c.9-1.3 2-3.1 2.5-4.2V27l-3.1-3ZM31.8 35.2a.3.3 0 0 0-.4 0c-.9.6-2.8 1.2-4.2.8a6 6 0 0 1-3.5-3c-.3-.7-.4-1.5-.3-2.2 0-.6.2-1.2.6-1.7a107.3 107.3 0 0 1 2.3 2.1c.9 0 1.6-.2 2.2-.3l1.7-.4c.1 0 .2 0 .2-.2l.4-1.8.3-1.8-.1-.3-1.3-1.2-1-1c1.2-1 2.4-1.2 3.7-.9 1.4.4 2.8 1.9 3.4 3.5.5 1.4.2 3.3-.8 4.7-.1.1-.1.3 0 .4l1.3 1.3a7.7 7.7 0 0 0-3.2 3.4l-1.3-1.4Zm1.4 17.6L31 55c-.5.6-1 .9-1.5.8-1.3 0-2.3-1-3.2-2-.4-.5-.8-1-1-1.5-.4-.5-.5-1.1-.3-1.6s.5-.9.9-1.2a367.4 367.4 0 0 1 6.8-6.8L33 44a892.5 892.5 0 0 0-5.8 5.7c-.5.5-.6 1-.4 1.4.1.3.5.5.8.5h.3a2 2 0 0 0 .9-.6l2.2-2 3.2-3.2.6.5c0 .1 0 .2.2.2l-2.1 2-3 3c-.4.3-.8.7-.9 1.2 0 .3 0 .7.2 1 .2.2.5.3.7.3.5 0 .8-.3 1-.4l3.4-3.4 2.6-2.5 1 .4-4.8 4.8Zm.3-8.3.4.6a70.4 70.4 0 0 1-6 5.7l-.5-.1c0-.1.1-.4.4-.7l3.3-3.2 2.4-2.3Zm2 2.3.9.5-2.4 2.3-3.5 3.4c-.1.1-.3.3-.5.3l-.2-.1v-.5c0-.3.3-.5.6-.9l3-3 2.2-2Zm18.3 2.9c1.1 1 1.6 2 1.5 3.1-.2 1.2-1 2.3-2 2.6-2.2.5-3.3-.6-3.8-1.2l-6-6.3a7.5 7.5 0 0 0 1.4-.7l2.8 2.8c.3.3.7.7 1.3.7.4 0 .8-.2 1-.5.3-.3.4-.7.3-1-.1-.7-.6-1.2-1-1.6L47 45.2a8.7 8.7 0 0 0 .8-1.3l6 5.8Zm-8.4-3c.4-.2.8-.6 1.2-1l2.2 2.3c.4.4.8.8.9 1.3 0 .2 0 .4-.2.5 0 .1-.3.3-.5.3-.3 0-.6-.3-.8-.5l-2.8-2.8Zm2.7-7c0 1.4-.3 3-1.1 4.3-.8 1.3-2 2.4-3.2 3-1.4.7-3 .9-4.4.7a7.7 7.7 0 0 1-6.2-5.8c-.4-1.5-.3-3 .2-4.4v-.2a7 7 0 0 1 3.6-3.7 7.9 7.9 0 0 1 7.3.3 7.1 7.1 0 0 1 3.8 5.8Zm5.2-8.7a41.5 41.5 0 0 1-3 1.2l-3.1 3.3a7 7 0 0 0-2.3-2 1604 1604 0 0 1 3.4-3.5l.6-1.4.4-1.4 2-1.3 1.7-1.2c1 .8 1.7 1.6 2.6 2.6-.5 1-1.5 2.6-2.3 3.7Zm-1.6 22.8.7.2h.4c.4-.2.8-.5.9-1 .1-.4 0-.8-.3-1.2-.3-.3-.8-.4-1.2-.3-.5.2-.7.4-.9.6v1l.4.7Zm.6-1.6H53c.2.2.2.5.2.7 0 .1-.2.3-.5.4-.5.1-.7-.2-.8-.4 0-.1 0-.6.5-.7Z" fill="#fff"/></svg>