<svg width="79" height="79" fill="none" xmlns="http://www.w3.org/2000/svg"><circle cx="39.5" cy="39.5" r="39" stroke="#00A7E1" stroke-dasharray="2 2"/><circle cx="39.5" cy="39.5" r="32.5" fill="#00A7E1"/><g clip-path="url(#a)" fill="#fff"><path d="M56.4 23.7H22.6c-.4 0-.6.2-.6.5v30.6c0 .3.3.5.6.5h33.8c.4 0 .6-.2.6-.5V24.2c0-.3-.3-.5-.6-.5ZM56 54.2H23V24.8h20.7V28h-19a.6.6 0 1 0 0 1.2h29.4a.6.6 0 1 0 0-1.2H45v-3.3h11v29.4Z"/><path d="M50.4 27a.6.6 0 1 0 0-1 .6.6 0 0 0 0 1ZM47.4 27a.6.6 0 1 0 0-1 .6.6 0 0 0 0 1ZM53.5 27a.6.6 0 1 0 0-1 .6.6 0 0 0 0 1ZM39.5 37.4a4.1 4.1 0 1 0 1.9 7.8.6.6 0 1 0-.5-1 3 3 0 1 1 1.3-1.3.6.6 0 1 0 1 .5 4.1 4.1 0 0 0-3.7-6Z"/><path d="M48.7 39.5h-2.4a7 7 0 0 0-.5-1.3l1.6-1.7a.6.6 0 0 0 0-.8l-2-2.1a.6.6 0 0 0-.9 0L43 35.3a7 7 0 0 0-1.4-.6v-2.3c0-.3-.2-.6-.5-.6h-3c-.3 0-.5.3-.5.6v2.3a7 7 0 0 0-1.4.6l-1.6-1.7a.6.6 0 0 0-.8 0l-2.1 2.1a.6.6 0 0 0 0 .8l1.6 1.7a7 7 0 0 0-.5 1.3h-2.4c-.3 0-.5.2-.5.5v3c0 .3.2.6.5.6h2.4l.5 1.3-1.6 1.7a.6.6 0 0 0 0 .8l2 2c.3.3.6.3.9 0l1.6-1.6 1.4.5v2.4c0 .3.2.6.5.6h3c.3 0 .5-.3.5-.6v-2.4a7 7 0 0 0 1.4-.5l1.6 1.7c.3.2.6.2.8 0l2.1-2.1a.6.6 0 0 0 0-.8l-1.6-1.7.5-1.3h2.4c.3 0 .5-.3.5-.6v-3c0-.3-.2-.5-.5-.5Zm-.6 3H46c-.3 0-.5.1-.6.4a6 6 0 0 1-.7 1.8v.7l1.6 1.6-1.3 1.3-1.5-1.6a.6.6 0 0 0-.7 0 6 6 0 0 1-1.8.7c-.3 0-.5.3-.5.5v2.2h-1.8V48c0-.2-.2-.5-.5-.5a6 6 0 0 1-1.8-.8.6.6 0 0 0-.7.1l-1.5 1.6-1.3-1.3 1.5-1.6c.2-.2.2-.5.1-.7a6 6 0 0 1-.7-1.8c-.1-.3-.3-.4-.6-.4H31v-1.9H33c.3 0 .5-.2.6-.4a6 6 0 0 1 .7-1.8v-.7L32.7 36l1.3-1.3 1.5 1.6c.2.1.5.2.7 0a6 6 0 0 1 1.8-.7c.3 0 .5-.3.5-.6V33h1.8v2.2c0 .3.2.5.5.6a6 6 0 0 1 1.8.7c.2.2.5.1.7 0l1.5-1.6 1.3 1.3-1.5 1.6c-.2.2-.2.4-.1.7.3.5.6 1.1.7 1.8.1.2.3.4.6.4H48v1.9Z"/></g><defs><clipPath id="a"><path fill="#fff" transform="translate(22 22)" d="M0 0h35v35H0z"/></clipPath></defs></svg>