<svg width="79" height="79" fill="none" xmlns="http://www.w3.org/2000/svg"><circle cx="39.5" cy="39.5" r="39" stroke="#00A7E1" stroke-dasharray="2 2"/><circle cx="39.5" cy="39.5" r="32.5" fill="#00A7E1"/><path d="M40.5 54h-3a.5.5 0 0 1-.5-.4l-.5-2.9c-.8-.1-1.6-.4-2.4-.8l-2 2c-.2.2-.5.3-.7.1L29 50.3a.5.5 0 0 1-.2-.7l1.3-2.6a12 12 0 0 1-1.5-2l-2.9.4a.5.5 0 0 1-.5-.3l-1-2.9c0-.2.1-.5.3-.6l2.6-1.3a11.2 11.2 0 0 1 0-2.6l-2.6-1.3a.5.5 0 0 1-.2-.6l.9-2.9c0-.2.3-.3.5-.3l2.9.4.5-.8c.2-.2.5-.3.7-.1.2.2.3.5.1.7l-.6 1c-.1.2-.3.3-.5.3l-2.8-.5-.6 2.1 2.4 1.3c.2 0 .3.3.3.5a11 11 0 0 0 0 3c0 .2 0 .4-.3.5l-2.4 1.3.6 2 2.8-.4c.2 0 .4.1.5.3.5.9 1 1.7 1.8 2.4.1.2.2.4 0 .6L30 49.7l1.7 1.3 2-2c.2-.2.4-.2.6-.1l2.9 1c.2 0 .3.1.4.3l.4 2.8h2.2l.4-2.8c0-.2.2-.3.4-.4 1-.2 2-.5 2.9-1 .2 0 .4 0 .6.2l2 2 1.7-1.3-1.3-2.5.1-.6a11 11 0 0 0 1.8-2.4c.1-.2.3-.3.5-.3l2.8.5.6-2.1-2.4-1.3a.5.5 0 0 1-.3-.5 11 11 0 0 0 0-3c0-.2 0-.4.3-.5l2.4-1.3-.6-2-2.8.4c-.2 0-.4-.1-.5-.3a11 11 0 0 0-1.8-2.4.5.5 0 0 1 0-.6l1.2-2.5-1.7-1.3-2 2c-.2.2-.4.2-.6.1l-2.9-1a.5.5 0 0 1-.4-.3l-.4-2.8h-2.2l-.4 2.8c0 .2-.2.3-.4.4-1 .2-2 .5-2.9 1-.2 0-.4 0-.6-.2l-2-2-1.7 1.3 1.3 2.5a.5.5 0 0 1-1 .5l-1.4-3c0-.1 0-.4.2-.6l2.4-1.7c.2-.2.5-.1.6 0l2.1 2c.8-.3 1.6-.6 2.4-.7l.5-2.9c0-.2.3-.4.5-.4h3c.2 0 .5.2.5.4l.5 2.9c.8.1 1.6.4 2.4.8l2-2c.2-.2.5-.3.7-.1l2.4 1.7c.2.2.3.5.2.7L47.9 31c.6.6 1 1.3 1.5 2l2.9-.4c.2 0 .4.1.5.3l1 2.9c0 .2-.1.5-.3.6l-2.6 1.3a11.6 11.6 0 0 1 0 2.6l2.6 1.3c.2.1.3.4.2.6l-.9 2.9c0 .2-.3.3-.5.3l-2.9-.4-1.5 2 1.3 2.6c0 .2 0 .5-.2.7L46.6 52c-.2.2-.5.1-.6 0l-2.1-2c-.8.3-1.6.6-2.4.7l-.5 2.9c0 .2-.3.4-.5.4ZM39 43a4 4 0 1 1 0-8 4 4 0 0 1 0 8Zm0-7a3 3 0 1 0 0 6 3 3 0 0 0 0-6Z" fill="#fff"/><path d="M39 47a8 8 0 1 1 6.3-3.1.5.5 0 0 1-.8-.6 7 7 0 1 0-3.1 2.3c.3-.1.6 0 .7.3 0 .2 0 .5-.3.6a8 8 0 0 1-2.8.5Z" fill="#fff"/><path d="M43.5 45.5a.5.5 0 1 0 0-1 .5.5 0 0 0 0 1Z" fill="#fff"/></svg>