<svg width="77" height="52" fill="none" xmlns="http://www.w3.org/2000/svg"><path d="M35.9 26c0 4-.3 7.6-1 10.8-.6 3.2-1.6 5.9-3 8.1a13.6 13.6 0 0 1-5.4 5 17.1 17.1 0 0 1-8.1 1.8c-4 0-7.3-1-9.9-3-2.5-2.1-4.5-5-5.7-8.9A46 46 0 0 1 1 26c0-5.4.5-10 1.6-13.8a17 17 0 0 1 5.6-8.9c2.5-2 6-3 10.2-3 4 0 7.3 1 9.9 3 2.5 2 4.4 5 5.7 8.9 1.3 3.8 1.9 8.4 1.9 13.8Zm-24.4 0c0 3.8.2 7 .6 9.5.4 2.5 1.1 4.5 2 5.8 1.1 1.2 2.5 1.9 4.3 1.9a5 5 0 0 0 4.1-2c1-1.2 1.8-3 2.2-5.6.5-2.6.7-5.8.7-9.6s-.2-7-.7-9.5c-.4-2.6-1.2-4.5-2.2-5.8-1-1.3-2.3-2-4.1-2a5 5 0 0 0-4.2 2c-1 1.3-1.7 3.2-2.1 5.8-.4 2.5-.6 5.7-.6 9.5Zm64.7 25H41.3v-7.4L53.8 31a238 238 0 0 0 6.1-6.5c1.6-1.8 2.7-3.4 3.4-4.8.7-1.4 1-3 1-4.6 0-2-.5-3.5-1.6-4.5S60 9.1 58.1 9.1s-3.7.5-5.6 1.4c-1.8.9-3.7 2.1-5.7 3.8l-5.7-6.8c1.4-1.3 3-2.5 4.5-3.5A25 25 0 0 1 59 .4c3.3 0 6 .5 8.4 1.7a12.9 12.9 0 0 1 7.4 11.7 19.8 19.8 0 0 1-3.7 11 44.5 44.5 0 0 1-4.3 5.1c-1.7 1.8-3.7 3.6-5.9 5.7l-6.4 6v.5h21.7V51Z" fill="#00A7E1"/></svg>