<svg width="68" height="68" fill="none" xmlns="http://www.w3.org/2000/svg"><g clip-path="url(#a)"><path d="M64.3 53.6a3.8 3.8 0 0 0 3.8-3.7v-41a3.8 3.8 0 0 0-3.8-3.7H3.7A3.8 3.8 0 0 0-.1 9v40.9a3.8 3.8 0 0 0 3.8 3.7h60.6ZM2 7.2c.5-.5 1.1-.7 1.8-.7h60.6A2.5 2.5 0 0 1 66.8 9v40.9a2.5 2.5 0 0 1-2.4 2.5H3.7a2.5 2.5 0 0 1-2.5-2.5v-41c0-.6.2-1.2.7-1.7Z" fill="#00A7E1" stroke="#00A7E1" stroke-width=".2"/><path d="M63.7 9.6a.6.6 0 0 0-.4-.2H4.7a.6.6 0 0 0-.6.6v38.8a.6.6 0 0 0 .6.6h58.6a.6.6 0 0 0 .6-.6V10a.6.6 0 0 0-.2-.4Zm-1 1v37.6H5.3V10.7h57.4Zm-22 48.5a.6.6 0 0 0 1.1-.5V53a.6.6 0 0 0-1.2 0v5.6c0 .2 0 .4.2.5Zm-14.3 0a.6.6 0 0 0 1-.5V53a.6.6 0 0 0-1.2 0v5.6c0 .2 0 .4.2.5Z" fill="#00A7E1" stroke="#00A7E1" stroke-width=".2"/><mask id="b" maskUnits="userSpaceOnUse" x="11.2" y="23.1" width="45" height="40" fill="#000"><path fill="#fff" d="M11.2 23.1h45v40h-45z"/><path d="M47.5 62.7h-27a.5.5 0 0 1-.5-.5 4 4 0 0 1 4-4h20a4 4 0 0 1 4 4 .5.5 0 0 1-.5.5Zm-26.4-1h25.8a3 3 0 0 0-3-2.5H24a3 3 0 0 0-3 2.4Zm-3.6-17.4h-4.7a.5.5 0 0 1-.6-.6V38a.5.5 0 0 1 .6-.6h4.7a.5.5 0 0 1 .5.6v5.8a.5.5 0 0 1-.5.6Zm-4.3-1.1H17v-4.8h-3.7v4.8Zm13.7 1h-4.7a.5.5 0 0 1-.6-.5V32a.5.5 0 0 1 .6-.5h4.7a.5.5 0 0 1 .5.5v11.7a.5.5 0 0 1-.5.6Zm-4.2-1h3.7V32.5h-3.7v10.7Zm13.7 1h-4.8a.5.5 0 0 1-.5-.5v-9a.5.5 0 0 1 .5-.5h4.8a.5.5 0 0 1 .5.5v9a.5.5 0 0 1-.5.6Zm-4.3-1h3.7v-8h-3.7v8Zm13.7 1h-4.7a.5.5 0 0 1-.5-.5V29a.5.5 0 0 1 .5-.6h4.7a.5.5 0 0 1 .6.6v14.8a.5.5 0 0 1-.6.6Zm-4.2-1h3.7V29.3h-3.7v13.9Zm13.7 1h-4.8a.5.5 0 0 1-.5-.5v-19a.5.5 0 0 1 .5-.6h4.8a.5.5 0 0 1 .5.5v19.1a.5.5 0 0 1-.5.6Zm-4.2-1h3.7v-18H51v18Z"/></mask><path d="M47.5 62.7h-27a.5.5 0 0 1-.5-.5 4 4 0 0 1 4-4h20a4 4 0 0 1 4 4 .5.5 0 0 1-.5.5Zm-26.4-1h25.8a3 3 0 0 0-3-2.5H24a3 3 0 0 0-3 2.4Zm-3.6-17.4h-4.7a.5.5 0 0 1-.6-.6V38a.5.5 0 0 1 .6-.6h4.7a.5.5 0 0 1 .5.6v5.8a.5.5 0 0 1-.5.6Zm-4.3-1.1H17v-4.8h-3.7v4.8Zm13.7 1h-4.7a.5.5 0 0 1-.6-.5V32a.5.5 0 0 1 .6-.5h4.7a.5.5 0 0 1 .5.5v11.7a.5.5 0 0 1-.5.6Zm-4.2-1h3.7V32.5h-3.7v10.7Zm13.7 1h-4.8a.5.5 0 0 1-.5-.5v-9a.5.5 0 0 1 .5-.5h4.8a.5.5 0 0 1 .5.5v9a.5.5 0 0 1-.5.6Zm-4.3-1h3.7v-8h-3.7v8Zm13.7 1h-4.7a.5.5 0 0 1-.5-.5V29a.5.5 0 0 1 .5-.6h4.7a.5.5 0 0 1 .6.6v14.8a.5.5 0 0 1-.6.6Zm-4.2-1h3.7V29.3h-3.7v13.9Zm13.7 1h-4.8a.5.5 0 0 1-.5-.5v-19a.5.5 0 0 1 .5-.6h4.8a.5.5 0 0 1 .5.5v19.1a.5.5 0 0 1-.5.6Zm-4.2-1h3.7v-18H51v18Z" fill="#00A7E1"/><path d="M47.5 62.7h-27a.5.5 0 0 1-.5-.5 4 4 0 0 1 4-4h20a4 4 0 0 1 4 4 .5.5 0 0 1-.5.5Zm-26.4-1h25.8a3 3 0 0 0-3-2.5H24a3 3 0 0 0-3 2.4Zm-3.6-17.4h-4.7a.5.5 0 0 1-.6-.6V38a.5.5 0 0 1 .6-.6h4.7a.5.5 0 0 1 .5.6v5.8a.5.5 0 0 1-.5.6Zm-4.3-1.1H17v-4.8h-3.7v4.8Zm13.7 1h-4.7a.5.5 0 0 1-.6-.5V32a.5.5 0 0 1 .6-.5h4.7a.5.5 0 0 1 .5.5v11.7a.5.5 0 0 1-.5.6Zm-4.2-1h3.7V32.5h-3.7v10.7Zm13.7 1h-4.8a.5.5 0 0 1-.5-.5v-9a.5.5 0 0 1 .5-.5h4.8a.5.5 0 0 1 .5.5v9a.5.5 0 0 1-.5.6Zm-4.3-1h3.7v-8h-3.7v8Zm13.7 1h-4.7a.5.5 0 0 1-.5-.5V29a.5.5 0 0 1 .5-.6h4.7a.5.5 0 0 1 .6.6v14.8a.5.5 0 0 1-.6.6Zm-4.2-1h3.7V29.3h-3.7v13.9Zm13.7 1h-4.8a.5.5 0 0 1-.5-.5v-19a.5.5 0 0 1 .5-.6h4.8a.5.5 0 0 1 .5.5v19.1a.5.5 0 0 1-.5.6Zm-4.2-1h3.7v-18H51v18Z" stroke="#00A7E1" stroke-width=".4" mask="url(#b)"/><path d="M14.6 33.6a.6.6 0 0 1 .1-.9v.1l-.1.8Zm0 0a.6.6 0 0 0 .5.3h.3l9.2-6.2 9.2 3.5a.6.6 0 0 0 .6-.1l9.4-7.7 10.3-4a.6.6 0 0 0 .3-.3.6.6 0 0 0 0-.5.6.6 0 0 0-.8-.4l-10.4 4-.1.1-9.2 7.6-19.3 3.7Z" fill="#00A7E1" stroke="#00A7E1" stroke-width=".2"/><path d="M52.6 21.9a.6.6 0 0 0 .6-.4l1.2-2.4a.6.6 0 0 0 0-.4.6.6 0 0 0-.3-.4l-2.6-1a.6.6 0 0 0-.5 1v.1l2 .8-1 1.8a.6.6 0 0 0 .3.8h.3Zm0 0v-.1Z" fill="#00A7E1" stroke="#00A7E1" stroke-width=".2"/></g><defs><clipPath id="a"><path fill="#fff" d="M0 0h68v68H0z"/></clipPath></defs></svg>