<svg width="56" height="56" fill="none" xmlns="http://www.w3.org/2000/svg"><g clip-path="url(#a)" fill="#00A7E1"><path d="M54.7 55.5H13.2c-.7 0-1.3-.5-1.3-1.2V12.7c0-.7.6-1.3 1.3-1.3h41.5c.7 0 1.3.6 1.3 1.3v41.6c0 .7-.6 1.2-1.3 1.2ZM14.4 53h39.1V14h-39v39Z"/><path d="M22.7 31.9c-.3 0-.7-.1-.9-.4L17.2 27c-.5-.5-.4-1.3 0-1.8.5-.5 1.3-.5 1.8 0l3.6 3.7 8-9.5c.4-.5 1.2-.6 1.7-.1.6.4.6 1.2.2 1.7l-8.8 10.6c-.3.2-.6.4-1 .4Zm27-3.2H34.2a1.3 1.3 0 1 1 0-2.5h15.7a1.3 1.3 0 1 1 0 2.5ZM22.8 48c-.3 0-.7-.2-.9-.4L17.2 43c-.5-.5-.4-1.3 0-1.8.5-.5 1.3-.4 1.8 0l3.6 3.7 8-9.4c.4-.6 1.2-.6 1.7-.2.6.5.6 1.2.2 1.8l-8.8 10.5c-.3.3-.6.4-1 .5Zm27-3.3H34.2a1.3 1.3 0 1 1 0-2.5h15.7a1.3 1.3 0 1 1 0 2.5ZM9 26.6H1.2c-.7 0-1.3-.5-1.3-1.2V1.7C0 1.1.6.5 1.3.5h24.6c.7 0 1.3.6 1.3 1.2v6.8a1.3 1.3 0 1 1-2.5 0V3H2.5V24H9a1.3 1.3 0 1 1 0 2.5Z"/></g><defs><clipPath id="a"><path fill="#fff" d="M0 0h56v56H0z"/></clipPath></defs></svg>