<svg width="54" height="52" fill="none" xmlns="http://www.w3.org/2000/svg"><path d="M14.6 22.3c.3-1 .6-1.2 1.5-1.2h.3c.6 0 1 0 1.4-.6.9-1.4 2.8-1.2 3.6.3.1.2.2.3.5.3H23c.6 0 1 .3 1.2 1 .1.2.2.2.4.2H26c1.6 0 2.7 1.2 2.7 3v1c.6 0 1.1-.2 1.6-.3H37c4.2.4 7.8 3.9 8.7 8.2.2.7.3 1.5.3 2.2 0 .8-.2 1-1 1H28.7v4.3c0 1.8-1.1 3-2.8 3H13.2c-1.7 0-2.8-1.2-2.8-3V25.2c0-1.7 1-2.9 2.8-3h1.4Zm0 1.5h-1.4c-1 0-1.3.5-1.3 1.5v16.4c0 1 .4 1.4 1.4 1.4h12.5c1 0 1.4-.4 1.4-1.4V25c0-.6-.4-1-.9-1.1h-2v.2c0 1.3-.4 1.7-1.6 1.7h-6.9c-.3 0-.6-.2-.8-.4-.3-.2-.4-.6-.4-1v-.6ZM44.4 36l-.1-1c-.7-3.9-4-7.1-7.8-7.4h-5.2c-.7 0-1.5.3-2.2.4-.3 0-.4.2-.4.5v7.5h15.7ZM22.8 22.6h-1.5c-.7 0-1 0-1.2-.9 0-.2 0-.3-.2-.4a.6.6 0 0 0-.5-.2l-.4.2-.2.5c-.2.7-.4.8-1 .8H16v1.6h6.7v-1.6ZM40.5 15c-.2 2.6-1.3 5.2-3.5 7.2-2.1 2-4.6 2-6.8-.1-2.1-2.1-3.3-4.8-3.3-7.9 0-4 3.3-7.2 7-7 3.7.1 6.6 3.3 6.6 7.7Zm-12 0a9.2 9.2 0 0 0 3 6.1c1.4 1.3 3 1.3 4.4 0 2.3-2 3.3-4.5 3-7.6a5.4 5.4 0 0 0-4.7-4.8c-3.2-.2-5.8 2.4-5.8 6.2Z" fill="#F56841"/><path d="M19.5 41h-5.4c-.5 0-1-.4-.8-.9l.2-.4.4-.2h11.3c.1 0 .3 0 .5.2a.8.8 0 0 1 0 1.1c-.2.2-.4.2-.6.2h-5.6ZM19.6 36.4h5.3c.6 0 1 .3 1 .7 0 .5-.4.8-1 .8H14.1a.8.8 0 0 1-.8-.7v-.5l.4-.3h5.9ZM18.5 32.5l3.4-3.6.4-.4a.7.7 0 0 1 1 0l.2.5-.1.5-.2.3-4 4.2c-.6.6-1 .6-1.4 0l-2-2c-.3-.4-.3-.9 0-1.2.3-.3.7-.3 1.1.1l1.6 1.6Z" fill="#F56841"/></svg>