<svg width="45" height="45" fill="none" xmlns="http://www.w3.org/2000/svg"><path d="M10.7 34.2h2.4l.1-.2v-.4l-.1-.1h-1.8v-1H13V32h-1.7v-1h1.8v-.6h-2.4l-.1.1v3.6h.1Zm3.5-.3.4.2.6.1h.7l.5-.3.3-.4v-.8l-.2-.3-.4-.2-.6-.2a21 21 0 0 1-.8-.2l-.1-.2-.1-.2v-.1l.2-.2h1l.2.2.1.1h.6V31a1 1 0 0 0-.3-.3l-.5-.3a2 2 0 0 0-.6 0h-.6l-.4.2a1 1 0 0 0-.3.4l-.1.4v.5l.2.3.4.2.4.1a14.9 14.9 0 0 0 1 .3h.2v.5l-.2.1-.3.1a2 2 0 0 1-.6 0h-.3l-.1-.2v-.1l-.2-.1h-.6l.1.5.4.3Zm3.5 0 .4.2.6.1h.7l.5-.3.3-.4v-.8l-.2-.3-.4-.2-.6-.2a21.2 21.2 0 0 1-.8-.2l-.1-.2-.1-.2v-.1l.2-.2h1l.2.2.1.1h.6V31a1 1 0 0 0-.3-.3l-.5-.3a2 2 0 0 0-.6 0H18l-.4.2a1 1 0 0 0-.3.4l-.1.4v.5l.2.3.4.2.4.1a14.9 14.9 0 0 0 1 .3h.2v.5l-.2.1-.3.1a2 2 0 0 1-.6 0H18l-.1-.2v-.1l-.2-.1h-.6l.1.5.4.3Z" fill="#00A7E1"/><path d="M39.4 12.4v-.1l-.2-.2-7.4-7.4L29 1.9v-.1H10.6A2.6 2.6 0 0 0 8 4.2v22.9h-.7c-1 0-1.8.8-1.8 1.7v7c0 1 .8 1.7 1.8 1.7H8v3c0 1.4 1.1 2.6 2.6 2.6h26.1c1.4 0 2.6-1.2 2.6-2.6V12.5Zm-10.2-9 1.7 1.7 6.8 6.8h-6.9c-.9 0-1.6-.7-1.6-1.6V3.4ZM6.6 35.8V29c0-.4.3-.8.8-.8H23c.6 0 1 .5 1 1v6.5c0 .6-.4 1-1 1H7.4a.8.8 0 0 1-.8-.8Zm30.2 6.4H10.7c-1 0-1.7-.7-1.7-1.6v-3h14c1.1 0 2-.9 2-2v-6.5c0-1-.9-2-2-2H9V4.4c0-.9.8-1.6 1.7-1.6h17.5v7.6c0 1.5 1.2 2.6 2.6 2.6h7.6v27.7c0 .9-.7 1.6-1.6 1.6Z" fill="#00A7E1"/><path d="M32 18.8H15.4a.5.5 0 0 0 0 1H32a.5.5 0 0 0 0-1ZM15.4 16h8.3a.5.5 0 0 0 0-1h-8.3a.5.5 0 0 0 0 1ZM32 22.6H15.4a.5.5 0 0 0 0 1H32a.5.5 0 0 0 0-1Z" fill="#00A7E1"/></svg>