<svg width="49" height="51" fill="none" xmlns="http://www.w3.org/2000/svg"><g clip-path="url(#a)" fill="#FFDC3C"><path d="M48 20.7h-3.6c-.5-2.3-1.4-4.5-2.6-6.5l2.5-2.7a1 1 0 0 0 .3-.7 1 1 0 0 0-.3-.7l-5-5.3a1 1 0 0 0-1.4 0l-2.6 2.7a20 20 0 0 0-6.2-2.7V1a1 1 0 0 0-.3-.7A1 1 0 0 0 28 0h-7.2a1 1 0 0 0-.7.3 1 1 0 0 0-.3.7v3.8a20 20 0 0 0-6.3 2.7l-2.5-2.7a1 1 0 0 0-.7-.3 1 1 0 0 0-.7.3l-5 5.3a1 1 0 0 0-.3.7 1 1 0 0 0 .2.8l2.6 2.6c-1.2 2-2.1 4.2-2.6 6.5H1a1 1 0 0 0-.7.3 1 1 0 0 0-.3.8v7.4a1 1 0 0 0 .3.8 1 1 0 0 0 .7.3h3.6c.5 2.3 1.4 4.5 2.6 6.5l-2.6 2.6a1 1 0 0 0-.2.8 1 1 0 0 0 .2.7l5.1 5.3a1 1 0 0 0 .7.3 1 1 0 0 0 .7-.3l2.6-2.7c1.9 1.3 4 2.2 6.2 2.7V50c0 .2.1.5.3.7.2.2.4.3.7.3h7.2a1 1 0 0 0 .7-.3 1 1 0 0 0 .3-.7v-3.8a20 20 0 0 0 6.3-2.7l2.5 2.7a1 1 0 0 0 1.4 0l5-5.3a1 1 0 0 0 .4-.7 1 1 0 0 0-.3-.8l-2.6-2.6c1.2-2 2.1-4.2 2.6-6.5H48a1 1 0 0 0 .7-.3 1 1 0 0 0 .3-.8v-7.4a1 1 0 0 0-.3-.8 1 1 0 0 0-.7-.3Zm-.5 8H44a1 1 0 0 0-.6.2 1 1 0 0 0-.4.6c-.4 2.4-1.3 4.7-2.6 6.7a1 1 0 0 0 0 1.3l2.6 2.6-4.4 4.6-2.5-2.6A1 1 0 0 0 35 42c-2 1.4-4.2 2.3-6.5 2.8a1 1 0 0 0-.6.4 1 1 0 0 0-.2.6v3.7h-6.2v-3.7c0-.2 0-.4-.2-.6a1 1 0 0 0-.5-.4c-2.3-.5-4.5-1.4-6.5-2.8a1 1 0 0 0-1.3.1l-2.5 2.6L6 40.2l2.5-2.6.3-.6c0-.3 0-.5-.2-.7A20 20 0 0 1 6 29.5a1 1 0 0 0-.4-.5 1 1 0 0 0-.6-.3H1.5v-6.4H5c.2 0 .4 0 .6-.2l.4-.6a20 20 0 0 1 2.6-6.7 1 1 0 0 0 0-1.3L6 10.8l4.4-4.5L13 8.9l.6.3c.2 0 .4 0 .6-.2 2-1.4 4.2-2.3 6.5-2.8.2 0 .4-.2.6-.4l.2-.6V1.5h6.2v3.7c0 .2 0 .4.2.6l.5.4c2.3.5 4.5 1.4 6.5 2.8a1 1 0 0 0 1.3-.1l2.5-2.6 4.4 4.5-2.5 2.6a1 1 0 0 0-.1 1.3c1.3 2 2.2 4.4 2.6 6.8 0 .2.2.4.4.5l.6.3h3.5v6.4Z"/><path d="M24.5 9.2c-3 0-6.1 1-8.7 2.8a16.1 16.1 0 0 0-5.7 7.3A16.9 16.9 0 0 0 13.5 37a15 15 0 0 0 17 3.5c2.8-1.2 5.3-3.3 7-6a16.7 16.7 0 0 0-2-20.5c-2.9-3-6.9-4.8-11-4.8Zm0 31c-2.8 0-5.5-.8-7.9-2.5-2.3-1.6-4-3.9-5.2-6.6a15.3 15.3 0 0 1 3.1-16 13.6 13.6 0 0 1 15.4-3.2c2.6 1.1 4.8 3 6.4 5.4A15.1 15.1 0 0 1 34.5 36a13.9 13.9 0 0 1-10 4.3Z"/><path d="M27.4 24.7h-5.6c-1.2 0-2.4.5-3.3 1.5a5 5 0 0 0-1.4 3.4v4.8c0 .4.1.7.3 1l.9.3h12.6a1.2 1.2 0 0 0 .9-.4 1.3 1.3 0 0 0 .4-.9v-4.7a5.1 5.1 0 0 0-1.4-3.6 4.7 4.7 0 0 0-3.4-1.4Zm3.3 9.5H29v-4.3c0-.2-.2-.3-.3-.4a.7.7 0 0 0-1 0l-.2.4v4.3h-5.8v-4.3c0-.2 0-.3-.2-.4a.7.7 0 0 0-1 0l-.2.4v4.3h-1.7v-4.6c0-.9.3-1.7 1-2.4.5-.6 1.4-1 2.2-1h5.6c.9 0 1.7.4 2.3 1 .6.7 1 1.5 1 2.4v4.6Zm-6-10c.8 0 1.6-.2 2.3-.7.8-.5 1.3-1.2 1.7-2a4.7 4.7 0 0 0-1-5 4.2 4.2 0 0 0-4.8-1c-.8.4-1.4 1-2 1.7a4.7 4.7 0 0 0 .6 5.8 4.4 4.4 0 0 0 3.1 1.3Zm0-7.5c.5 0 1 .2 1.5.5.5.4.9.8 1 1.4a3.1 3.1 0 0 1-.5 3.3c-.4.4-1 .7-1.5.8a3 3 0 0 1-3-1.3 3.1 3.1 0 0 1 .4-3.8 2.9 2.9 0 0 1 2-.9Z"/></g><defs><clipPath id="a"><path fill="#fff" d="M0 0h49v51H0z"/></clipPath></defs></svg>