<svg width="60" height="60" fill="none" xmlns="http://www.w3.org/2000/svg"><g clip-path="url(#a)" fill="#00A7E1"><path d="M36.5 10.8a18 18 0 0 0-25.7 0c-5 4.9-6.4 12-4.5 18.1v.2a18 18 0 0 0 17.3 12.7 18 18 0 0 0 18.2-18.2 18 18 0 0 0-5.3-12.8ZM12.1 12a16.3 16.3 0 0 1 23.1 0l.1.1-4 1.3a2.7 2.7 0 1 0-3.8 3.7l-3 8.2H24c-.4 0-.8 0-1.2.3l-6-5v-.2a2.7 2.7 0 0 0-5.4 0v.2l-3.8 5.8c-1-5 .5-10.5 4.5-14.4Zm17.1 3.8a.9.9 0 1 1 0-1.7.9.9 0 0 1 0 1.7ZM24 27.2h.4l.1.2c.2.1.4.3.4.6a.9.9 0 1 1-.9-.8Zm-10.7-6.7a.9.9 0 1 1 1.7 0 .9.9 0 0 1-1.7 0Zm22 14.7a16.3 16.3 0 0 1-23.2 0c-1.9-1.8-3.2-4-4-6.3l4.3-6.4a2.6 2.6 0 0 0 3.6-.1l5.6 4.6a2.7 2.7 0 1 0 4.5-.6l3.2-8.6c1.4 0 2.5-1.2 2.6-2.6l4.7-1.5a16.2 16.2 0 0 1-1.4 21.5Z"/><path d="m57 48.1-13.3-12c4.7-7.5 4.8-17.1.2-24.7L51.4 9l-.6 1a1 1 0 0 0 1.6 1L54 8v-.8c0-.2 0-.3-.2-.4l-.2-.1-3.2-1.5a1 1 0 1 0-.7 1.6l1 .5-8 2.5A23.7 23.7 0 0 0 23.6 0 23.5 23.5 0 0 0 0 23.6c0 3.8.9 7.4 2.5 10.6L.5 37a1 1 0 1 0 1.4 1l1.6-2a23.8 23.8 0 0 0 32.7 7.8l12 13.4a8 8 0 0 0 5.7 2.9 6 6 0 0 0 4.2-1.8 6 6 0 0 0 1.9-4.5c0-2-1-4-3-5.6Zm-48.8-9a21.7 21.7 0 0 1 0-30.9 21.7 21.7 0 0 1 30.9 0A21.9 21.9 0 0 1 8.2 39.1ZM57 56.9a4 4 0 0 1-3.1 1.3c-1.5 0-3-.9-4.3-2.3L37.7 42.7a23.7 23.7 0 0 0 5-5l13.2 11.8a6.3 6.3 0 0 1 2.3 4.3c0 1.1-.4 2.2-1.3 3Z"/></g><defs><clipPath id="a"><path fill="#fff" d="M0 0h60v60H0z"/></clipPath></defs></svg>