<svg width="75" height="75" fill="none" xmlns="http://www.w3.org/2000/svg"><path d="M30 39.7h.2l1-1 .1-.1-5.5-5.6 5.5-5.5v-.1l-1-1-.1-.1H30L24 32.4c-.3.4-.3.9 0 1.2l6 6.1Zm14.8 0 6.2-6.1a.8.8 0 0 0 0-1.2l-6-6-.2-.1-1 1-.1.1v.1l5.5 5.5-5.5 5.5v.1l1 1.1ZM39.1 26.3H39l-4.5 12.8v.1l1.4.5h.1l4.5-12.8-1.4-.6Z" fill="#00A7E1" stroke="#00A7E1" stroke-width=".2"/><path d="M14.2 57.2h46.6c2.5 0 4.5-2 4.5-4.5V20.5c0-2.5-2-4.5-4.5-4.5H14.2c-2.5 0-4.5 2-4.5 4.5v32.2c0 2.5 2 4.5 4.5 4.5Zm-2.8-36.7c0-1.6 1.3-2.8 2.8-2.8h46.6c1.5 0 2.8 1.2 2.8 2.8v32.2c0 1.6-1.3 2.8-2.8 2.8H14.2a2.8 2.8 0 0 1-2.8-2.8V20.5Z" fill="#00A7E1" stroke="#00A7E1" stroke-width=".2"/><path d="M32 65.3h11c.4 0 .8-.3.8-.8v-8.2c0-.4-.4-.8-.8-.8H32c-.4 0-.8.4-.8.8v8.2c0 .5.4.8.8.8Zm10.1-8.1v6.5H33v-6.5H42ZM64.5 47.8h-54v1.6h54v-1.6Z" fill="#00A7E1" stroke="#00A7E1" stroke-width=".2"/><path d="M48.4 63.8v-.1H26.5v1.6h21.8v-1.5Z" fill="#00A7E1" stroke="#00A7E1" stroke-width=".2"/></svg>