<svg width="196" height="91" fill="none" xmlns="http://www.w3.org/2000/svg"><path d="M0 2.3a1.9 1.9 0 1 0 3.8 0 1.9 1.9 0 0 0-3.8 0ZM20.8 2.3a1.9 1.9 0 1 0 3.8 0 1.9 1.9 0 0 0-3.8 0ZM41.6 2.3a1.9 1.9 0 1 0 3.8 0 1.9 1.9 0 0 0-3.8 0ZM62.5 2.3a1.9 1.9 0 1 0 3.7 0 1.9 1.9 0 0 0-3.7 0ZM83.3 2.3a1.9 1.9 0 1 0 3.8 0 1.9 1.9 0 0 0-3.8 0ZM104.1 2.3a1.9 1.9 0 1 0 3.8 0 1.9 1.9 0 0 0-3.8 0ZM125 2.3a1.9 1.9 0 1 0 3.7 0 1.9 1.9 0 0 0-3.8 0ZM145.8 2.3a1.9 1.9 0 1 0 3.7 0 1.9 1.9 0 0 0-3.7 0ZM166.6 2.3a1.9 1.9 0 1 0 3.8 0 1.9 1.9 0 0 0-3.8 0ZM187.4 2.3a1.9 1.9 0 1 0 3.8 0 1.9 1.9 0 0 0-3.8 0ZM0 19.7a1.9 1.9 0 1 0 3.8 0 1.9 1.9 0 0 0-3.8 0ZM20.8 19.7a1.9 1.9 0 1 0 3.8 0 1.9 1.9 0 0 0-3.8 0ZM41.6 19.7a1.9 1.9 0 1 0 3.8 0 1.9 1.9 0 0 0-3.8 0ZM62.5 19.7a1.9 1.9 0 1 0 3.7 0 1.9 1.9 0 0 0-3.7 0ZM83.3 19.7a1.9 1.9 0 1 0 3.8 0 1.9 1.9 0 0 0-3.8 0ZM104.1 19.7a1.9 1.9 0 0 0 3.2 1.3 1.9 1.9 0 1 0-3.2-1.3ZM125 19.7a1.9 1.9 0 1 0 3.7 0 1.9 1.9 0 0 0-3.8 0ZM145.8 19.7a1.9 1.9 0 1 0 3.7 0 1.9 1.9 0 0 0-3.7 0ZM166.6 19.7a1.9 1.9 0 1 0 3.8 0 1.9 1.9 0 0 0-3.8 0ZM187.4 19.7a1.9 1.9 0 0 0 3.2 1.3 1.9 1.9 0 1 0-3.2-1.3ZM0 37a1.9 1.9 0 1 0 3.8 0A1.9 1.9 0 0 0 0 37ZM20.8 37a1.9 1.9 0 1 0 3.8 0 1.9 1.9 0 0 0-3.8 0ZM41.6 37a1.9 1.9 0 1 0 3.8 0 1.9 1.9 0 0 0-3.8 0ZM62.5 37a1.9 1.9 0 1 0 3.7 0 1.9 1.9 0 0 0-3.7 0ZM83.3 37a1.9 1.9 0 1 0 3.8 0 1.9 1.9 0 0 0-3.8 0ZM104.1 37a1.9 1.9 0 1 0 3.8 0 1.9 1.9 0 0 0-3.8 0ZM125 37a1.9 1.9 0 1 0 3.7 0 1.9 1.9 0 0 0-3.8 0ZM145.8 37a1.9 1.9 0 1 0 3.7 0 1.9 1.9 0 0 0-3.7 0ZM166.6 37a1.9 1.9 0 1 0 3.8 0 1.9 1.9 0 0 0-3.8 0ZM187.4 37a1.9 1.9 0 1 0 3.8 0 1.9 1.9 0 0 0-3.8 0ZM0 54.4a1.9 1.9 0 1 0 3.8 0 1.9 1.9 0 0 0-3.8 0ZM20.8 54.4a1.9 1.9 0 1 0 3.8 0 1.9 1.9 0 0 0-3.8 0ZM41.6 54.4a1.9 1.9 0 1 0 3.8 0 1.9 1.9 0 0 0-3.8 0ZM62.5 54.4a1.9 1.9 0 1 0 3.7 0 1.9 1.9 0 0 0-3.7 0ZM83.3 54.4a1.9 1.9 0 1 0 3.8 0 1.9 1.9 0 0 0-3.8 0ZM104.1 54.4a1.9 1.9 0 1 0 3.8 0 1.9 1.9 0 0 0-3.8 0ZM125 54.4a1.9 1.9 0 1 0 3.7 0 1.9 1.9 0 0 0-3.8 0ZM145.8 54.4a1.9 1.9 0 1 0 3.7 0 1.9 1.9 0 0 0-3.7 0ZM166.6 54.4a1.9 1.9 0 1 0 3.8 0 1.9 1.9 0 0 0-3.8 0ZM187.4 54.4a1.9 1.9 0 1 0 3.8 0 1.9 1.9 0 0 0-3.8 0ZM0 71.7a1.9 1.9 0 1 0 3.8 0 1.9 1.9 0 0 0-3.8 0ZM20.8 71.7a1.9 1.9 0 1 0 3.8 0 1.9 1.9 0 0 0-3.8 0ZM41.6 71.7a1.9 1.9 0 1 0 3.8 0 1.9 1.9 0 0 0-3.8 0ZM64.4 73.6a1.9 1.9 0 1 0 0-3.8 1.9 1.9 0 0 0 0 3.8ZM85.2 73.6a1.9 1.9 0 1 0 0-3.8 1.9 1.9 0 0 0 0 3.8ZM106 73.6a1.9 1.9 0 1 0 0-3.8 1.9 1.9 0 0 0 0 3.8ZM125 71.7a1.9 1.9 0 1 0 3.7 0 1.9 1.9 0 0 0-3.8 0ZM145.8 71.7a1.9 1.9 0 1 0 3.7 0 1.9 1.9 0 0 0-3.7 0ZM166.6 71.7a1.9 1.9 0 1 0 3.8 0 1.9 1.9 0 0 0-3.8 0ZM187.4 71.7a1.9 1.9 0 1 0 3.8 0 1.9 1.9 0 0 0-3.8 0ZM0 89a1.9 1.9 0 1 0 3.8 0A1.9 1.9 0 0 0 0 89ZM20.8 89a1.9 1.9 0 1 0 3.8 0 1.9 1.9 0 0 0-3.8 0ZM41.6 89a1.9 1.9 0 1 0 3.8 0 1.9 1.9 0 0 0-3.8 0ZM62.5 89a1.9 1.9 0 1 0 3.7 0 1.9 1.9 0 0 0-3.7 0ZM83.3 89a1.9 1.9 0 1 0 3.8 0 1.9 1.9 0 0 0-3.8 0ZM104.1 89a1.9 1.9 0 1 0 3.8 0 1.9 1.9 0 0 0-3.8 0ZM125 89a1.9 1.9 0 1 0 3.7 0 1.9 1.9 0 0 0-3.8 0ZM145.8 89a1.9 1.9 0 1 0 3.7 0 1.9 1.9 0 0 0-3.7 0ZM166.6 89a1.9 1.9 0 1 0 3.8 0 1.9 1.9 0 0 0-3.8 0ZM187.4 89a1.9 1.9 0 1 0 3.8 0 1.9 1.9 0 0 0-3.8 0Z" fill="#fff"/></svg>