<svg width="15" height="16" fill="none" xmlns="http://www.w3.org/2000/svg"><g clip-path="url(#a)"><path d="M4.2 2.6a6.7 6.7 0 1 1 0 11.7l-3.4.8.8-3.5a6.7 6.7 0 0 1 2.6-9Z" stroke="#6D6A6A" stroke-linecap="round" stroke-linejoin="round"/><g clip-path="url(#b)"><path d="M7.9 6.7a.1.1 0 0 0 0 .2A1.3 1.3 0 0 1 9 8.3a.1.1 0 0 0 .3 0v-.1c0-.8-.6-1.5-1.4-1.5Zm0-.8s2 .2 2 2.4a.1.1 0 0 0 .3 0V8c0-1.3-1-2.4-2.3-2.5l-.2.2.2.1Zm2.3 3.9v-.4H10L8.3 9l-.4.5A3 3 0 0 1 6.3 8l.5-.3a.1.1 0 0 0 0-.2L6.5 6v-.1L6 5.6H6c-.6 0-1.2.6-1.2 1.2 0 2.4 2 4.3 4.4 4.3.6 0 1.2-.5 1.2-1.1v-.3Zm-1.1 1a4 4 0 0 1-4-4c0-.5.3-.9.8-.9h.4l.2 1.6-.4.2a.1.1 0 0 0-.1.2c.3 1 1 1.7 2 2l.2-.1c0-.2 0-.3.2-.4l1.5.2V10c0 .6-.3 1-.8 1Z" fill="#6D6A6A"/></g></g><defs><clipPath id="a"><path fill="#fff" transform="translate(0 1)" d="M0 0h15v15H0z"/></clipPath><clipPath id="b"><path fill="#fff" transform="translate(4.5 5.4)" d="M0 0h6v6H0z"/></clipPath></defs></svg>